SplineFontDB: 3.0
FontName: Evolventa-BoldOblique
FullName: Evolventa Bold Oblique
FamilyName: Evolventa
Weight: Bold
Copyright: Copyright \\(c\\) 2016 by Alex I. Kuznetsov.\\012\\012This font is free software. You are allowed to distribute and/or modify it under the terms of either \\(or both\\) of the following two licenses \\(your choice\\):\\012\\0121\\) GNU General Public License version 2 \\(https://gnu.org/licenses/old-licenses/gpl-2.0.txt\\)\\0122\\) The LaTeX Project Public License version 1.3c or \\(at your option\\) any later version \\(http://www.latex-project.org/lppl.txt\\)\\012\\012Contains work kindly released to the open source community by URW++ Design and Development GmbH as "URW Gothic L" \\(version 001.005\\) with the following copyright notice: Copyright URW Software, Copyright 1996 by URW.\\012\\012Original URW fonts can be obtained at the Evolventa website \\(https://evolventa.github.io\\).
Version: 001.001
ItalicAngle: -10.5
UnderlinePosition: -183
UnderlineWidth: 90
Ascent: 800
Descent: 200
InvalidEm: 0
sfntRevision: 0x00010000
LayerCount: 2
Layer: 0 0 "Back" 1
Layer: 1 0 "Fore" 0
PreferredKerning: 4
XUID: [1021 1017 285194369 3848]
StyleMap: 0x0021
FSType: 0
OS2Version: 3
OS2_WeightWidthSlopeOnly: 0
OS2_UseTypoMetrics: 0
CreationTime: 832050856
ModificationTime: 1494979325
PfmFamily: 17
TTFWeight: 700
TTFWidth: 5
LineGap: 330
VLineGap: 0
Panose: 2 0 8 3 3 0 0 9 0 4
OS2TypoAscent: 800
OS2TypoAOffset: 0
OS2TypoDescent: -200
OS2TypoDOffset: 0
OS2TypoLinegap: 330
OS2WinAscent: 1060
OS2WinAOffset: 0
OS2WinDescent: 270
OS2WinDOffset: 0
HheadAscent: 800
HheadAOffset: 0
HheadDescent: -200
HheadDOffset: 0
OS2SubXSize: 650
OS2SubYSize: 699
OS2SubXOff: 25
OS2SubYOff: 140
OS2SupXSize: 650
OS2SupYSize: 699
OS2SupXOff: -87
OS2SupYOff: 479
OS2StrikeYSize: 49
OS2StrikeYPos: 258
OS2CapHeight: 739
OS2XHeight: 554
OS2FamilyClass: 2052
OS2Vendor: 'PfEd'
OS2CodePages: 00000005.00000000
OS2UnicodeRanges: 8000026f.5000004a.00000000.00000000

StartChar: .notdef
Encoding: 256 -1 0
GlifName: _notdef
Width: 761
Flags: MW
HStem: 0 63<162 232 553 623> 676 63<275 345 275 275 666 736 666 666>
LayerCount: 2
Fore
SplineSet
685 0 m 1
 76 0 l 1
 213 739 l 1
 822 739 l 1
 685 0 l 1
232 63 m 1
 436 301 l 1
 553 63 l 1
 623 63 l 1
 632 115 l 1
 500 370 l 1
 727 624 l 1
 736 676 l 1
 666 676 l 1
 461 439 l 1
 345 676 l 1
 275 676 l 1
 266 624 l 1
 400 370 l 1
 171 115 l 1
 162 63 l 1
 232 63 l 1
EndSplineSet
EndChar

StartChar: exclam
Encoding: 33 33 2
GlifName: exclam
Width: 321
Flags: MW
HStem: 0 128<94 251 118 227> 719 20G<231 364 364 364>
VStem: 94 270
LayerCount: 2
Fore
SplineSet
129 188 m 1
 231 739 l 1
 364 739 l 1
 262 188 l 1
 129 188 l 1
94 0 m 1
 118 128 l 1
 251 128 l 1
 227 0 l 1
 94 0 l 1
EndSplineSet
EndChar

StartChar: quotedbl
Encoding: 34 34 3
GlifName: quotedbl
Width: 337
Flags: MW
HStem: 513 226<201 235 159 277 334 368 201 292>
VStem: 159 251<513 739>
LayerCount: 2
Fore
SplineSet
368 513 m 1
 292 513 l 1
 334 739 l 1
 410 739 l 1
 368 513 l 1
235 513 m 1
 159 513 l 1
 201 739 l 1
 277 739 l 1
 235 513 l 1
EndSplineSet
EndChar

StartChar: numbersign
Encoding: 35 35 4
GlifName: numbersign
Width: 560
Flags: MW
HStem: 0 21G<99 190 99 99 276 366 276 276> 233 100<96 174 77 206 296 351 96 264 473 543> 422 99<157 234 138 267 357 411 157 325 534 604> 719 20G<336 426 426 426 513 603 603 603>
LayerCount: 2
Fore
SplineSet
336 739 m 1
 426 739 l 1
 357 521 l 1
 444 521 l 1
 513 739 l 1
 603 739 l 1
 534 521 l 1
 623 521 l 1
 604 422 l 1
 501 422 l 1
 473 333 l 1
 562 333 l 1
 543 233 l 1
 441 233 l 1
 366 0 l 1
 276 0 l 1
 351 233 l 1
 264 233 l 1
 190 0 l 1
 99 0 l 1
 174 233 l 1
 77 233 l 1
 96 333 l 1
 206 333 l 1
 234 422 l 1
 138 422 l 1
 157 521 l 1
 267 521 l 1
 336 739 l 1
325 422 m 1
 296 333 l 1
 383 333 l 1
 411 422 l 1
 325 422 l 1
EndSplineSet
EndChar

StartChar: dollar
Encoding: 36 36 5
GlifName: dollar
Width: 560
Flags: MW
HStem: -86 249<288.5 334 288.5 334 207 334>
VStem: 103 138<165.5 235.5> 187 137<467.5 535.5> 412 136<262 320> 450 129<551 618.5>
LayerCount: 2
Fore
SplineSet
108 249 m 1xd0
 242 249 l 1
 241 244 241 238 241 233 c 0
 241 189 267 163 310 163 c 0
 358 163 401 198 410 246 c 0
 411 253 412 259 412 265 c 0xd0
 412 286 403 302 384 316 c 0
 368 328 368 328 287 361 c 0
 221 388 187 435 187 500 c 0
 187 513 188 527 191 541 c 0
 209 636 272 705 357 723 c 1
 382 856 l 1
 509 856 l 1
 484 723 l 1
 541 712 579 654 579 583 c 0
 579 573 578 562 576 551 c 1
 450 551 l 1
 449 591 431 613 397 613 c 0
 362 613 333 587 326 549 c 0
 325 544 324 538 324 533 c 0xa8
 324 515 331 499 344 489 c 0
 358 476 373 468 421 449 c 0
 477 428 499 415 517 395 c 0
 537 373 548 340 548 300 c 0
 548 285 547 268 544 251 c 0
 525 148 457 72 359 46 c 1
 334 -86 l 1
 207 -86 l 1
 232 46 l 1
 150 70 103 129 103 202 c 0
 103 213 104 224 106 236 c 2
 108 249 l 1xd0
EndSplineSet
EndChar

StartChar: percent
Encoding: 37 37 6
GlifName: percent
Width: 860
Flags: MW
HStem: -13 107<655.5 693.5 655.5 704> 0 21G<225 327 225 225> 242 106<680 718.5> 391 107<278.5 316.5 278.5 326> 646 106<303 341.5> 719 20G<667 770 770 770>
VStem: 126 110<541 543.5> 385 109<599 603> 503 110<137 139.5> 762 109<195 199>
LayerCount: 2
Fore
SplineSet
667 739 m 1x77c0
 770 739 l 1
 327 0 l 1
 225 0 l 1
 667 739 l 1x77c0
721 348 m 0
 808 348 871 283 871 200 c 0
 871 190 870 179 868 168 c 0
 849 68 754 -13 654 -13 c 0xb3c0
 565 -13 503 50 503 134 c 0
 503 145 504 156 506 167 c 0
 525 269 619 348 721 348 c 0
700 242 m 0
 660 242 622 209 614 168 c 0
 613 163 613 158 613 154 c 0
 613 120 638 94 673 94 c 0
 714 94 753 127 761 168 c 0
 762 173 762 178 762 182 c 0
 762 216 737 242 700 242 c 0
344 752 m 0x3bc0
 431 752 494 687 494 604 c 0
 494 594 493 583 491 572 c 0
 472 472 376 391 276 391 c 0
 187 391 126 454 126 538 c 0
 126 549 127 560 129 571 c 0
 148 673 242 752 344 752 c 0x3bc0
323 646 m 0
 283 646 245 613 237 572 c 0
 236 567 236 562 236 558 c 0
 236 524 261 498 296 498 c 0
 337 498 376 531 384 572 c 0
 385 577 385 582 385 586 c 0
 385 620 360 646 323 646 c 0
EndSplineSet
EndChar

StartChar: ampersand
Encoding: 38 38 7
GlifName: ampersand
Width: 680
Flags: MW
HStem: -13 132<263.5 311.5 263.5 312.5> 627 125<397 430.5>
VStem: 71 134<173 185> 212 129<516.5 555> 466 130<577 648>
LayerCount: 2
Fore
SplineSet
590 433 m 1
 739 433 l 1
 571 214 l 1
 677 73 l 1
 566 -13 l 1
 481 98 l 1
 402 14 352 -13 273 -13 c 0
 153 -13 71 67 71 178 c 0
 71 192 72 208 75 223 c 0
 92 313 144 376 252 433 c 1
 223 473 212 500 212 533 c 0
 212 544 213 556 215 569 c 0
 234 672 330 752 435 752 c 0
 532 752 596 691 596 605 c 0
 596 594 595 582 593 570 c 0
 584 520 559 476 522 442 c 0
 503 424 485 413 443 389 c 1
 496 314 l 1
 590 433 l 1
377 481 m 1
 437 509 458 530 465 566 c 0
 466 571 466 575 466 579 c 0
 466 608 446 627 415 627 c 0
 379 627 348 601 342 566 c 0
 341 561 341 557 341 553 c 0
 341 532 351 512 377 481 c 1
408 198 m 1
 316 322 l 1
 248 293 216 262 207 215 c 0
 206 208 205 202 205 196 c 0
 205 150 238 119 289 119 c 0
 334 119 362 138 408 198 c 1
EndSplineSet
EndChar

StartChar: quotesingle
Encoding: 39 39 8
GlifName: quotesingle
Width: 204
Flags: MW
HStem: 513 226<201 235 159 277>
VStem: 159 118
LayerCount: 2
Fore
SplineSet
235 513 m 1
 159 513 l 1
 201 739 l 1
 277 739 l 1
 235 513 l 1
EndSplineSet
EndChar

StartChar: parenleft
Encoding: 40 40 9
GlifName: parenleft
Width: 357
Flags: MW
HStem: 719 20G<448 448>
VStem: 83 137<184.5 222.5>
LayerCount: 2
Fore
SplineSet
312 8 m 1
 286 -137 l 1
 228 -116 192 -88 153 -32 c 0
 107 35 83 119 83 207 c 0
 83 238 86 269 92 300 c 0
 119 444 204 582 319 669 c 0
 362 701 393 717 448 739 c 1
 421 595 l 1
 317 525 249 421 227 300 c 0
 223 277 220 254 220 231 c 0
 220 138 254 51 312 8 c 1
EndSplineSet
EndChar

StartChar: parenright
Encoding: 41 41 10
GlifName: parenright
Width: 357
Flags: MW
HStem: 719 20G<183 183>
VStem: 248 138<379.5 417.5>
LayerCount: 2
Fore
SplineSet
156 594 m 1
 183 739 l 1
 241 718 277 690 316 634 c 0
 362 567 386 483 386 395 c 0
 386 364 383 333 377 302 c 0
 350 158 265 20 150 -67 c 0
 107 -99 76 -115 21 -137 c 1
 47 7 l 1
 151 77 220 181 242 302 c 0
 246 325 248 348 248 371 c 0
 248 464 214 551 156 594 c 1
EndSplineSet
EndChar

StartChar: asterisk
Encoding: 42 42 11
GlifName: asterisk
Width: 409
Flags: MW
HStem: 554 71<157 170> 718 20G<300 300>
VStem: 157 314<554 626>
LayerCount: 2
Fore
SplineSet
231 706 m 1
 300 738 l 1
 328 652 l 1
 390 739 l 1
 442 703 l 1
 373 620 l 1
 471 626 l 1
 458 554 l 1
 362 559 l 1
 400 479 l 1
 336 441 l 1
 305 529 l 1
 246 441 l 1
 187 472 l 1
 256 561 l 1
 157 554 l 1
 170 625 l 1
 268 620 l 1
 231 706 l 1
EndSplineSet
EndChar

StartChar: plus
Encoding: 43 43 12
GlifName: plus
Width: 600
Flags: MW
HStem: 312 118<128 298 106 320 440 610 128 418>
LayerCount: 2
Fore
SplineSet
320 430 m 1
 356 625 l 1
 476 625 l 1
 440 430 l 1
 632 430 l 1
 610 312 l 1
 418 312 l 1
 382 117 l 1
 262 117 l 1
 298 312 l 1
 106 312 l 1
 128 430 l 1
 320 430 l 1
EndSplineSet
EndChar

StartChar: comma
Encoding: 44 44 13
GlifName: comma
Width: 281
Flags: MW
HStem: -140 67<60 60 60 62.5>
VStem: 48 183
LayerCount: 2
Fore
SplineSet
74 0 m 1
 98 128 l 1
 231 128 l 1
 206 -7 l 2
 195 -65 167 -102 118 -126 c 0
 94 -137 77 -140 48 -140 c 1
 60 -73 l 1
 103 -65 124 -49 130 -18 c 0
 131 -13 132 -7 132 0 c 1
 74 0 l 1
EndSplineSet
EndChar

StartChar: hyphen
Encoding: 45 45 14
GlifName: hyphen
Width: 337
Flags: MW
HStem: 229 118<72 371 94 349>
VStem: 72 299<229 347>
LayerCount: 2
Fore
SplineSet
72 229 m 1
 94 347 l 1
 371 347 l 1
 349 229 l 1
 72 229 l 1
EndSplineSet
EndChar

StartChar: period
Encoding: 46 46 15
GlifName: period
Width: 281
Flags: MW
HStem: 0 128<74 231 98 207>
VStem: 74 157<0 128>
LayerCount: 2
Fore
SplineSet
74 0 m 1
 98 128 l 1
 231 128 l 1
 207 0 l 1
 74 0 l 1
EndSplineSet
EndChar

StartChar: slash
Encoding: 47 47 16
GlifName: slash
Width: 460
Flags: MW
HStem: 719 20G<472 566 566 566>
LayerCount: 2
Fore
SplineSet
-12 -128 m 1
 472 739 l 1
 566 739 l 1
 82 -128 l 1
 -12 -128 l 1
EndSplineSet
EndChar

StartChar: zero
Encoding: 48 48 17
GlifName: zero
Width: 560
Flags: MW
HStem: -13 122<270.5 339.5 270.5 360> 630 122<362 428>
VStem: 71 136<174.5 188.5> 490 136<553 567>
LayerCount: 2
Fore
SplineSet
621 505 m 2
 573 247 l 2
 543 83 436 -13 284 -13 c 0
 194 -13 129 20 94 81 c 0
 78 110 71 141 71 178 c 0
 71 199 73 221 78 247 c 2
 124 498 l 2
 153 654 267 752 419 752 c 0
 549 752 626 679 626 562 c 0
 626 544 625 525 621 505 c 2
257 498 m 2
 212 251 l 2
 209 235 207 220 207 206 c 0
 207 143 239 109 302 109 c 0
 377 109 423 155 440 248 c 2
 486 498 l 2
 489 512 490 525 490 537 c 0
 490 597 458 630 398 630 c 0
 326 630 272 580 257 498 c 2
EndSplineSet
Substitution2: "'pnum' Proportional Numbers in Latin lookup 25 subtable" zero.fitted
Substitution2: "'pnum' Proportional Numbers in Cyrillic lookup 24 subtable" zero.fitted
Substitution2: "'pnum' Proportional Numbers lookup 23 subtable" zero.fitted
Substitution2: "'aalt' Access All Alternates lookup 0 subtable" zero.fitted
EndChar

StartChar: one
Encoding: 49 49 18
GlifName: one
Width: 560
Flags: MW
HStem: 0 21G<238 238 238 371> 614 125<282 352 259 508>
VStem: 238 270
LayerCount: 2
Fore
SplineSet
238 0 m 1
 352 614 l 1
 259 614 l 1
 282 739 l 1
 508 739 l 1
 371 0 l 1
 238 0 l 1
EndSplineSet
Substitution2: "'pnum' Proportional Numbers in Latin lookup 25 subtable" one.fitted
Substitution2: "'pnum' Proportional Numbers in Cyrillic lookup 24 subtable" one.fitted
Substitution2: "'pnum' Proportional Numbers lookup 23 subtable" one.fitted
Substitution2: "'aalt' Access All Alternates lookup 0 subtable" one.fitted
EndChar

StartChar: two
Encoding: 50 50 19
GlifName: two
Width: 560
Flags: MW
HStem: 0 125<251 519> 630 122<378 425.5>
VStem: 126 131<484 484> 487 134<552.5 565.5>
LayerCount: 2
Fore
SplineSet
41 0 m 1
 63 117 l 1
 372 366 l 2
 444 423 475 466 484 514 c 0
 486 523 487 531 487 539 c 0
 487 592 452 630 399 630 c 0
 330 630 273 572 257 484 c 1
 126 484 l 1
 140 558 160 604 198 649 c 0
 253 713 336 752 420 752 c 0
 541 752 621 673 621 560 c 0
 621 545 620 528 617 512 c 0
 600 421 554 360 428 262 c 2
 251 125 l 1
 542 125 l 1
 519 0 l 1
 41 0 l 1
EndSplineSet
Substitution2: "'pnum' Proportional Numbers in Latin lookup 25 subtable" two.fitted
Substitution2: "'pnum' Proportional Numbers in Cyrillic lookup 24 subtable" two.fitted
Substitution2: "'pnum' Proportional Numbers lookup 23 subtable" two.fitted
Substitution2: "'aalt' Access All Alternates lookup 0 subtable" two.fitted
EndChar

StartChar: three
Encoding: 51 51 20
GlifName: three
Width: 560
Flags: MW
HStem: -13 122<265 329.5 265 346.5> 356 128<291 315 291 315> 563 21G<181 316 181 181> 630 122<384 407.5>
VStem: 61 136<182 194.5> 437 137<279 287.5> 444 134<586.5 592>
LayerCount: 2
Fore
SplineSet
291 356 m 1xfc
 315 484 l 1
 353 485 372 488 390 495 c 0
 419 507 437 529 443 560 c 0
 444 565 444 571 444 576 c 0
 444 608 424 630 391 630 c 0
 354 630 331 609 316 563 c 1
 181 563 l 1
 197 625 217 658 256 692 c 0
 300 731 356 752 412 752 c 0
 512 752 578 686 578 593 c 0xfa
 578 580 577 567 574 553 c 0
 563 496 538 457 489 426 c 1
 546 398 574 352 574 287 c 0
 574 271 572 253 569 235 c 0
 542 92 418 -13 275 -13 c 0
 145 -13 61 69 61 189 c 0
 61 200 62 212 64 224 c 1
 198 224 l 2
 198 221 197 217 197 214 c 0
 197 150 234 109 296 109 c 0
 363 109 422 161 435 232 c 0
 437 241 437 249 437 257 c 0
 437 318 392 356 313 356 c 2
 291 356 l 1xfc
EndSplineSet
Substitution2: "'pnum' Proportional Numbers in Latin lookup 25 subtable" three.fitted
Substitution2: "'pnum' Proportional Numbers in Cyrillic lookup 24 subtable" three.fitted
Substitution2: "'pnum' Proportional Numbers lookup 23 subtable" three.fitted
Substitution2: "'aalt' Access All Alternates lookup 0 subtable" three.fitted
EndChar

StartChar: four
Encoding: 52 52 21
GlifName: four
Width: 560
Flags: MW
HStem: 0 21G<329 462 329 329> 111 119<188 350 505 561 188 483> 719 20G<487 599 599 599>
LayerCount: 2
Fore
SplineSet
51 219 m 1
 487 739 l 1
 599 739 l 1
 505 230 l 1
 583 230 l 1
 561 111 l 1
 483 111 l 1
 462 0 l 1
 329 0 l 1
 350 111 l 1
 31 111 l 1
 51 219 l 1
372 230 m 1
 424 515 l 1
 188 230 l 1
 372 230 l 1
EndSplineSet
Substitution2: "'pnum' Proportional Numbers in Latin lookup 25 subtable" four.fitted
Substitution2: "'pnum' Proportional Numbers in Cyrillic lookup 24 subtable" four.fitted
Substitution2: "'pnum' Proportional Numbers lookup 23 subtable" four.fitted
Substitution2: "'aalt' Access All Alternates lookup 0 subtable" four.fitted
EndChar

StartChar: five
Encoding: 53 53 22
GlifName: five
Width: 560
Flags: MW
HStem: -13 122<262 330 262 348> 377 122<370 376> 614 125<338 572 338 338>
VStem: 60 135<130.5 221> 444 136<293 304>
LayerCount: 2
Fore
SplineSet
120 353 m 1
 261 739 l 1
 595 739 l 1
 572 614 l 1
 338 614 l 1
 289 478 l 1
 330 494 353 499 387 499 c 0
 504 499 580 418 580 302 c 0
 580 284 579 266 575 247 c 0
 547 98 420 -13 276 -13 c 0
 149 -13 60 72 60 189 c 0
 60 199 61 210 62 221 c 1
 195 221 l 1
 196 149 230 109 294 109 c 0
 366 109 426 165 441 245 c 0
 443 255 444 265 444 274 c 0
 444 334 406 377 346 377 c 0
 304 377 273 362 232 321 c 1
 120 353 l 1
EndSplineSet
Substitution2: "'pnum' Proportional Numbers in Latin lookup 25 subtable" five.fitted
Substitution2: "'pnum' Proportional Numbers in Cyrillic lookup 24 subtable" five.fitted
Substitution2: "'pnum' Proportional Numbers lookup 23 subtable" five.fitted
Substitution2: "'aalt' Access All Alternates lookup 0 subtable" five.fitted
EndChar

StartChar: six
Encoding: 54 54 23
GlifName: six
Width: 560
Flags: MW
HStem: -13 122<271.5 339 271.5 355> 370 116<311 472.5> 719 20G<427 586 586 586>
VStem: 64 135<180.5 199> 450 138<263.5 360.5>
LayerCount: 2
Fore
SplineSet
427 739 m 1
 586 739 l 1
 360 476 l 1
 384 484 398 486 422 486 c 0
 523 486 588 414 588 307 c 0
 588 290 587 271 583 252 c 0
 554 97 429 -13 281 -13 c 0
 150 -13 64 71 64 191 c 0
 64 207 66 224 69 242 c 0
 82 314 111 369 180 449 c 2
 427 739 l 1
346 370 m 0
 276 370 215 315 201 239 c 0
 199 229 199 220 199 211 c 0
 199 150 239 109 304 109 c 0
 374 109 433 162 447 239 c 0
 449 249 450 259 450 268 c 0
 450 329 411 370 346 370 c 0
EndSplineSet
Substitution2: "'pnum' Proportional Numbers in Latin lookup 25 subtable" six.fitted
Substitution2: "'pnum' Proportional Numbers in Cyrillic lookup 24 subtable" six.fitted
Substitution2: "'pnum' Proportional Numbers lookup 23 subtable" six.fitted
Substitution2: "'aalt' Access All Alternates lookup 0 subtable" six.fitted
EndChar

StartChar: seven
Encoding: 55 55 24
GlifName: seven
Width: 560
Flags: MW
HStem: 0 21G<80 80 80 230> 614 125<202 474 179 637 614 614>
LayerCount: 2
Fore
SplineSet
80 0 m 1
 474 614 l 1
 179 614 l 1
 202 739 l 1
 637 739 l 1
 614 614 l 1
 230 0 l 1
 80 0 l 1
EndSplineSet
Substitution2: "'pnum' Proportional Numbers in Latin lookup 25 subtable" seven.fitted
Substitution2: "'pnum' Proportional Numbers in Cyrillic lookup 24 subtable" seven.fitted
Substitution2: "'pnum' Proportional Numbers lookup 23 subtable" seven.fitted
Substitution2: "'aalt' Access All Alternates lookup 0 subtable" seven.fitted
EndChar

StartChar: eight
Encoding: 56 56 25
GlifName: eight
Width: 560
Flags: MW
HStem: -13 122<273.5 333.5 273.5 349> 341 128<350.5 370> 630 122<377 417>
VStem: 72 135<176 191.5> 177 129<514.5 517> 437 136<270 275> 461 129<584.5 585.5>
LayerCount: 2
Fore
SplineSet
216 411 m 1xf4
 188 448 177 476 177 511 c 0
 177 523 178 535 181 549 c 0
 202 662 308 752 421 752 c 0
 523 752 590 685 590 591 c 0xea
 590 578 589 565 586 551 c 0
 575 489 547 445 498 411 c 1
 525 393 537 383 549 366 c 0
 565 343 573 312 573 277 c 0
 573 263 572 248 569 232 c 0
 543 92 419 -13 279 -13 c 0
 155 -13 72 70 72 184 c 0
 72 199 74 215 77 231 c 0
 86 279 110 327 143 360 c 0
 162 380 178 392 216 411 c 1xf4
398 630 m 0
 356 630 316 594 308 549 c 0
 307 544 306 538 306 533 c 0
 306 496 332 469 369 469 c 0
 411 469 450 505 459 551 c 0
 460 557 461 562 461 567 c 0
 461 604 436 630 398 630 c 0
342 341 m 0
 280 341 221 289 209 225 c 0
 208 217 207 210 207 203 c 0
 207 149 245 109 302 109 c 0
 365 109 423 159 435 226 c 0
 436 234 437 241 437 248 c 0xf4
 437 302 398 341 342 341 c 0
EndSplineSet
Substitution2: "'pnum' Proportional Numbers in Latin lookup 25 subtable" eight.fitted
Substitution2: "'pnum' Proportional Numbers in Cyrillic lookup 24 subtable" eight.fitted
Substitution2: "'pnum' Proportional Numbers lookup 23 subtable" eight.fitted
Substitution2: "'aalt' Access All Alternates lookup 0 subtable" eight.fitted
EndChar

StartChar: nine
Encoding: 57 57 26
GlifName: nine
Width: 560
Flags: MW
HStem: 0 21G<110 269 110 110> 251 118<225 384> 630 122<357 424>
VStem: 110 138<440.5 441.5> 497 135<539 559.5>
LayerCount: 2
Fore
SplineSet
269 0 m 1
 110 0 l 1
 337 263 l 1
 311 254 298 251 275 251 c 0
 175 251 110 326 110 433 c 0
 110 450 112 468 115 487 c 0
 144 642 268 752 415 752 c 0
 546 752 632 667 632 547 c 0
 632 531 630 514 627 496 c 0
 614 425 584 370 516 290 c 2
 269 0 l 1
391 630 m 0
 323 630 265 576 251 500 c 0
 249 490 248 480 248 471 c 0
 248 410 287 369 349 369 c 0
 419 369 481 423 495 500 c 0
 497 510 497 520 497 529 c 0
 497 590 457 630 391 630 c 0
EndSplineSet
Substitution2: "'pnum' Proportional Numbers in Latin lookup 25 subtable" nine.fitted
Substitution2: "'pnum' Proportional Numbers in Cyrillic lookup 24 subtable" nine.fitted
Substitution2: "'pnum' Proportional Numbers lookup 23 subtable" nine.fitted
Substitution2: "'aalt' Access All Alternates lookup 0 subtable" nine.fitted
EndChar

StartChar: colon
Encoding: 58 58 27
GlifName: colon
Width: 281
Flags: MW
HStem: 0 128<74 231 98 207> 369 133<142 300 167 275>
VStem: 74 226
LayerCount: 2
Fore
SplineSet
74 0 m 1
 98 128 l 1
 231 128 l 1
 207 0 l 1
 74 0 l 1
142 369 m 1
 167 502 l 1
 300 502 l 1
 275 369 l 1
 142 369 l 1
EndSplineSet
EndChar

StartChar: semicolon
Encoding: 59 59 28
GlifName: semicolon
Width: 281
Flags: MW
HStem: -140 67<60 60 60 66.5> 369 133<142 300 167 275>
VStem: 48 252
LayerCount: 2
Fore
SplineSet
74 0 m 1
 98 128 l 1
 231 128 l 1
 206 -7 l 2
 197 -56 180 -84 144 -110 c 0
 116 -131 85 -140 48 -140 c 1
 60 -73 l 1
 104 -65 124 -49 130 -15 c 2
 133 0 l 1
 74 0 l 1
142 369 m 1
 167 502 l 1
 300 502 l 1
 275 369 l 1
 142 369 l 1
EndSplineSet
EndChar

StartChar: less
Encoding: 60 60 29
GlifName: less
Width: 600
Flags: MW
HStem: 33 549<559 661>
VStem: 92 569<258 582>
LayerCount: 2
Fore
SplineSet
661 582 m 1
 639 465 l 1
 269 308 l 1
 581 149 l 1
 559 33 l 1
 92 258 l 1
 110 356 l 1
 661 582 l 1
EndSplineSet
EndChar

StartChar: equal
Encoding: 61 61 30
GlifName: equal
Width: 600
Flags: MW
HStem: 210 118<109 591 87 613> 405 118<145 627 123 649>
LayerCount: 2
Fore
SplineSet
649 523 m 1
 627 405 l 1
 123 405 l 1
 145 523 l 1
 649 523 l 1
613 328 m 1
 591 210 l 1
 87 210 l 1
 109 328 l 1
 613 328 l 1
EndSplineSet
EndChar

StartChar: greater
Encoding: 62 62 31
GlifName: greater
Width: 600
Flags: MW
HStem: 33 549<53 155>
VStem: 53 569<33 356>
LayerCount: 2
Fore
SplineSet
53 33 m 1
 75 149 l 1
 446 306 l 1
 133 465 l 1
 155 582 l 1
 622 356 l 1
 604 258 l 1
 53 33 l 1
EndSplineSet
EndChar

StartChar: question
Encoding: 63 63 32
GlifName: question
Width: 519
Flags: MW
HStem: 0 128<184 341 208 317> 620 132<363 395>
VStem: 450 135<562.5 568>
LayerCount: 2
Fore
SplineSet
352 187 m 1
 219 187 l 1
 242 311 273 360 388 442 c 0
 421 466 443 496 449 527 c 0
 450 534 450 540 450 546 c 0
 450 590 419 620 371 620 c 0
 317 620 282 588 260 520 c 1
 127 520 l 1
 145 588 168 631 206 669 c 0
 259 722 328 752 398 752 c 0
 511 752 585 677 585 570 c 0
 585 555 584 539 581 523 c 0
 569 456 537 413 446 344 c 0
 382 297 368 274 352 187 c 1
184 0 m 1
 208 128 l 1
 341 128 l 1
 317 0 l 1
 184 0 l 1
EndSplineSet
EndChar

StartChar: at
Encoding: 64 64 33
GlifName: at
Width: 814
Flags: MW
HStem: -13 73<403 472.5> 154 83<642 659> 154 106<341 466 416.5 659> 465 112<469.5 517.5> 694 72<461 625>
VStem: 99 72<279.5 313.5> 249 124<250.5 332> 787 74<475.5 507 475.5 540.5>
LayerCount: 2
Fore
SplineSet
719 573 m 1xbf
 632 278 l 2
 630 274 629 269 628 265 c 0
 627 261 627 258 627 255 c 0
 627 242 634 237 650 237 c 0
 703 237 764 318 782 413 c 0
 786 434 787 454 787 474 c 0
 787 607 698 694 552 694 c 0
 370 694 211 558 177 375 c 0
 173 355 171 335 171 315 c 0
 171 244 195 179 239 134 c 0
 284 87 361 60 445 60 c 0
 504 60 552 74 603 107 c 1
 638 47 l 1
 575 4 515 -13 430 -13 c 0
 300 -13 203 34 146 126 c 0
 115 176 99 236 99 301 c 0
 99 326 101 351 106 377 c 0
 147 598 344 766 562 766 c 0
 705 766 814 695 849 581 c 0
 857 555 861 524 861 490 c 0
 861 461 858 429 852 397 c 0
 825 253 722 154 596 154 c 0xdf
 543 154 513 172 507 208 c 1
 475 171 438 154 384 154 c 0
 298 154 249 207 249 294 c 0
 249 310 251 326 254 344 c 0
 279 477 383 577 499 577 c 0
 553 577 581 562 606 519 c 1
 623 573 l 1
 719 573 l 1xbf
497 465 m 0
 442 465 387 415 376 355 c 0
 374 345 373 336 373 328 c 0
 373 285 396 260 437 260 c 0xbf
 495 260 545 307 557 374 c 0
 559 384 560 393 560 401 c 0
 560 442 538 465 497 465 c 0
EndSplineSet
EndChar

StartChar: A
Encoding: 65 65 34
GlifName: A_
Width: 740
Flags: MW
HStem: 0 21G<7 7 7 158 582 582 582 733> 191 131<350 508 350 538 275 508> 719 20G<452 560 560 560>
LayerCount: 2
Fore
SplineSet
7 0 m 1
 452 739 l 1
 560 739 l 1
 733 0 l 1
 582 0 l 1
 538 191 l 1
 275 191 l 1
 158 0 l 1
 7 0 l 1
350 322 m 1
 508 322 l 1
 470 546 l 1
 350 322 l 1
EndSplineSet
EndChar

StartChar: B
Encoding: 66 66 35
GlifName: B_
Width: 587
Flags: MW
HStem: 0 131<232 268> 320 134<292 332 267 336> 605 134<320 360 360 376 320 320>
VStem: 457 139<258.5 270> 470 141<544.5 607>
LayerCount: 2
Fore
SplineSet
71 0 m 1xf0
 208 739 l 1
 360 739 l 2
 473 739 518 730 557 700 c 0
 593 673 611 632 611 582 c 0xe8
 611 569 610 556 607 542 c 0
 594 472 565 434 500 403 c 1
 545 383 564 368 580 339 c 0
 591 319 596 294 596 266 c 0
 596 251 595 236 592 220 c 0
 578 142 528 75 457 38 c 0
 407 12 347 0 268 0 c 2
 71 0 l 1xf0
232 131 m 1
 300 131 l 2
 396 131 443 159 455 224 c 0
 456 232 457 238 457 245 c 0xf0
 457 295 416 320 332 320 c 2
 267 320 l 1
 232 131 l 1
292 454 m 1
 336 454 l 2
 419 454 458 477 468 530 c 0
 469 536 470 542 470 547 c 0xe8
 470 586 439 605 376 605 c 2
 320 605 l 1
 292 454 l 1
EndSplineSet
EndChar

StartChar: C
Encoding: 67 67 36
GlifName: C_
Width: 802
Flags: MW
HStem: -13 132<383.5 479.5 383.5 499> 620 132<496 577>
VStem: 98 140<267 312.5>
LayerCount: 2
Fore
SplineSet
643 206 m 1
 804 206 l 1
 721 71 575 -13 423 -13 c 0
 231 -13 98 121 98 301 c 0
 98 324 101 348 105 372 c 0
 144 581 346 752 555 752 c 0
 648 752 732 720 790 662 c 0
 830 622 847 589 864 527 c 1
 711 527 l 1
 673 592 620 620 534 620 c 0
 458 620 390 592 335 539 c 0
 289 495 254 431 243 371 c 0
 240 355 238 340 238 325 c 0
 238 209 323 119 444 119 c 0
 515 119 570 143 643 206 c 1
EndSplineSet
EndChar

StartChar: D
Encoding: 68 68 37
GlifName: D_
Width: 699
Flags: MW
HStem: 0 131<232 243> 608 131<321 348 321 321>
VStem: 598 141<439.5 458>
LayerCount: 2
Fore
SplineSet
71 0 m 1
 208 739 l 1
 377 739 l 2
 498 739 583 720 636 681 c 0
 704 632 739 551 739 453 c 0
 739 426 736 398 731 368 c 0
 703 215 610 93 483 38 c 0
 419 11 352 0 243 0 c 2
 71 0 l 1
232 131 m 1
 262 131 l 2
 344 131 403 142 448 164 c 0
 521 200 577 279 593 368 c 0
 596 387 598 405 598 422 c 0
 598 494 569 552 515 581 c 0
 477 601 433 608 348 608 c 2
 321 608 l 1
 232 131 l 1
EndSplineSet
EndChar

StartChar: E
Encoding: 69 69 38
GlifName: E_
Width: 524
Flags: MW
HStem: 0 131<232 468> 303 131<288 513 264 537> 608 131<321 581 321 321>
LayerCount: 2
Fore
SplineSet
71 0 m 1
 208 739 l 1
 605 739 l 1
 581 608 l 1
 321 608 l 1
 288 434 l 1
 537 434 l 1
 513 303 l 1
 264 303 l 1
 232 131 l 1
 492 131 l 1
 468 0 l 1
 71 0 l 1
EndSplineSet
EndChar

StartChar: F
Encoding: 70 70 39
GlifName: F_
Width: 495
Flags: MW
HStem: 0 21G<71 71 71 208> 303 131<288 492 264 516> 608 131<321 560 321 321>
LayerCount: 2
Fore
SplineSet
71 0 m 1
 208 739 l 1
 584 739 l 1
 560 608 l 1
 321 608 l 1
 288 434 l 1
 516 434 l 1
 492 303 l 1
 264 303 l 1
 208 0 l 1
 71 0 l 1
EndSplineSet
EndChar

StartChar: G
Encoding: 71 71 40
GlifName: G_
Width: 857
Flags: MW
HStem: -13 132<388 492> 249 128<387 894 411 693> 620 132<501.5 580>
VStem: 98 140<262 311.5>
LayerCount: 2
Fore
SplineSet
387 249 m 1
 411 377 l 1
 894 377 l 1
 891 359 l 2
 873 264 818 172 737 101 c 0
 650 26 548 -13 436 -13 c 0
 235 -13 98 119 98 300 c 0
 98 323 100 347 105 371 c 0
 144 584 347 752 564 752 c 0
 725 752 860 656 883 522 c 1
 722 522 l 1
 688 586 623 620 537 620 c 0
 466 620 397 594 345 548 c 0
 295 503 254 433 242 369 c 0
 239 353 238 336 238 321 c 0
 238 203 324 119 452 119 c 0
 550 119 638 167 693 249 c 1
 387 249 l 1
EndSplineSet
EndChar

StartChar: H
Encoding: 72 72 41
GlifName: H_
Width: 680
Flags: MW
HStem: 0 21G<71 71 71 208 472 472 472 609> 310 131<290 529 265 554> 719 20G<208 345 345 345 609 746 746 746>
LayerCount: 2
Fore
SplineSet
71 0 m 1
 208 739 l 1
 345 739 l 1
 290 441 l 1
 554 441 l 1
 609 739 l 1
 746 739 l 1
 609 0 l 1
 472 0 l 1
 529 310 l 1
 265 310 l 1
 208 0 l 1
 71 0 l 1
EndSplineSet
EndChar

StartChar: I
Encoding: 73 73 42
GlifName: I_
Width: 279
Flags: MW
HStem: 0 21G<71 71 71 208> 719 20G<208 345 345 345>
VStem: 71 274
LayerCount: 2
Fore
SplineSet
71 0 m 1
 208 739 l 1
 345 739 l 1
 208 0 l 1
 71 0 l 1
EndSplineSet
EndChar

StartChar: J
Encoding: 74 74 43
GlifName: J_
Width: 494
Flags: MW
HStem: -13 132<225 264 225 283> 719 20G<423 560 560 560>
LayerCount: 2
Fore
SplineSet
423 739 m 1
 560 739 l 1
 462 212 l 2
 436 73 345 -13 221 -13 c 0
 157 -13 103 13 73 57 c 0
 56 81 48 104 48 139 c 0
 48 150 49 162 50 175 c 1
 187 175 l 1
 189 138 208 119 242 119 c 0
 286 119 314 151 326 216 c 2
 423 739 l 1
EndSplineSet
EndChar

StartChar: K
Encoding: 75 75 44
GlifName: K_
Width: 614
Flags: MW
HStem: 0 21G<71 71 71 208 437 437 437 602> 719 20G<208 345 345 345 574 739 739 739>
LayerCount: 2
Fore
SplineSet
71 0 m 1
 208 739 l 1
 345 739 l 1
 286 420 l 1
 574 739 l 1
 739 739 l 1
 394 376 l 1
 602 0 l 1
 437 0 l 1
 268 325 l 1
 208 0 l 1
 71 0 l 1
EndSplineSet
EndChar

StartChar: L
Encoding: 76 76 45
GlifName: L_
Width: 454
Flags: MW
HStem: 0 131<232 434> 719 20G<208 345 345 345>
LayerCount: 2
Fore
SplineSet
71 0 m 1
 208 739 l 1
 345 739 l 1
 232 131 l 1
 458 131 l 1
 434 0 l 1
 71 0 l 1
EndSplineSet
EndChar

StartChar: M
Encoding: 77 77 46
GlifName: M_
Width: 914
Flags: MW
HStem: 0 21G<71 71 71 208 401 401 401 513 706 706 706 843> 719 20G<208 396 396 396 792 980 980 980>
LayerCount: 2
Fore
SplineSet
71 0 m 1
 208 739 l 1
 396 739 l 1
 491 179 l 1
 792 739 l 1
 980 739 l 1
 843 0 l 1
 706 0 l 1
 809 554 l 1
 513 0 l 1
 401 0 l 1
 311 554 l 1
 208 0 l 1
 71 0 l 1
EndSplineSet
EndChar

StartChar: N
Encoding: 78 78 47
GlifName: N_
Width: 741
Flags: MW
HStem: 0 21G<71 71 71 208 517 517 517 670> 719 20G<208 364 364 364 670 807 807 807>
LayerCount: 2
Fore
SplineSet
71 0 m 1
 208 739 l 1
 364 739 l 1
 570 201 l 1
 670 739 l 1
 807 739 l 1
 670 0 l 1
 517 0 l 1
 308 537 l 1
 208 0 l 1
 71 0 l 1
EndSplineSet
EndChar

StartChar: O
Encoding: 79 79 48
GlifName: O_
Width: 842
Flags: MW
HStem: -13 132<384 516 384 530.5> 620 132<465.5 596>
VStem: 98 140<263.5 309.5> 741 140<429.5 478>
LayerCount: 2
Fore
SplineSet
566 752 m 0
 752 752 881 618 881 441 c 0
 881 418 879 394 875 370 c 0
 835 154 638 -13 423 -13 c 0
 231 -13 98 119 98 298 c 0
 98 321 99 345 104 369 c 0
 144 585 345 752 566 752 c 0
533 620 m 0
 398 620 269 509 243 370 c 0
 240 354 238 337 238 322 c 0
 238 205 322 119 446 119 c 0
 586 119 709 225 736 368 c 0
 739 386 741 403 741 419 c 0
 741 537 659 620 533 620 c 0
EndSplineSet
EndChar

StartChar: P
Encoding: 80 80 49
GlifName: P_
Width: 573
Flags: MW
HStem: 0 21G<71 71 71 208> 281 131<284 304 260 324> 608 131<321 367 321 321>
VStem: 501 142<527.5 592>
LayerCount: 2
Fore
SplineSet
71 0 m 1
 208 739 l 1
 391 739 l 2
 492 739 540 729 579 701 c 0
 621 670 643 622 643 562 c 0
 643 546 641 529 638 511 c 0
 622 423 569 347 498 311 c 0
 454 289 405 281 304 281 c 2
 260 281 l 1
 208 0 l 1
 71 0 l 1
284 412 m 1
 324 412 l 2
 364 412 397 415 420 422 c 0
 461 433 491 466 499 508 c 0
 500 516 501 524 501 531 c 0
 501 566 484 592 452 601 c 0
 432 606 412 608 367 608 c 2
 321 608 l 1
 284 412 l 1
EndSplineSet
EndChar

StartChar: Q
Encoding: 81 81 50
GlifName: Q_
Width: 864
Flags: MW
HStem: -15 122<780.5 830.5> -13 132<411.5 472> 235 112<330.5 372.5> 620 132<470 607>
VStem: 755 141<429.5 476>
LayerCount: 2
Fore
SplineSet
854 110 m 1xb8
 831 -14 l 1
 823 -15 816 -15 812 -15 c 0xb8
 749 -15 704 2 649 45 c 1
 589 9 509 -13 435 -13 c 0x78
 236 -13 98 121 98 301 c 0
 98 323 101 346 105 370 c 0
 145 585 347 752 568 752 c 0
 766 752 896 624 896 442 c 0
 896 417 894 392 889 366 c 0
 871 268 828 192 756 129 c 1
 784 113 802 107 826 107 c 0
 835 107 841 108 854 110 c 1xb8
551 138 m 1
 478 207 413 235 332 235 c 0
 307 235 291 233 259 227 c 1
 302 153 365 119 458 119 c 0x78
 496 119 517 123 551 138 c 1
661 204 m 1
 709 245 738 297 750 364 c 0
 753 382 755 399 755 416 c 0
 755 536 671 620 543 620 c 0
 397 620 268 512 241 368 c 0
 239 359 238 351 237 334 c 1
 274 343 308 347 353 347 c 0
 471 347 587 293 661 204 c 1
EndSplineSet
EndChar

StartChar: R
Encoding: 82 82 51
GlifName: R_
Width: 604
Flags: MW
HStem: 0 21G<71 71 71 208 402 402 402 571> 608 131<321 382 321 321>
VStem: 521 141<519 580>
LayerCount: 2
Fore
SplineSet
71 0 m 1
 208 739 l 1
 421 739 l 2
 525 739 576 724 617 680 c 0
 647 648 662 605 662 555 c 0
 662 538 660 521 657 502 c 0
 643 427 605 367 544 324 c 0
 508 299 480 287 422 273 c 1
 571 0 l 1
 402 0 l 1
 260 283 l 1
 208 0 l 1
 71 0 l 1
280 386 m 1
 347 386 l 2
 453 386 504 420 518 498 c 0
 520 507 521 515 521 523 c 0
 521 548 512 570 496 584 c 0
 477 601 444 608 382 608 c 2
 321 608 l 1
 280 386 l 1
EndSplineSet
EndChar

StartChar: S
Encoding: 83 83 52
GlifName: S_
Width: 524
Flags: MW
HStem: -13 132<256 313.5 256 326.5> 620 132<352.5 396>
VStem: 56 144<170 178> 143 141<465.5 534> 403 141<226.5 288.5> 439 144<554 599.5>
LayerCount: 2
Fore
SplineSet
58 211 m 1xe8
 201 211 l 1
 201 206 200 201 200 196 c 0xe8
 200 144 228 119 284 119 c 0
 343 119 391 156 401 209 c 0
 402 216 403 223 403 230 c 0xd8
 403 253 395 271 378 286 c 0
 359 302 354 305 263 341 c 0
 184 372 143 429 143 502 c 0
 143 515 143 528 146 542 c 0
 168 659 280 752 400 752 c 0
 471 752 532 721 562 668 c 0
 577 642 583 616 583 583 c 0
 583 570 582 557 580 542 c 1
 438 542 l 1
 438 547 439 552 439 556 c 0
 439 597 417 620 375 620 c 0
 330 620 293 589 285 545 c 0
 284 540 284 536 284 532 c 0xd4
 284 510 294 491 315 477 c 0
 323 471 326 470 389 445 c 0
 457 417 478 405 502 378 c 0
 530 348 544 310 544 267 c 0
 544 253 543 239 540 224 c 0
 515 90 393 -13 260 -13 c 0
 179 -13 111 22 79 81 c 0
 63 110 56 137 56 172 c 0
 56 184 56 197 58 211 c 1xe8
EndSplineSet
EndChar

StartChar: T
Encoding: 84 84 53
GlifName: T_
Width: 425
Flags: MW
HStem: 0 21G<144 144 144 281> 608 131<144 257 120 555 394 394 394 531>
LayerCount: 2
Fore
SplineSet
144 0 m 1
 257 608 l 1
 120 608 l 1
 144 739 l 1
 555 739 l 1
 531 608 l 1
 394 608 l 1
 281 0 l 1
 144 0 l 1
EndSplineSet
EndChar

StartChar: U
Encoding: 85 85 54
GlifName: U_
Width: 641
Flags: MW
HStem: -13 132<322 357> 719 20G<208 345 345 345 570 707 707 707>
VStem: 112 138<168 215>
LayerCount: 2
Fore
SplineSet
208 739 m 1
 345 739 l 1
 258 271 l 2
 253 243 250 223 250 207 c 0
 250 192 252 181 257 169 c 0
 270 138 302 119 342 119 c 0
 383 119 421 138 446 169 c 0
 464 193 473 216 483 271 c 2
 570 739 l 1
 707 739 l 1
 620 271 l 2
 604 182 577 126 531 78 c 0
 475 21 396 -13 318 -13 c 0
 229 -13 156 31 127 102 c 0
 117 127 112 152 112 184 c 0
 112 209 115 238 121 271 c 2
 208 739 l 1
EndSplineSet
EndChar

StartChar: V
Encoding: 86 86 55
GlifName: V_
Width: 694
Flags: MW
HStem: 0 21G<292 292 292 404> 719 20G<141 285 285 285 683 827 827 827>
LayerCount: 2
Fore
SplineSet
292 0 m 1
 141 739 l 1
 285 739 l 1
 380 177 l 1
 683 739 l 1
 827 739 l 1
 404 0 l 1
 292 0 l 1
EndSplineSet
EndChar

StartChar: W
Encoding: 87 87 56
GlifName: W_
Width: 915
Flags: MW
HStem: 0 21G<229 229 229 337 578 578 578 687> 719 20G<149 289 289 289 545 645 645 645 900 1040 1040 1040>
VStem: 149 140<739 739>
LayerCount: 2
Fore
SplineSet
229 0 m 1
 149 739 l 1
 289 739 l 1
 323 223 l 1
 545 739 l 1
 645 739 l 1
 673 223 l 1
 900 739 l 1
 1040 739 l 1
 687 0 l 1
 578 0 l 1
 550 489 l 1
 337 0 l 1
 229 0 l 1
EndSplineSet
EndChar

StartChar: X
Encoding: 88 88 57
GlifName: X_
Width: 685
Flags: MW
HStem: 0 21G<7 7 7 170 519 519 519 678> 719 20G<144 307 307 307 656 815 815 815>
LayerCount: 2
Fore
SplineSet
7 0 m 1
 329 368 l 1
 144 739 l 1
 307 739 l 1
 431 481 l 1
 656 739 l 1
 815 739 l 1
 490 368 l 1
 678 0 l 1
 519 0 l 1
 389 255 l 1
 170 0 l 1
 7 0 l 1
EndSplineSet
EndChar

StartChar: Y
Encoding: 89 89 58
GlifName: Y_
Width: 637
Flags: MW
HStem: 0 21G<250 250 250 387> 719 20G<144 292 292 292 619 767 767 767>
LayerCount: 2
Fore
SplineSet
250 0 m 1
 301 273 l 1
 144 739 l 1
 292 739 l 1
 393 399 l 1
 619 739 l 1
 767 739 l 1
 438 273 l 1
 387 0 l 1
 250 0 l 1
EndSplineSet
EndChar

StartChar: Z
Encoding: 90 90 59
GlifName: Z_
Width: 522
Flags: MW
HStem: 0 131<219 492> 608 131<182 423 158 610>
LayerCount: 2
Fore
SplineSet
51 116 m 1
 423 608 l 1
 158 608 l 1
 182 739 l 1
 610 739 l 1
 587 616 l 1
 219 131 l 1
 516 131 l 1
 492 0 l 1
 30 0 l 1
 51 116 l 1
EndSplineSet
EndChar

StartChar: bracketleft
Encoding: 91 91 60
GlifName: bracketleft
Width: 313
Flags: MW
HStem: 719 20G<413 413>
VStem: 82 136<65 119>
LayerCount: 2
Fore
SplineSet
413 739 m 1
 386 592 l 1
 347 577 328 563 313 539 c 0
 295 510 280 469 271 419 c 2
 223 164 l 2
 219 145 218 127 218 111 c 0
 218 93 220 76 224 62 c 0
 231 37 246 24 278 10 c 1
 251 -137 l 1
 173 -119 128 -83 100 -17 c 0
 88 12 82 45 82 85 c 0
 82 115 86 149 93 187 c 2
 141 446 l 2
 159 541 197 612 262 666 c 0
 304 702 339 719 413 739 c 1
EndSplineSet
EndChar

StartChar: backslash
Encoding: 92 92 61
GlifName: backslash
Width: 481
Flags: MW
HStem: 0 21G<356 450 356 356> 719 20G<168 262 262 262>
VStem: 168 282
LayerCount: 2
Fore
SplineSet
450 0 m 1
 356 0 l 1
 168 739 l 1
 262 739 l 1
 450 0 l 1
EndSplineSet
EndChar

StartChar: bracketright
Encoding: 93 93 62
GlifName: bracketright
Width: 313
Flags: MW
HStem: 719 20G<174 174>
VStem: 206 136<483 537>
LayerCount: 2
Fore
SplineSet
12 -137 m 1
 39 10 l 1
 78 25 97 39 112 63 c 0
 130 92 145 133 154 183 c 2
 201 438 l 2
 205 457 206 475 206 491 c 0
 206 509 204 526 200 540 c 0
 193 565 179 578 147 592 c 1
 174 739 l 1
 252 721 297 685 325 619 c 0
 337 590 342 557 342 517 c 0
 342 487 339 453 332 415 c 2
 284 156 l 2
 266 61 227 -10 163 -64 c 0
 122 -99 86 -117 12 -137 c 1
EndSplineSet
EndChar

StartChar: asciicircum
Encoding: 94 94 63
GlifName: asciicircum
Width: 600
Flags: MW
HStem: 719 20G<376 498 498 498>
LayerCount: 2
Fore
SplineSet
222 313 m 1
 127 363 l 1
 376 739 l 1
 498 739 l 1
 607 363 l 1
 494 313 l 1
 409 589 l 1
 222 313 l 1
EndSplineSet
EndChar

StartChar: underscore
Encoding: 95 95 64
GlifName: underscore
Width: 500
Flags: MW
HStem: -138 90<-9 474 -26 491>
LayerCount: 2
Fore
SplineSet
-9 -48 m 1
 491 -48 l 1
 474 -138 l 1
 -26 -138 l 1
 -9 -48 l 1
EndSplineSet
EndChar

StartChar: grave
Encoding: 96 96 65
GlifName: grave
Width: 407
Flags: MW
HStem: 613 212<274 404>
VStem: 201 271<692 737>
LayerCount: 2
Fore
SplineSet
201 737 m 1
 274 825 l 1
 472 692 l 1
 404 613 l 1
 201 737 l 1
EndSplineSet
EndChar

StartChar: a
Encoding: 97 97 66
GlifName: a
Width: 667
Flags: MW
HStem: -13 122<303.5 344> 0 21G<491 613 491 491> 445 122<357.5 446> 534 20G<594 716 716 716>
VStem: 73 136<198.5 224>
LayerCount: 2
Fore
SplineSet
716 554 m 1x18
 613 0 l 1
 491 0 l 1x58
 504 72 l 1
 440 11 383 -13 305 -13 c 0
 164 -13 73 79 73 214 c 0
 73 234 75 254 79 275 c 0
 110 444 251 567 415 567 c 0xa8
 495 567 545 541 580 480 c 1
 594 554 l 1
 716 554 l 1x18
404 445 m 0xa8
 311 445 231 372 212 272 c 0
 210 260 209 248 209 237 c 0
 209 160 261 109 346 109 c 0
 442 109 520 176 538 275 c 0
 540 288 542 300 542 312 c 0
 542 392 488 445 404 445 c 0xa8
EndSplineSet
EndChar

StartChar: b
Encoding: 98 98 67
GlifName: b
Width: 666
Flags: MW
HStem: -13 122<325 409> 0 21G<54 54 54 176> 452 122<428.5 464.5> 719 20G<191 324 324 324>
VStem: 559 137<333 358.5>
LayerCount: 2
Fore
SplineSet
54 0 m 1x78
 191 739 l 1
 324 739 l 1
 280 503 l 1
 341 554 392 574 465 574 c 0
 605 574 696 479 696 343 c 0
 696 323 694 302 690 281 c 0
 676 207 641 138 589 84 c 0
 526 19 452 -13 366 -13 c 0xb8
 284 -13 235 10 189 71 c 1
 176 0 l 1
 54 0 l 1x78
422 452 m 0
 329 452 250 380 231 279 c 0
 229 266 227 254 227 242 c 0
 227 163 279 109 363 109 c 0
 458 109 537 178 556 279 c 0
 558 292 559 306 559 318 c 0
 559 399 507 452 422 452 c 0
EndSplineSet
EndChar

StartChar: c
Encoding: 99 99 68
GlifName: c
Width: 625
Flags: MW
HStem: -13 122<303 370.5 303 387> 445 122<355.5 432>
VStem: 74 136<203.5 232.5>
LayerCount: 2
Fore
SplineSet
483 182 m 1
 633 182 l 1
 564 58 452 -13 322 -13 c 0
 176 -13 74 88 74 224 c 0
 74 241 76 259 79 277 c 0
 109 440 261 567 425 567 c 0
 504 567 574 538 618 485 c 0
 647 451 658 423 667 369 c 1
 517 369 l 1
 500 421 462 445 402 445 c 0
 309 445 232 376 214 278 c 0
 212 266 210 254 210 243 c 0
 210 164 263 109 343 109 c 0
 398 109 441 131 483 182 c 1
EndSplineSet
EndChar

StartChar: d
Encoding: 100 100 69
GlifName: d
Width: 665
Flags: MW
HStem: -13 122<306.5 341.5> 0 21G<489 611 489 489> 452 122<361 446 333.5 448> 719 20G<615 748 748 748>
VStem: 74 137<208 228.5>
LayerCount: 2
Fore
SplineSet
748 739 m 1xb8
 611 0 l 1
 489 0 l 1x78
 502 72 l 1
 437 12 379 -13 304 -13 c 0
 166 -13 74 84 74 219 c 0
 74 238 76 258 80 278 c 0
 111 444 256 574 411 574 c 0
 481 574 541 548 572 505 c 1
 615 739 l 1
 748 739 l 1xb8
406 452 m 0
 316 452 232 378 214 282 c 0
 212 270 211 259 211 248 c 0
 211 168 266 109 347 109 c 0xb8
 437 109 522 184 540 279 c 0
 542 292 543 304 543 316 c 0
 543 397 490 452 406 452 c 0
EndSplineSet
EndChar

StartChar: e
Encoding: 101 101 70
GlifName: e
Width: 634
Flags: MW
HStem: -13 122<305.5 371.5> 218 117<230 537 230 641 212 537> 445 122<364.5 445>
LayerCount: 2
Fore
SplineSet
641 218 m 1
 212 218 l 1
 216 151 266 109 345 109 c 0
 400 109 436 124 477 164 c 1
 622 164 l 1
 608 136 590 113 564 87 c 0
 493 19 417 -13 326 -13 c 0
 176 -13 74 86 74 222 c 0
 74 239 76 257 79 275 c 0
 109 438 262 567 425 567 c 0
 569 567 662 471 662 332 c 0
 662 312 660 291 656 269 c 0
 652 249 649 237 641 218 c 1
230 335 m 1
 537 335 l 1
 533 406 486 445 404 445 c 0
 325 445 264 407 230 335 c 1
EndSplineSet
EndChar

StartChar: f
Encoding: 102 102 71
GlifName: f
Width: 294
Flags: MW
HStem: 0 21G<68 68 68 201> 433 111<121 148 100 169 302 356> 611 128<360 383 383 392.5 360 397>
LayerCount: 2
Fore
SplineSet
68 0 m 1
 148 433 l 1
 100 433 l 1
 121 544 l 1
 169 544 l 1
 189 616 206 648 241 680 c 0
 282 719 332 739 388 739 c 0
 397 739 405 739 421 737 c 1
 397 611 l 1
 383 611 l 2
 332 611 312 594 302 544 c 1
 377 544 l 1
 356 433 l 1
 281 433 l 1
 201 0 l 1
 68 0 l 1
EndSplineSet
EndChar

StartChar: g
Encoding: 103 103 72
GlifName: g
Width: 663
Flags: MW
HStem: -221 117<277 329.5> -13 122<297 337> 445 122<350.5 438> 534 20G<585 712 712 712>
VStem: 74 135<195.5 226.5>
LayerCount: 2
Fore
SplineSet
585 554 m 1xd8
 712 554 l 1xd8
 628 105 l 2
 608 -5 578 -73 525 -125 c 0
 461 -188 378 -221 281 -221 c 0
 145 -221 53 -156 29 -45 c 1
 180 -45 l 1
 211 -88 246 -104 308 -104 c 0
 407 -104 469 -46 496 73 c 1
 433 12 376 -13 298 -13 c 0
 161 -13 74 80 74 216 c 0
 74 237 76 258 80 281 c 0
 110 445 249 567 406 567 c 0xe8
 486 567 540 540 572 484 c 1
 585 554 l 1xd8
396 445 m 0xe8
 305 445 232 377 213 275 c 0
 210 261 209 247 209 234 c 0
 209 157 256 109 338 109 c 0
 434 109 508 175 527 277 c 0
 529 290 531 303 531 315 c 0
 531 394 480 445 396 445 c 0xe8
EndSplineSet
EndChar

StartChar: h
Encoding: 104 104 73
GlifName: h
Width: 597
Flags: MW
HStem: 0 21G<54 54 54 187 412 412 412 545> 445 123<404 415.5> 719 20G<191 324 324 324>
VStem: 472 141<346 417.5>
LayerCount: 2
Fore
SplineSet
54 0 m 1
 191 739 l 1
 324 739 l 1
 283 516 l 1
 330 552 375 568 433 568 c 0
 514 568 574 535 599 476 c 0
 608 454 613 432 613 403 c 0
 613 378 610 349 603 313 c 2
 545 0 l 1
 412 0 l 1
 464 283 l 2
 469 311 472 336 472 356 c 0
 472 420 445 445 386 445 c 0
 340 445 303 426 277 389 c 0
 260 365 249 334 239 281 c 2
 187 0 l 1
 54 0 l 1
EndSplineSet
EndChar

StartChar: i
Encoding: 105 105 74
GlifName: i
Width: 241
Flags: MW
HStem: 0 21G<54 54 54 187> 534 20G<157 290 290 290> 614 125<168 324 191 301>
VStem: 54 270
LayerCount: 2
Fore
SplineSet
54 0 m 1
 157 554 l 1
 290 554 l 1
 187 0 l 1
 54 0 l 1
168 614 m 1
 191 739 l 1
 324 739 l 1
 301 614 l 1
 168 614 l 1
EndSplineSet
Substitution2: "Single Substitution lookup 26 subtable" i.dotless
Substitution2: "'aalt' Access All Alternates lookup 0 subtable" i.dotless
EndChar

StartChar: j
Encoding: 106 106 75
GlifName: j
Width: 255
Flags: MW
HStem: -185 21G<-21 4.5> 534 20G<171 304 304 304> 614 125<182 338 205 315>
LayerCount: 2
Fore
SplineSet
171 554 m 1
 304 554 l 1
 208 37 l 2
 193 -46 165 -99 117 -137 c 0
 78 -168 30 -185 -21 -185 c 1
 3 -56 l 1
 55 -47 61 -38 75 40 c 2
 171 554 l 1
182 614 m 1
 205 739 l 1
 338 739 l 1
 315 614 l 1
 182 614 l 1
EndSplineSet
Substitution2: "Single Substitution lookup 26 subtable" j.dotless
Substitution2: "'aalt' Access All Alternates lookup 0 subtable" j.dotless
EndChar

StartChar: k
Encoding: 107 107 76
GlifName: k
Width: 557
Flags: MW
HStem: 0 21G<54 54 54 187 376 376 376 555> 534 20G<467 626 626 626> 719 20G<191 324 324 324>
LayerCount: 2
Fore
SplineSet
54 0 m 1
 191 739 l 1
 324 739 l 1
 241 293 l 1
 467 554 l 1
 626 554 l 1
 377 283 l 1
 555 0 l 1
 376 0 l 1
 235 259 l 1
 187 0 l 1
 54 0 l 1
EndSplineSet
EndChar

StartChar: l
Encoding: 108 108 77
GlifName: l
Width: 241
Flags: MW
HStem: 0 21G<54 54 54 187> 719 20G<191 324 324 324>
VStem: 54 270
LayerCount: 2
Fore
SplineSet
54 0 m 1
 191 739 l 1
 324 739 l 1
 187 0 l 1
 54 0 l 1
EndSplineSet
EndChar

StartChar: m
Encoding: 109 109 78
GlifName: m
Width: 937
Flags: MW
HStem: 0 21G<54 54 54 187 403 403 403 536 752 752 752 885> 445 122<392.5 395 726 746> 534 20G<157 279 279 279>
VStem: 815 137<354 412>
LayerCount: 2
Fore
SplineSet
54 0 m 1xd0
 157 554 l 1
 279 554 l 1xb0
 269 502 l 1
 317 549 360 567 425 567 c 0
 502 567 545 542 572 481 c 1
 628 541 687 567 765 567 c 0
 852 567 916 533 940 474 c 0
 948 453 952 427 952 397 c 0
 952 374 949 348 944 320 c 2
 885 0 l 1
 752 0 l 1
 808 304 l 2
 812 327 815 346 815 362 c 0
 815 385 811 401 802 413 c 0
 788 434 762 445 730 445 c 0
 687 445 650 425 625 389 c 0
 608 364 598 333 587 273 c 2
 536 0 l 1
 403 0 l 1
 459 304 l 2
 463 327 466 346 466 362 c 0
 466 384 462 400 454 412 c 0
 440 433 412 445 378 445 c 0
 331 445 294 424 271 385 c 0
 258 363 248 326 238 273 c 2
 187 0 l 1
 54 0 l 1xd0
EndSplineSet
EndChar

StartChar: n
Encoding: 110 110 79
GlifName: n
Width: 598
Flags: MW
HStem: 0 21G<54 54 54 187 413 413 413 546> 445 122<367 477.5> 534 20G<157 280 280 280>
VStem: 473 141<347 422>
LayerCount: 2
Fore
SplineSet
54 0 m 1xd0
 157 554 l 1
 280 554 l 1xb0
 270 501 l 1
 328 549 374 567 438 567 c 0
 517 567 573 537 599 482 c 0
 609 460 614 437 614 407 c 0
 614 379 610 344 601 297 c 2
 546 0 l 1
 413 0 l 1
 463 271 l 2
 470 308 473 336 473 358 c 0
 473 382 469 400 461 412 c 0
 447 434 423 445 389 445 c 0
 345 445 306 426 280 391 c 0
 259 365 248 333 235 261 c 2
 187 0 l 1
 54 0 l 1xd0
EndSplineSet
EndChar

StartChar: o
Encoding: 111 111 80
GlifName: o
Width: 645
Flags: MW
HStem: -13 122<303 386.5 303 402> 445 122<359 442>
VStem: 74 136<206.5 232.5> 537 136<320.5 348>
LayerCount: 2
Fore
SplineSet
430 567 m 0
 573 567 673 464 673 329 c 0
 673 312 671 294 668 276 c 0
 639 117 483 -13 321 -13 c 0
 176 -13 74 89 74 224 c 0
 74 241 76 258 79 276 c 0
 109 438 264 567 430 567 c 0
402 445 m 0
 316 445 230 369 213 277 c 0
 211 266 210 255 210 245 c 0
 210 168 264 109 342 109 c 0
 431 109 517 184 534 276 c 0
 536 287 537 298 537 309 c 0
 537 387 482 445 402 445 c 0
EndSplineSet
EndChar

StartChar: p
Encoding: 112 112 81
GlifName: p
Width: 662
Flags: MW
HStem: -185 21G<20 20 20 153> -13 122<321.5 406.5 321.5 435> 445 122<425.5 461> 534 20G<157 279 279 279>
VStem: 555 137<331 351>
LayerCount: 2
Fore
SplineSet
20 -185 m 1xe8
 157 554 l 1
 279 554 l 1xd8
 267 489 l 1
 319 540 388 567 463 567 c 0
 603 567 692 475 692 341 c 0
 692 321 690 300 686 279 c 0
 655 111 515 -13 355 -13 c 0
 287 -13 240 7 197 52 c 1
 153 -185 l 1
 20 -185 l 1xe8
420 445 m 0xe8
 330 445 248 372 230 275 c 0
 228 264 227 253 227 242 c 0
 227 165 281 109 362 109 c 0
 451 109 534 182 551 276 c 0
 553 288 555 301 555 312 c 0
 555 390 502 445 420 445 c 0xe8
EndSplineSet
EndChar

StartChar: q
Encoding: 113 113 82
GlifName: q
Width: 663
Flags: MW
HStem: -185 21G<442 575 442 442> -13 122<304 341> 445 122<359 445.5> 534 20G<590 712 712 712>
VStem: 74 136<202 229.5>
LayerCount: 2
Fore
SplineSet
590 554 m 1xd8
 712 554 l 1xd8
 575 -185 l 1
 442 -185 l 1
 486 53 l 1
 434 9 375 -13 307 -13 c 0
 167 -13 74 85 74 220 c 0
 74 239 76 259 80 279 c 0
 110 440 256 567 412 567 c 0xe8
 493 567 544 541 577 483 c 1
 590 554 l 1xd8
404 445 m 0xe8
 314 445 231 371 213 276 c 0
 211 264 210 252 210 241 c 0
 210 163 263 109 345 109 c 0
 436 109 517 179 535 275 c 0
 537 288 539 300 539 312 c 0
 539 391 487 445 404 445 c 0xe8
EndSplineSet
EndChar

StartChar: r
Encoding: 114 114 83
GlifName: r
Width: 330
Flags: MW
HStem: 0 21G<54 54 54 187> 439 128<387 411> 534 20G<157 279 279 279>
LayerCount: 2
Fore
SplineSet
54 0 m 1xc0
 157 554 l 1
 279 554 l 1xa0
 269 500 l 1
 314 552 344 567 401 567 c 2
 411 567 l 1
 387 439 l 1
 307 437 260 394 244 308 c 2
 187 0 l 1
 54 0 l 1xc0
EndSplineSet
EndChar

StartChar: s
Encoding: 115 115 84
GlifName: s
Width: 438
Flags: MW
HStem: -13 122<223.5 260.5 223.5 271.5> 445 122<286.5 315>
VStem: 105 136<333.5 392> 314 138<170.5 242.5>
LayerCount: 2
Fore
SplineSet
48 176 m 1
 182 176 l 1
 186 129 204 109 243 109 c 0
 278 109 307 132 313 163 c 0
 314 166 314 169 314 172 c 0
 314 186 308 198 296 206 c 0
 284 215 279 217 232 234 c 0
 143 266 105 303 105 364 c 0
 105 374 107 386 109 398 c 0
 127 493 220 567 324 567 c 0
 381 567 431 543 458 502 c 0
 472 481 478 461 478 434 c 0
 478 424 477 413 475 401 c 1
 345 401 l 1
 344 430 329 445 301 445 c 0
 272 445 247 425 242 398 c 0
 242 396 241 393 241 391 c 0
 241 378 248 368 261 361 c 0
 274 355 274 355 325 338 c 0
 415 309 452 273 452 212 c 0
 452 201 451 189 449 176 c 0
 429 70 327 -13 216 -13 c 0
 147 -13 88 18 62 67 c 0
 51 89 46 110 46 140 c 0
 46 151 47 163 48 176 c 1
EndSplineSet
EndChar

StartChar: t
Encoding: 116 116 85
GlifName: t
Width: 303
Flags: MW
HStem: 0 21G<78 78 78 211> 433 121<116 158 93 181 116 291 314 371> 719 20G<215 348 348 348>
VStem: 78 316
LayerCount: 2
Fore
SplineSet
78 0 m 1
 158 433 l 1
 93 433 l 1
 116 554 l 1
 181 554 l 1
 215 739 l 1
 348 739 l 1
 314 554 l 1
 394 554 l 1
 371 433 l 1
 291 433 l 1
 211 0 l 1
 78 0 l 1
EndSplineSet
EndChar

StartChar: u
Encoding: 117 117 86
GlifName: u
Width: 599
Flags: MW
HStem: -13 122<293 294.5> 0 21G<422 545 422 422> 534 20G<155 288 288 288 515 648 648 648>
VStem: 88 139<140 207>
LayerCount: 2
Fore
SplineSet
648 554 m 1xb0
 545 0 l 1
 422 0 l 1x70
 432 53 l 1
 372 4 328 -13 261 -13 c 0
 186 -13 131 18 105 74 c 0
 94 98 88 124 88 156 c 0
 88 183 92 215 100 257 c 2
 155 554 l 1
 288 554 l 1
 237 283 l 2
 230 246 227 218 227 196 c 0
 227 172 231 155 239 142 c 0
 254 120 276 109 310 109 c 0
 356 109 398 128 423 162 c 0
 442 187 453 222 466 293 c 2
 515 554 l 1
 648 554 l 1xb0
EndSplineSet
EndChar

StartChar: v
Encoding: 118 118 87
GlifName: v
Width: 558
Flags: MW
HStem: 0 21G<226 226 226 332> 534 20G<106 254 254 254 508 658 658 658>
LayerCount: 2
Fore
SplineSet
226 0 m 1
 106 554 l 1
 254 554 l 1
 314 187 l 1
 508 554 l 1
 658 554 l 1
 332 0 l 1
 226 0 l 1
EndSplineSet
EndChar

StartChar: w
Encoding: 119 119 88
GlifName: w
Width: 781
Flags: MW
HStem: 0 21G<201 201 201 283 495 495 495 578> 534 20G<106 249 249 249 441 547 547 547 739 881 881 881>
LayerCount: 2
Fore
SplineSet
201 0 m 1
 106 554 l 1
 249 554 l 1
 285 216 l 1
 441 554 l 1
 547 554 l 1
 575 216 l 1
 739 554 l 1
 881 554 l 1
 578 0 l 1
 495 0 l 1
 457 359 l 1
 283 0 l 1
 201 0 l 1
EndSplineSet
EndChar

StartChar: x
Encoding: 120 120 89
GlifName: x
Width: 558
Flags: MW
HStem: 0 21G<3 3 3 163 395 395 395 555> 534 20G<132 282 282 282 480 630 630 630>
LayerCount: 2
Fore
SplineSet
3 0 m 1
 252 286 l 1
 132 554 l 1
 282 554 l 1
 351 387 l 1
 480 554 l 1
 630 554 l 1
 411 286 l 1
 555 0 l 1
 395 0 l 1
 314 190 l 1
 163 0 l 1
 3 0 l 1
EndSplineSet
EndChar

StartChar: y
Encoding: 121 121 90
GlifName: y
Width: 568
Flags: MW
HStem: -185 21G<68 68 68 211> 534 20G<106 258 258 258 515 668 668 668>
LayerCount: 2
Fore
SplineSet
68 -185 m 1
 216 52 l 1
 106 554 l 1
 258 554 l 1
 314 195 l 1
 515 554 l 1
 668 554 l 1
 211 -185 l 1
 68 -185 l 1
EndSplineSet
EndChar

StartChar: z
Encoding: 122 122 91
GlifName: z
Width: 482
Flags: MW
HStem: 0 119<30 52 52 52 211 452> 435 119<161 355 139 536 514 514>
LayerCount: 2
Fore
SplineSet
30 0 m 1
 52 119 l 1
 355 435 l 1
 139 435 l 1
 161 554 l 1
 536 554 l 1
 514 435 l 1
 211 119 l 1
 474 119 l 1
 452 0 l 1
 30 0 l 1
EndSplineSet
EndChar

StartChar: braceleft
Encoding: 123 123 92
GlifName: braceleft
Width: 335
Flags: MW
HStem: -128 80<281 296> 265 81<89 104> 659 80<427 442>
VStem: 118 111<-67 5> 155 109<215.5 217.5>
CounterMasks: 1 e0
LayerCount: 2
Fore
SplineSet
329 557 m 2xe8
 306 434 l 2
 292 356 263 323 193 305 c 1
 242 292 264 269 264 222 c 0xe8
 264 209 262 194 259 177 c 2
 236 54 l 2
 232 30 229 12 229 -2 c 0
 229 -37 246 -44 296 -48 c 1
 281 -128 l 1
 265 -129 248 -129 238 -129 c 0
 156 -129 118 -100 118 -34 c 0xf0
 118 -21 120 -6 123 10 c 2
 152 167 l 2
 154 178 155 188 155 197 c 0
 155 238 134 259 89 265 c 1
 104 346 l 1
 161 353 192 384 203 444 c 2
 232 601 l 2
 250 698 300 740 399 740 c 0
 409 740 426 740 442 739 c 1
 427 659 l 1
 355 653 345 642 329 557 c 2xe8
EndSplineSet
EndChar

StartChar: bar
Encoding: 124 124 93
GlifName: bar
Width: 599
Flags: MW
HStem: 0 21G<240 359 240 240> 719 20G<377 496 496 496>
VStem: 240 256
LayerCount: 2
Fore
SplineSet
496 739 m 1
 359 0 l 1
 240 0 l 1
 377 739 l 1
 496 739 l 1
EndSplineSet
EndChar

StartChar: braceright
Encoding: 125 125 94
GlifName: braceright
Width: 335
Flags: MW
HStem: -128 80<6 21> 265 81<344 359> 659 80<152 167>
VStem: 185 108<393.5 395.5> 219 111<606 678>
CounterMasks: 1 e0
LayerCount: 2
Fore
SplineSet
119 54 m 2xf0
 142 177 l 2
 156 255 186 288 256 306 c 1
 207 319 185 342 185 389 c 0xf0
 185 402 186 417 189 434 c 2
 212 557 l 2
 216 581 219 599 219 613 c 0
 219 648 202 655 152 659 c 1
 167 739 l 1
 183 740 200 740 210 740 c 0
 292 740 330 711 330 645 c 0xe8
 330 632 328 617 325 601 c 2
 296 444 l 2
 294 433 293 423 293 414 c 0
 293 373 314 352 359 346 c 1
 344 265 l 1
 287 258 256 227 245 167 c 2
 216 10 l 2
 198 -87 148 -129 49 -129 c 0
 39 -129 22 -129 6 -128 c 1
 21 -48 l 1
 93 -42 103 -31 119 54 c 2xf0
EndSplineSet
EndChar

StartChar: asciitilde
Encoding: 126 126 95
GlifName: asciitilde
Width: 600
Flags: MW
HStem: 230 117<466.5 477> 295 117<253 260.5>
LayerCount: 2
Fore
SplineSet
566 421 m 1x80
 616 347 l 1
 548 262 504 230 450 230 c 0x80
 429 230 396 239 363 254 c 2
 313 276 l 2
 280 291 268 295 253 295 c 0
 234 295 216 287 199 271 c 0
 194 266 195 266 160 224 c 0
 156 221 154 217 151 214 c 1
 102 289 l 1
 134 330 143 342 163 361 c 0
 194 393 234 412 272 412 c 0x40
 296 412 323 406 346 396 c 2
 408 369 l 2
 458 347 458 347 475 347 c 0
 498 347 532 374 566 421 c 1x80
EndSplineSet
EndChar

StartChar: afii10023
Encoding: 161 1025 97
GlifName: afii10023
Width: 524
Flags: MW
HStem: 0 131<232 468> 303 131<288 513 264 537> 608 131<321 581 321 321> 805 133<247 405 272 380 482 590 272 457>
LayerCount: 2
Fore
SplineSet
71 0 m 1
 208 739 l 1
 605 739 l 1
 581 608 l 1
 321 608 l 1
 288 434 l 1
 537 434 l 1
 513 303 l 1
 264 303 l 1
 232 131 l 1
 492 131 l 1
 468 0 l 1
 71 0 l 1
247 805 m 1
 272 938 l 1
 405 938 l 1
 380 805 l 1
 247 805 l 1
457 805 m 1
 482 938 l 1
 615 938 l 1
 590 805 l 1
 457 805 l 1
EndSplineSet
EndChar

StartChar: afii10051
Encoding: 162 1026 98
GlifName: afii10051
Width: 693
Flags: MW
HStem: -13 131<422 452 422 469> 0 21G<154 291 154 154> 319 131<374 408 350 423> 608 131<144 267 120 605 404 404 404 581>
VStem: 572 140<261.5 277>
LayerCount: 2
Fore
SplineSet
398 -13 m 1xb8
 422 118 l 1xb8
 482 118 557 156 570 227 c 0
 571 233 572 239 572 245 c 0
 572 309 496 319 408 319 c 2
 350 319 l 1
 291 0 l 1
 154 0 l 1x78
 267 608 l 1
 120 608 l 1
 144 739 l 1
 605 739 l 1
 581 608 l 1
 404 608 l 1
 374 450 l 1
 423 450 l 2
 536 450 588 443 629 421 c 0
 683 392 712 336 712 269 c 0
 712 254 711 240 708 224 c 0
 679 68 540 -13 398 -13 c 1xb8
EndSplineSet
EndChar

StartChar: afii10052
Encoding: 163 1027 99
GlifName: afii10052
Width: 467
Flags: MW
HStem: 0 21G<71 208 71 71> 608 131<321 573 321 321> 788 212
VStem: 288 286<866 908>
LayerCount: 2
Fore
SplineSet
325 788 m 1
 288 866 l 1
 537 1000 l 1
 574 908 l 1
 325 788 l 1
573 608 m 1
 321 608 l 1
 208 0 l 1
 71 0 l 1
 208 739 l 1
 597 739 l 1
 573 608 l 1
EndSplineSet
EndChar

StartChar: afii10053
Encoding: 164 1028 100
GlifName: afii10053
Width: 802
Flags: MW
HStem: -13 132<386.5 479.5 386.5 499> 307 131<264 603 239 627> 620 132<496 577>
VStem: 98 141<307 307 307 312.5>
LayerCount: 2
Fore
SplineSet
643 206 m 1
 804 206 l 1
 721 71 575 -13 423 -13 c 0
 231 -13 98 121 98 301 c 0
 98 324 101 348 105 372 c 0
 144 581 346 752 555 752 c 0
 648 752 732 720 790 662 c 0
 830 622 847 589 864 527 c 1
 711 527 l 1
 673 592 620 620 534 620 c 0
 458 620 390 592 335 539 c 0
 306 511 281 476 264 438 c 1
 627 438 l 1
 603 307 l 1
 239 307 l 1
 247 199 329 119 444 119 c 0
 515 119 570 143 643 206 c 1
EndSplineSet
EndChar

StartChar: afii10054
Encoding: 165 1029 101
GlifName: afii10054
Width: 524
Flags: MW
HStem: -13 132<256 313.5 256 326.5> 620 132<352.5 396>
VStem: 56 144<170 178> 143 141<465.5 534> 403 141<226.5 288.5> 439 144<554 599.5>
LayerCount: 2
Fore
SplineSet
58 211 m 1xe8
 201 211 l 1
 201 206 200 201 200 196 c 0xe8
 200 144 228 119 284 119 c 0
 343 119 391 156 401 209 c 0
 402 216 403 223 403 230 c 0xd8
 403 253 395 271 378 286 c 0
 359 302 354 305 263 341 c 0
 184 372 143 429 143 502 c 0
 143 515 143 528 146 542 c 0
 168 659 280 752 400 752 c 0
 471 752 532 721 562 668 c 0
 577 642 583 616 583 583 c 0
 583 570 582 557 580 542 c 1
 438 542 l 1
 438 547 439 552 439 556 c 0
 439 597 417 620 375 620 c 0
 330 620 293 589 285 545 c 0
 284 540 284 536 284 532 c 0xd4
 284 510 294 491 315 477 c 0
 323 471 326 470 389 445 c 0
 457 417 478 405 502 378 c 0
 530 348 544 310 544 267 c 0
 544 253 543 239 540 224 c 0
 515 90 393 -13 260 -13 c 0
 179 -13 111 22 79 81 c 0
 63 110 56 137 56 172 c 0
 56 184 56 197 58 211 c 1xe8
EndSplineSet
EndChar

StartChar: afii10055
Encoding: 166 1030 102
GlifName: afii10055
Width: 279
Flags: MW
HStem: 0 21G<71 71 71 208> 719 20G<208 345 345 345>
VStem: 71 274
LayerCount: 2
Fore
SplineSet
71 0 m 1
 208 739 l 1
 345 739 l 1
 208 0 l 1
 71 0 l 1
EndSplineSet
EndChar

StartChar: afii10056
Encoding: 167 1031 103
GlifName: afii10056
Width: 279
Flags: MW
HStem: 0 21G<71 71 71 208> 719 20G<208 345 345 345> 805 133<117 275 142 250 352 460 142 327>
LayerCount: 2
Fore
SplineSet
71 0 m 1
 208 739 l 1
 345 739 l 1
 208 0 l 1
 71 0 l 1
117 805 m 1
 142 938 l 1
 275 938 l 1
 250 805 l 1
 117 805 l 1
327 805 m 1
 352 938 l 1
 485 938 l 1
 460 805 l 1
 327 805 l 1
EndSplineSet
EndChar

StartChar: afii10057
Encoding: 168 1032 104
GlifName: afii10057
Width: 494
Flags: MW
HStem: -13 132<225 264 225 283> 719 20G<423 560 560 560>
LayerCount: 2
Fore
SplineSet
423 739 m 1
 560 739 l 1
 462 212 l 2
 436 73 345 -13 221 -13 c 0
 157 -13 103 13 73 57 c 0
 56 81 48 104 48 139 c 0
 48 150 49 162 50 175 c 1
 187 175 l 1
 189 138 208 119 242 119 c 0
 286 119 314 151 326 216 c 2
 423 739 l 1
EndSplineSet
EndChar

StartChar: afii10058
Encoding: 169 1033 105
GlifName: afii10058
Width: 1012
Flags: MW
HStem: 0 131<634 661> 319 131<669 742 693 717> 719 20G<610 747 747 747>
VStem: 890 141<238.5 302.5>
LayerCount: 2
Fore
SplineSet
167 0 m 1
 2 0 l 1
 610 739 l 1
 747 739 l 1
 693 450 l 1
 742 450 l 2
 855 450 907 443 948 421 c 0
 1002 392 1031 336 1031 269 c 0
 1031 254 1030 240 1027 224 c 0
 1012 142 961 75 887 37 c 0
 833 9 774 0 661 0 c 2
 473 0 l 1
 568 513 l 1
 167 0 l 1
669 319 m 1
 634 131 l 1
 689 131 l 2
 743 131 769 133 796 138 c 0
 846 149 881 182 889 227 c 0
 890 232 890 236 890 241 c 0
 890 274 867 299 828 309 c 0
 802 316 765 319 717 319 c 2
 669 319 l 1
EndSplineSet
EndChar

StartChar: afii10059
Encoding: 170 1034 106
GlifName: afii10059
Width: 1004
Flags: MW
HStem: 0 131<626 653> 319 131<291 524 267 548 685 709 291 661> 719 20G<208 345 345 345 602 739 739 739>
VStem: 882 141<238.5 302.5>
LayerCount: 2
Fore
SplineSet
71 0 m 1
 208 739 l 1
 345 739 l 1
 291 450 l 1
 548 450 l 1
 602 739 l 1
 739 739 l 1
 685 450 l 1
 734 450 l 2
 847 450 899 443 940 421 c 0
 994 392 1023 336 1023 269 c 0
 1023 254 1022 240 1019 224 c 0
 1004 142 953 75 879 37 c 0
 825 9 766 0 653 0 c 2
 465 0 l 1
 524 319 l 1
 267 319 l 1
 208 0 l 1
 71 0 l 1
661 319 m 1
 626 131 l 1
 681 131 l 2
 735 131 761 133 788 138 c 0
 838 149 873 182 881 227 c 0
 882 232 882 236 882 241 c 0
 882 274 859 299 820 309 c 0
 794 316 757 319 709 319 c 2
 661 319 l 1
EndSplineSet
EndChar

StartChar: afii10060
Encoding: 171 1035 107
GlifName: afii10060
Width: 702
Flags: MW
HStem: 0 21G<154 291 154 154 513 651 513 513> 321 131<453.5 473.5> 608 131<144 267 120 605 404 404 404 581>
VStem: 557 140<266 277>
LayerCount: 2
Fore
SplineSet
513 0 m 1
 555 224 l 2
 557 233 557 241 557 249 c 0
 557 305 512 321 435 321 c 0
 404 321 372 320 350 317 c 1
 291 0 l 1
 154 0 l 1
 267 608 l 1
 120 608 l 1
 144 739 l 1
 605 739 l 1
 581 608 l 1
 404 608 l 1
 374 448 l 1
 374 448 406 452 501 452 c 0
 613 452 697 389 697 274 c 0
 697 258 696 242 693 224 c 2
 651 0 l 1
 513 0 l 1
EndSplineSet
EndChar

StartChar: afii10061
Encoding: 172 1036 108
GlifName: afii10061
Width: 614
Flags: MW
HStem: 0 21G<71 71 71 208 437 437 437 602> 719 20G<208 345 345 345 574 739 739 739> 788 212
VStem: 346 286<866 908>
LayerCount: 2
Fore
SplineSet
383 788 m 1
 346 866 l 1
 595 1000 l 1
 632 908 l 1
 383 788 l 1
71 0 m 1
 208 739 l 1
 345 739 l 1
 286 420 l 1
 574 739 l 1
 739 739 l 1
 394 376 l 1
 602 0 l 1
 437 0 l 1
 268 325 l 1
 208 0 l 1
 71 0 l 1
EndSplineSet
EndChar

StartChar: uni00AD
Encoding: 173 173 109
GlifName: uni00A_D_
Width: 337
Flags: MW
HStem: 229 118<72 371 94 349>
VStem: 72 299<229 347>
LayerCount: 2
Fore
SplineSet
72 229 m 1
 94 347 l 1
 371 347 l 1
 349 229 l 1
 72 229 l 1
EndSplineSet
EndChar

StartChar: afii10062
Encoding: 174 1038 110
GlifName: afii10062
Width: 599
Flags: MW
HStem: 0 21G<155 285 155 155> 719 20G<141 289 289 289 584 732 732 732> 796 65<442.5 479.5 442.5 492>
VStem: 296 112<891.5 913 891.5 937>
LayerCount: 2
Fore
SplineSet
296 937 m 1
 411 937 l 1
 409 927 408 917 408 909 c 0
 408 874 426 861 459 861 c 0
 500 861 525 882 535 937 c 1
 650 937 l 1
 616 842 537 796 447 796 c 0
 357 796 296 842 296 937 c 1
285 0 m 1
 155 0 l 1
 267 194 l 1
 141 739 l 1
 289 739 l 1
 365 363 l 1
 584 739 l 1
 732 739 l 1
 285 0 l 1
EndSplineSet
EndChar

StartChar: afii10145
Encoding: 175 1039 111
GlifName: afii10145
Width: 666
Flags: MW
HStem: 0 131<232 261 405 482 232 595 405 405> 719 20G<208 345 345 345 595 732 732 732>
LayerCount: 2
Fore
SplineSet
732 739 m 1
 595 0 l 1
 405 0 l 1
 352 -145 l 1
 260 -145 l 1
 261 0 l 1
 71 0 l 1
 208 739 l 1
 345 739 l 1
 232 131 l 1
 482 131 l 1
 595 739 l 1
 732 739 l 1
EndSplineSet
EndChar

StartChar: afii10017
Encoding: 176 1040 112
GlifName: afii10017
Width: 740
Flags: MW
HStem: 0 21G<7 7 7 158 582 582 582 733> 191 131<350 508 350 538 275 508> 719 20G<452 560 560 560>
LayerCount: 2
Fore
SplineSet
7 0 m 1
 452 739 l 1
 560 739 l 1
 733 0 l 1
 582 0 l 1
 538 191 l 1
 275 191 l 1
 158 0 l 1
 7 0 l 1
350 322 m 1
 508 322 l 1
 470 546 l 1
 350 322 l 1
EndSplineSet
EndChar

StartChar: afii10018
Encoding: 177 1041 113
GlifName: afii10018
Width: 599
Flags: MW
HStem: 0 131<232 256> 331 131<269 340 294 313> 608 131<321 321 321 629>
VStem: 470 140<247 313.5>
LayerCount: 2
Fore
SplineSet
269 331 m 1
 232 131 l 1
 282 131 l 2
 331 131 355 134 380 139 c 0
 426 150 459 186 468 233 c 0
 469 239 470 244 470 250 c 0
 470 284 449 311 414 320 c 0
 390 327 357 331 313 331 c 2
 269 331 l 1
321 608 m 1
 294 462 l 1
 340 462 l 2
 447 462 495 455 534 432 c 0
 583 403 610 347 610 280 c 0
 610 264 609 247 606 230 c 0
 590 146 541 77 471 38 c 0
 420 9 363 0 256 0 c 2
 71 0 l 1
 208 739 l 1
 653 739 l 1
 629 608 l 1
 321 608 l 1
EndSplineSet
EndChar

StartChar: afii10019
Encoding: 178 1042 114
GlifName: afii10019
Width: 587
Flags: MW
HStem: 0 131<232 268> 320 134<292 332 267 336> 605 134<320 360 360 376 320 320>
VStem: 457 139<258.5 270> 470 141<544.5 607>
LayerCount: 2
Fore
SplineSet
71 0 m 1xf0
 208 739 l 1
 360 739 l 2
 473 739 518 730 557 700 c 0
 593 673 611 632 611 582 c 0xe8
 611 569 610 556 607 542 c 0
 594 472 565 434 500 403 c 1
 545 383 564 368 580 339 c 0
 591 319 596 294 596 266 c 0
 596 251 595 236 592 220 c 0
 578 142 528 75 457 38 c 0
 407 12 347 0 268 0 c 2
 71 0 l 1xf0
232 131 m 1
 300 131 l 2
 396 131 443 159 455 224 c 0
 456 232 457 238 457 245 c 0xf0
 457 295 416 320 332 320 c 2
 267 320 l 1
 232 131 l 1
292 454 m 1
 336 454 l 2
 419 454 458 477 468 530 c 0
 469 536 470 542 470 547 c 0xe8
 470 586 439 605 376 605 c 2
 320 605 l 1
 292 454 l 1
EndSplineSet
EndChar

StartChar: afii10020
Encoding: 179 1043 115
GlifName: afii10020
Width: 467
Flags: MW
HStem: 0 21G<71 208 71 71> 608 131<321 573 321 321>
LayerCount: 2
Fore
SplineSet
573 608 m 1
 321 608 l 1
 208 0 l 1
 71 0 l 1
 208 739 l 1
 597 739 l 1
 573 608 l 1
EndSplineSet
EndChar

StartChar: afii10021
Encoding: 180 1044 116
GlifName: afii10021
Width: 840
Flags: MW
HStem: 0 131<278 610 38 138> 719 20G<502 612 612 612>
VStem: 703 96<-145 -145>
LayerCount: 2
Fore
SplineSet
799 -145 m 1
 703 -145 l 1
 702 0 l 1
 138 0 l 1
 83 -145 l 1
 -13 -145 l 1
 38 131 l 1
 136 131 l 1
 502 739 l 1
 612 739 l 1
 752 131 l 1
 850 131 l 1
 799 -145 l 1
278 131 m 1
 610 131 l 1
 519 536 l 1
 278 131 l 1
EndSplineSet
Substitution2: "'locl' Localized Forms in Cyrillic lookup 11 subtable" uni0414.loclBGR
Substitution2: "'aalt' Access All Alternates lookup 0 subtable" uni0414.loclBGR
EndChar

StartChar: afii10022
Encoding: 181 1045 117
GlifName: afii10022
Width: 524
Flags: MW
HStem: 0 131<232 468> 303 131<288 513 264 537> 608 131<321 581 321 321>
LayerCount: 2
Fore
SplineSet
71 0 m 1
 208 739 l 1
 605 739 l 1
 581 608 l 1
 321 608 l 1
 288 434 l 1
 537 434 l 1
 513 303 l 1
 264 303 l 1
 232 131 l 1
 492 131 l 1
 468 0 l 1
 71 0 l 1
EndSplineSet
EndChar

StartChar: afii10024
Encoding: 182 1046 118
GlifName: afii10024
Width: 913
Flags: MW
HStem: 0 21G<12 175 12 12 388 525 388 388 738 901 738 738> 719 20G<149 312 312 312 525 662 662 662 875 1038 1038 1038>
LayerCount: 2
Fore
SplineSet
599 400 m 1
 875 739 l 1
 1038 739 l 1
 724 376 l 1
 901 0 l 1
 738 0 l 1
 589 345 l 1
 525 0 l 1
 388 0 l 1
 452 345 l 1
 175 0 l 1
 12 0 l 1
 329 376 l 1
 149 739 l 1
 312 739 l 1
 462 400 l 1
 525 739 l 1
 662 739 l 1
 599 400 l 1
EndSplineSet
Substitution2: "'locl' Localized Forms in Cyrillic lookup 11 subtable" uni0416.loclBGR
Substitution2: "'aalt' Access All Alternates lookup 0 subtable" uni0416.loclBGR
EndChar

StartChar: afii10025
Encoding: 183 1047 119
GlifName: afii10025
Width: 554
Flags: MW
HStem: -13 132<270 325.5 270 339.5> 330 120<307 330.5> 621 131<364.5 411>
VStem: 68 140<180.5 190> 424 138<248.5 280.5> 463 135<567.5 570>
LayerCount: 2
Fore
SplineSet
285 330 m 1xf8
 307 450 l 1
 377 450 448 467 461 535 c 0
 462 540 463 545 463 550 c 0
 463 590 433 621 389 621 c 0
 340 621 294 582 285 535 c 1
 152 535 l 1
 174 655 290 752 413 752 c 0
 522 752 598 675 598 574 c 0xf4
 598 561 597 548 594 535 c 0
 583 475 541 414 474 394 c 1
 529 373 562 313 562 253 c 0
 562 244 562 234 560 225 c 0
 536 94 407 -13 272 -13 c 0
 152 -13 68 72 68 183 c 0
 68 197 69 211 72 225 c 1
 210 225 l 1
 209 218 208 211 208 205 c 0
 208 156 244 119 296 119 c 0
 355 119 411 166 422 225 c 0
 424 234 424 243 424 251 c 0
 424 310 376 330 285 330 c 1xf8
EndSplineSet
EndChar

StartChar: afii10026
Encoding: 184 1048 120
GlifName: afii10026
Width: 738
Flags: MW
HStem: 0 21G<71 210 71 71 531 667 531 531> 719 20G<208 344 344 344 665 804 804 804>
LayerCount: 2
Fore
SplineSet
665 739 m 1
 804 739 l 1
 667 0 l 1
 531 0 l 1
 626 512 l 1
 210 0 l 1
 71 0 l 1
 208 739 l 1
 344 739 l 1
 249 227 l 1
 665 739 l 1
EndSplineSet
EndChar

StartChar: afii10027
Encoding: 185 1049 121
GlifName: afii10027
Width: 738
Flags: MW
HStem: 0 21G<71 210 71 71 531 667 531 531> 719 20G<208 344 344 344 665 804 804 804> 796 65<512.5 549.5 512.5 562>
VStem: 366 112<891.5 913 891.5 937>
LayerCount: 2
Fore
SplineSet
366 937 m 1
 481 937 l 1
 479 927 478 917 478 909 c 0
 478 874 496 861 529 861 c 0
 570 861 595 882 605 937 c 1
 720 937 l 1
 686 842 607 796 517 796 c 0
 427 796 366 842 366 937 c 1
665 739 m 1
 804 739 l 1
 667 0 l 1
 531 0 l 1
 626 512 l 1
 210 0 l 1
 71 0 l 1
 208 739 l 1
 344 739 l 1
 249 227 l 1
 665 739 l 1
EndSplineSet
EndChar

StartChar: afii10028
Encoding: 186 1050 122
GlifName: afii10028
Width: 614
Flags: MW
HStem: 0 21G<71 71 71 208 437 437 437 602> 719 20G<208 345 345 345 574 739 739 739>
LayerCount: 2
Fore
SplineSet
71 0 m 1
 208 739 l 1
 345 739 l 1
 286 420 l 1
 574 739 l 1
 739 739 l 1
 394 376 l 1
 602 0 l 1
 437 0 l 1
 268 325 l 1
 208 0 l 1
 71 0 l 1
EndSplineSet
Substitution2: "'locl' Localized Forms in Cyrillic lookup 11 subtable" uni041A.loclBGR
Substitution2: "'aalt' Access All Alternates lookup 0 subtable" uni041A.loclBGR
EndChar

StartChar: afii10029
Encoding: 187 1051 123
GlifName: afii10029
Width: 740
Flags: MW
HStem: 0 21G<7 155 7 7 585 585 585 733> 719 20G<453 561 561 561>
LayerCount: 2
Fore
SplineSet
472 551 m 1
 155 0 l 1
 7 0 l 1
 453 739 l 1
 561 739 l 1
 733 0 l 1
 585 0 l 1
 472 551 l 1
EndSplineSet
Substitution2: "'locl' Localized Forms in Cyrillic lookup 11 subtable" uni041B.loclBGR
Substitution2: "'aalt' Access All Alternates lookup 0 subtable" uni041B.loclBGR
EndChar

StartChar: afii10030
Encoding: 188 1052 124
GlifName: afii10030
Width: 914
Flags: MW
HStem: 0 21G<71 71 71 208 401 401 401 513 706 706 706 843> 719 20G<208 396 396 396 792 980 980 980>
LayerCount: 2
Fore
SplineSet
71 0 m 1
 208 739 l 1
 396 739 l 1
 491 179 l 1
 792 739 l 1
 980 739 l 1
 843 0 l 1
 706 0 l 1
 809 554 l 1
 513 0 l 1
 401 0 l 1
 311 554 l 1
 208 0 l 1
 71 0 l 1
EndSplineSet
EndChar

StartChar: afii10031
Encoding: 189 1053 125
GlifName: afii10031
Width: 680
Flags: MW
HStem: 0 21G<71 71 71 208 472 472 472 609> 310 131<290 529 265 554> 719 20G<208 345 345 345 609 746 746 746>
LayerCount: 2
Fore
SplineSet
71 0 m 1
 208 739 l 1
 345 739 l 1
 290 441 l 1
 554 441 l 1
 609 739 l 1
 746 739 l 1
 609 0 l 1
 472 0 l 1
 529 310 l 1
 265 310 l 1
 208 0 l 1
 71 0 l 1
EndSplineSet
EndChar

StartChar: afii10032
Encoding: 190 1054 126
GlifName: afii10032
Width: 842
Flags: MW
HStem: -13 132<384 516 384 530.5> 620 132<465.5 596>
VStem: 98 140<263.5 309.5> 741 140<429.5 478>
LayerCount: 2
Fore
SplineSet
566 752 m 0
 752 752 881 618 881 441 c 0
 881 418 879 394 875 370 c 0
 835 154 638 -13 423 -13 c 0
 231 -13 98 119 98 298 c 0
 98 321 99 345 104 369 c 0
 144 585 345 752 566 752 c 0
533 620 m 0
 398 620 269 509 243 370 c 0
 240 354 238 337 238 322 c 0
 238 205 322 119 446 119 c 0
 586 119 709 225 736 368 c 0
 739 386 741 403 741 419 c 0
 741 537 659 620 533 620 c 0
EndSplineSet
EndChar

StartChar: afii10033
Encoding: 191 1055 127
GlifName: afii10033
Width: 666
Flags: MW
HStem: 0 21G<71 71 71 208 458 458 458 595> 608 131<321 571 321 321>
LayerCount: 2
Fore
SplineSet
71 0 m 1
 208 739 l 1
 732 739 l 1
 595 0 l 1
 458 0 l 1
 571 608 l 1
 321 608 l 1
 208 0 l 1
 71 0 l 1
EndSplineSet
EndChar

StartChar: afii10034
Encoding: 192 1056 128
GlifName: afii10034
Width: 573
Flags: MW
HStem: 0 21G<71 71 71 208> 281 131<284 304 260 324> 608 131<321 367 321 321>
VStem: 501 142<527.5 592>
LayerCount: 2
Fore
SplineSet
71 0 m 1
 208 739 l 1
 391 739 l 2
 492 739 540 729 579 701 c 0
 621 670 643 622 643 562 c 0
 643 546 641 529 638 511 c 0
 622 423 569 347 498 311 c 0
 454 289 405 281 304 281 c 2
 260 281 l 1
 208 0 l 1
 71 0 l 1
284 412 m 1
 324 412 l 2
 364 412 397 415 420 422 c 0
 461 433 491 466 499 508 c 0
 500 516 501 524 501 531 c 0
 501 566 484 592 452 601 c 0
 432 606 412 608 367 608 c 2
 321 608 l 1
 284 412 l 1
EndSplineSet
EndChar

StartChar: afii10035
Encoding: 193 1057 129
GlifName: afii10035
Width: 802
Flags: MW
HStem: -13 132<383.5 479.5 383.5 499> 620 132<496 577>
VStem: 98 140<267 312.5>
LayerCount: 2
Fore
SplineSet
643 206 m 1
 804 206 l 1
 721 71 575 -13 423 -13 c 0
 231 -13 98 121 98 301 c 0
 98 324 101 348 105 372 c 0
 144 581 346 752 555 752 c 0
 648 752 732 720 790 662 c 0
 830 622 847 589 864 527 c 1
 711 527 l 1
 673 592 620 620 534 620 c 0
 458 620 390 592 335 539 c 0
 289 495 254 431 243 371 c 0
 240 355 238 340 238 325 c 0
 238 209 323 119 444 119 c 0
 515 119 570 143 643 206 c 1
EndSplineSet
EndChar

StartChar: afii10036
Encoding: 194 1058 130
GlifName: afii10036
Width: 425
Flags: MW
HStem: 0 21G<144 144 144 281> 608 131<144 257 120 555 394 394 394 531>
LayerCount: 2
Fore
SplineSet
144 0 m 1
 257 608 l 1
 120 608 l 1
 144 739 l 1
 555 739 l 1
 531 608 l 1
 394 608 l 1
 281 0 l 1
 144 0 l 1
EndSplineSet
EndChar

StartChar: afii10037
Encoding: 195 1059 131
GlifName: afii10037
Width: 599
Flags: MW
HStem: 0 21G<155 285 155 155> 719 20G<141 289 289 289 584 732 732 732>
LayerCount: 2
Fore
SplineSet
285 0 m 1
 155 0 l 1
 267 194 l 1
 141 739 l 1
 289 739 l 1
 365 363 l 1
 584 739 l 1
 732 739 l 1
 285 0 l 1
EndSplineSet
EndChar

StartChar: afii10038
Encoding: 196 1060 132
GlifName: afii10038
Width: 811
Flags: MW
HStem: 0 21G<337 474 337 337> 719 20G<474 611 611 611>
VStem: 95 140<307.5 330.5> 716 140<421.5 444.5>
LayerCount: 2
Fore
SplineSet
578 561 m 1
 509 191 l 1
 613 214 697 287 713 376 c 0
 715 386 716 397 716 407 c 0
 716 482 662 541 578 561 c 1
372 191 m 1
 441 560 l 1
 337 537 254 465 238 376 c 0
 236 366 235 355 235 345 c 0
 235 270 288 211 372 191 c 1
466 695 m 1
 474 739 l 1
 611 739 l 1
 603 695 l 1
 755 671 856 566 856 430 c 0
 856 413 854 394 851 376 c 0
 821 214 667 84 485 57 c 1
 474 0 l 1
 337 0 l 1
 348 57 l 1
 196 81 95 186 95 322 c 0
 95 339 97 358 100 376 c 0
 130 538 285 668 466 695 c 1
EndSplineSet
EndChar

StartChar: afii10039
Encoding: 197 1061 133
GlifName: afii10039
Width: 685
Flags: MW
HStem: 0 21G<7 7 7 170 519 519 519 678> 719 20G<144 307 307 307 656 815 815 815>
LayerCount: 2
Fore
SplineSet
7 0 m 1
 329 368 l 1
 144 739 l 1
 307 739 l 1
 431 481 l 1
 656 739 l 1
 815 739 l 1
 490 368 l 1
 678 0 l 1
 519 0 l 1
 389 255 l 1
 170 0 l 1
 7 0 l 1
EndSplineSet
EndChar

StartChar: afii10040
Encoding: 198 1062 134
GlifName: afii10040
Width: 717
Flags: MW
HStem: 0 131<232 472 232 571> 719 20G<208 345 345 345 585 722 722 722>
VStem: 572 96<-145 -145>
LayerCount: 2
Fore
SplineSet
585 739 m 1
 722 739 l 1
 609 131 l 1
 719 131 l 1
 668 -145 l 1
 572 -145 l 1
 571 0 l 1
 71 0 l 1
 208 739 l 1
 345 739 l 1
 232 131 l 1
 472 131 l 1
 585 739 l 1
EndSplineSet
EndChar

StartChar: afii10041
Encoding: 199 1063 135
GlifName: afii10041
Width: 627
Flags: MW
HStem: 0 21G<419 556 419 419> 267 131<338 344.5> 719 20G<187 324 324 324 556 693 693 693>
VStem: 134 145<362.5 483>
LayerCount: 2
Fore
SplineSet
187 739 m 1
 324 739 l 1
 284 525 l 2
 281 506 279 490 279 476 c 0
 279 421 306 398 370 398 c 0
 422 398 457 401 495 409 c 1
 556 739 l 1
 693 739 l 1
 556 0 l 1
 419 0 l 1
 471 283 l 1
 418 274 368 267 321 267 c 0
 214 267 134 302 134 423 c 0
 134 443 136 465 141 490 c 2
 187 739 l 1
EndSplineSet
EndChar

StartChar: afii10042
Encoding: 200 1064 136
GlifName: afii10042
Width: 895
Flags: MW
HStem: 0 131<232 403 540 711> 719 20G<208 345 345 345 516 653 653 653 824 961 961 961>
LayerCount: 2
Fore
SplineSet
824 0 m 1
 71 0 l 1
 208 739 l 1
 345 739 l 1
 232 131 l 1
 403 131 l 1
 516 739 l 1
 653 739 l 1
 540 131 l 1
 711 131 l 1
 824 739 l 1
 961 739 l 1
 824 0 l 1
EndSplineSet
EndChar

StartChar: afii10043
Encoding: 201 1065 137
GlifName: afii10043
Width: 956
Flags: MW
HStem: 0 131<232 403 540 711> 719 20G<208 345 345 345 516 653 653 653 824 961 961 961>
VStem: 811 96<-145 -145>
LayerCount: 2
Fore
SplineSet
848 131 m 1
 958 131 l 1
 907 -145 l 1
 811 -145 l 1
 810 0 l 1
 71 0 l 1
 208 739 l 1
 345 739 l 1
 232 131 l 1
 403 131 l 1
 516 739 l 1
 653 739 l 1
 540 131 l 1
 711 131 l 1
 824 739 l 1
 961 739 l 1
 848 131 l 1
EndSplineSet
EndChar

StartChar: afii10044
Encoding: 202 1066 138
GlifName: afii10044
Width: 711
Flags: MW
HStem: 0 131<333 360> 319 131<368 441 392 416> 608 131<144 285 120 446>
VStem: 589 141<238.5 302.5>
LayerCount: 2
Fore
SplineSet
368 319 m 1
 333 131 l 1
 388 131 l 2
 442 131 468 133 495 138 c 0
 545 149 580 182 588 227 c 0
 589 232 589 236 589 241 c 0
 589 274 566 299 527 309 c 0
 501 316 464 319 416 319 c 2
 368 319 l 1
285 608 m 1
 120 608 l 1
 144 739 l 1
 446 739 l 1
 392 450 l 1
 441 450 l 2
 554 450 606 443 647 421 c 0
 701 392 730 336 730 269 c 0
 730 254 729 240 726 224 c 0
 711 142 660 75 586 37 c 0
 532 9 473 0 360 0 c 2
 172 0 l 1
 285 608 l 1
EndSplineSet
EndChar

StartChar: afii10045
Encoding: 203 1067 139
GlifName: afii10045
Width: 865
Flags: MW
HStem: 0 131<232 259> 319 131<267 340 291 315> 719 20G<208 345 345 345 794 931 931 931>
VStem: 488 141<238.5 302.5>
LayerCount: 2
Fore
SplineSet
208 739 m 1
 345 739 l 1
 291 450 l 1
 340 450 l 2
 453 450 505 443 546 421 c 0
 600 392 629 336 629 269 c 0
 629 254 628 240 625 224 c 0
 610 142 559 75 485 37 c 0
 431 9 372 0 259 0 c 2
 71 0 l 1
 208 739 l 1
267 319 m 1
 232 131 l 1
 287 131 l 2
 341 131 367 133 394 138 c 0
 444 149 479 182 487 227 c 0
 488 232 488 236 488 241 c 0
 488 274 465 299 426 309 c 0
 400 316 363 319 315 319 c 2
 267 319 l 1
931 739 m 1
 794 0 l 1
 657 0 l 1
 794 739 l 1
 931 739 l 1
EndSplineSet
EndChar

StartChar: afii10046
Encoding: 204 1068 140
GlifName: afii10046
Width: 610
Flags: MW
HStem: 0 131<232 259> 319 131<267 340 291 315> 719 20G<208 345 345 345>
VStem: 488 141<238.5 302.5>
LayerCount: 2
Fore
SplineSet
208 739 m 1
 345 739 l 1
 291 450 l 1
 340 450 l 2
 453 450 505 443 546 421 c 0
 600 392 629 336 629 269 c 0
 629 254 628 240 625 224 c 0
 610 142 559 75 485 37 c 0
 431 9 372 0 259 0 c 2
 71 0 l 1
 208 739 l 1
267 319 m 1
 232 131 l 1
 287 131 l 2
 341 131 367 133 394 138 c 0
 444 149 479 182 487 227 c 0
 488 232 488 236 488 241 c 0
 488 274 465 299 426 309 c 0
 400 316 363 319 315 319 c 2
 267 319 l 1
EndSplineSet
EndChar

StartChar: afii10047
Encoding: 205 1069 141
GlifName: afii10047
Width: 802
Flags: MW
HStem: -13 132<366.5 459.5 366.5 483> 307 131<337 677 313 700> 620 132<478.5 536>
VStem: 700 141<438 438>
LayerCount: 2
Fore
SplineSet
235 206 m 1
 284 143 331 119 402 119 c 0
 517 119 629 199 677 307 c 1
 313 307 l 1
 337 438 l 1
 700 438 l 1
 697 476 686 511 667 539 c 0
 632 592 574 620 498 620 c 0
 412 620 349 592 287 527 c 1
 134 527 l 1
 173 589 204 622 258 662 c 0
 338 720 432 752 525 752 c 0
 710 752 841 617 841 441 c 0
 841 419 839 396 835 372 c 0
 795 158 591 -13 375 -13 c 0
 223 -13 107 71 74 206 c 1
 235 206 l 1
EndSplineSet
EndChar

StartChar: afii10048
Encoding: 206 1070 142
GlifName: afii10048
Width: 1109
Flags: MW
HStem: -19 132<643 777.5 643 791> 0 21G<71 208 71 71> 310 131<290 352 265 379> 626 132<728.5 859.5> 719 20G<208 345 345 345>
VStem: 352 141<297 310 310 310> 1008 140<430.5 480.5>
LayerCount: 2
Fore
SplineSet
795 626 m 0xb6
 657 626 524 512 498 370 c 0
 495 353 493 337 493 321 c 0
 493 201 580 113 706 113 c 0
 849 113 976 222 1003 368 c 0
 1006 386 1008 403 1008 420 c 0
 1008 541 924 626 795 626 c 0xb6
828 758 m 0
 1017 758 1148 622 1148 442 c 0
 1148 419 1147 394 1142 370 c 0
 1101 151 900 -19 682 -19 c 0xb6
 487 -19 352 116 352 297 c 2
 352 310 l 1
 265 310 l 1
 208 0 l 1
 71 0 l 1
 208 739 l 1
 345 739 l 1x6e
 290 441 l 1
 379 441 l 1
 446 624 629 758 828 758 c 0
EndSplineSet
EndChar

StartChar: afii10049
Encoding: 207 1071 143
GlifName: afii10049
Width: 605
Flags: MW
HStem: 0 21G<22 180 22 22 397 534 397 397> 608 131<438.5 671 487 510>
VStem: 140 141<417.5 484.5>
LayerCount: 2
Fore
SplineSet
471 398 m 1
 510 608 l 1
 462 608 l 2
 415 608 391 605 368 600 c 0
 324 589 292 550 283 501 c 0
 282 494 281 488 281 481 c 0
 281 446 299 418 332 409 c 0
 354 402 387 398 429 398 c 2
 471 398 l 1
534 0 m 1
 397 0 l 1
 446 267 l 1
 390 267 l 1
 180 0 l 1
 22 0 l 1
 249 282 l 1
 235 286 224 291 213 298 c 0
 166 328 140 384 140 451 c 0
 140 468 142 486 145 504 c 0
 161 589 210 660 279 700 c 0
 329 729 383 739 487 739 c 2
 671 739 l 1
 534 0 l 1
EndSplineSet
Substitution2: "'locl' Localized Forms in Cyrillic lookup 11 subtable" uni042F.loclBGR
Substitution2: "'aalt' Access All Alternates lookup 0 subtable" uni042F.loclBGR
EndChar

StartChar: afii10065
Encoding: 208 1072 144
GlifName: afii10065
Width: 667
Flags: MW
HStem: -13 122<303.5 344> 0 21G<491 613 491 491> 445 122<357.5 446> 534 20G<594 716 716 716>
VStem: 73 136<198.5 224>
LayerCount: 2
Fore
SplineSet
716 554 m 1x18
 613 0 l 1
 491 0 l 1x58
 504 72 l 1
 440 11 383 -13 305 -13 c 0
 164 -13 73 79 73 214 c 0
 73 234 75 254 79 275 c 0
 110 444 251 567 415 567 c 0xa8
 495 567 545 541 580 480 c 1
 594 554 l 1
 716 554 l 1x18
404 445 m 0xa8
 311 445 231 372 212 272 c 0
 210 260 209 248 209 237 c 0
 209 160 261 109 346 109 c 0
 442 109 520 176 538 275 c 0
 540 288 542 300 542 312 c 0
 542 392 488 445 404 445 c 0xa8
EndSplineSet
EndChar

StartChar: afii10066
Encoding: 209 1073 145
GlifName: afii10066
Width: 651
Flags: MW
HStem: -13 122<309 392.5 309 408> 437 119<385.5 447>
VStem: 91 125<203.5 247 203.5 247> 543 135<315 342.5>
LayerCount: 2
Fore
SplineSet
407 437 m 0
 321 437 236 364 219 274 c 0
 217 263 216 252 216 242 c 0
 216 165 270 109 348 109 c 0
 437 109 523 181 540 273 c 0
 542 284 543 294 543 304 c 0
 543 381 487 437 407 437 c 0
433 556 m 0
 576 556 678 456 678 323 c 0
 678 307 677 290 674 273 c 0
 645 114 489 -13 327 -13 c 0
 229 -13 145 30 108 117 c 0
 96 145 91 180 91 217 c 0
 91 277 103 345 116 415 c 0
 157 638 278 761 489 777 c 2
 734 796 l 1
 711 677 l 1
 472 657 l 2
 327 645 246 577 222 451 c 1
 223 450 l 1
 253 493 338 556 433 556 c 0
EndSplineSet
Substitution2: "'ss02' Style Set 2 lookup 16 subtable" uni0431.serbian
Substitution2: "'locl' Localized Forms in Cyrillic lookup 11 subtable" uni0431.loclBGR
Substitution2: "'locl' Localized Forms in Cyrillic lookup 8 subtable" uni0431.serbian
Substitution2: "'salt' Stylistic Alternatives lookup 6 subtable" uni0431.serbian
AlternateSubs2: "'aalt' Access All Alternates lookup 1 subtable" uni0431.serbian uni0431.loclBGR
EndChar

StartChar: afii10067
Encoding: 210 1074 146
GlifName: afii10067
Width: 541
Flags: MW
HStem: 0 121<209 317> 237 97<231 343 249 343 343 352> 433 121<267 267 267 361>
VStem: 409 135<196.5 204> 436 130<390.5 465>
LayerCount: 2
Fore
SplineSet
267 433 m 1xe8
 249 334 l 1
 343 334 l 2
 399 334 429 354 435 384 c 0
 436 387 436 389 436 392 c 0
 436 417 411 433 361 433 c 2
 267 433 l 1xe8
231 237 m 1
 209 121 l 1
 330 121 l 2
 370 121 402 144 408 179 c 0
 409 183 409 186 409 190 c 0xf0
 409 218 387 237 352 237 c 2
 231 237 l 1
479 288 m 1
 512 275 544 247 544 200 c 0xf0
 544 193 543 186 542 179 c 0
 524 81 432 0 317 0 c 2
 54 0 l 1
 157 554 l 1
 385 554 l 2
 493 554 566 510 566 420 c 0xe8
 566 409 564 397 562 384 c 0
 554 340 516 302 479 288 c 1
EndSplineSet
Substitution2: "'locl' Localized Forms in Cyrillic lookup 11 subtable" uni0432.loclBGR
Substitution2: "'aalt' Access All Alternates lookup 0 subtable" uni0432.loclBGR
EndChar

StartChar: afii10068
Encoding: 211 1075 147
GlifName: afii10068
Width: 386
Flags: MW
HStem: 0 21G<54 187 54 54> 433 121<267 448 267 267>
LayerCount: 2
Fore
SplineSet
471 554 m 1
 448 433 l 1
 267 433 l 1
 187 0 l 1
 54 0 l 1
 157 554 l 1
 471 554 l 1
EndSplineSet
Substitution2: "'locl' Localized Forms in Cyrillic lookup 11 subtable" uni0433.loclBGR
Substitution2: "'locl' Localized Forms in Cyrillic lookup 10 subtable" uni0433.loclSRB
Substitution2: "'locl' Localized Forms in Cyrillic lookup 9 subtable" uni0433.loclSRB
AlternateSubs2: "'aalt' Access All Alternates lookup 1 subtable" uni0433.loclSRB uni0433.loclBGR
EndChar

StartChar: afii10069
Encoding: 212 1076 148
GlifName: afii10069
Width: 676
Flags: MW
HStem: 0 121<255 465 32 134> 534 20G<383 499 499 499>
VStem: 547 95<-132 -132>
LayerCount: 2
Fore
SplineSet
642 -132 m 1
 547 -132 l 1
 543 0 l 1
 134 0 l 1
 82 -132 l 1
 -14 -132 l 1
 32 121 l 1
 117 121 l 1
 383 554 l 1
 499 554 l 1
 603 121 l 1
 688 121 l 1
 642 -132 l 1
465 121 m 1
 407 371 l 1
 255 121 l 1
 465 121 l 1
EndSplineSet
Substitution2: "'locl' Localized Forms in Cyrillic lookup 11 subtable" uni0434.loclBGR
Substitution2: "'locl' Localized Forms in Cyrillic lookup 10 subtable" uni0434.loclSRB
Substitution2: "'locl' Localized Forms in Cyrillic lookup 9 subtable" uni0434.loclSRB
AlternateSubs2: "'aalt' Access All Alternates lookup 1 subtable" uni0434.loclSRB uni0434.loclBGR
EndChar

StartChar: afii10070
Encoding: 213 1077 149
GlifName: afii10070
Width: 634
Flags: MW
HStem: -13 122<305.5 371.5> 218 117<230 537 230 641 212 537> 445 122<364.5 445>
LayerCount: 2
Fore
SplineSet
641 218 m 1
 212 218 l 1
 216 151 266 109 345 109 c 0
 400 109 436 124 477 164 c 1
 622 164 l 1
 608 136 590 113 564 87 c 0
 493 19 417 -13 326 -13 c 0
 176 -13 74 86 74 222 c 0
 74 239 76 257 79 275 c 0
 109 438 262 567 425 567 c 0
 569 567 662 471 662 332 c 0
 662 312 660 291 656 269 c 0
 652 249 649 237 641 218 c 1
230 335 m 1
 537 335 l 1
 533 406 486 445 404 445 c 0
 325 445 264 407 230 335 c 1
EndSplineSet
EndChar

StartChar: afii10072
Encoding: 214 1078 150
GlifName: afii10072
Width: 819
Flags: MW
HStem: 0 21G<2 164 2 2 343 476 343 343 655 817 655 655> 534 20G<117 272 272 272 446 579 579 579 753 908 908 908>
LayerCount: 2
Fore
SplineSet
531 296 m 1
 753 554 l 1
 908 554 l 1
 658 279 l 1
 817 0 l 1
 655 0 l 1
 524 258 l 1
 476 0 l 1
 343 0 l 1
 391 258 l 1
 164 0 l 1
 2 0 l 1
 265 279 l 1
 117 554 l 1
 272 554 l 1
 398 296 l 1
 446 554 l 1
 579 554 l 1
 531 296 l 1
EndSplineSet
Substitution2: "'locl' Localized Forms in Cyrillic lookup 11 subtable" uni0436.loclBGR
Substitution2: "'aalt' Access All Alternates lookup 0 subtable" uni0436.loclBGR
EndChar

StartChar: afii10073
Encoding: 215 1079 151
GlifName: afii10073
Width: 478
Flags: MW
HStem: -13 122<234.5 276.5 234.5 291> 243 88<243 292> 447 121<299 334>
VStem: 55 133<151.5 156.5> 346 134<189.5 214.5> 371 131<400.5 464.5>
LayerCount: 2
Fore
SplineSet
243 243 m 1xf8
 259 331 l 1
 325 331 361 346 370 393 c 0
 371 396 371 399 371 402 c 0
 371 427 350 447 318 447 c 0
 280 447 252 423 240 393 c 1
 115 393 l 1
 140 492 234 568 340 568 c 0
 435 568 502 506 502 423 c 0xf4
 502 413 501 403 499 393 c 0
 491 349 452 303 401 292 c 1
 401 291 l 1
 448 279 480 237 480 192 c 0
 480 186 479 181 478 175 c 0
 459 71 349 -13 233 -13 c 0
 125 -13 55 61 55 153 c 0
 55 160 55 168 56 175 c 1
 188 175 l 1
 188 169 l 2
 188 134 214 109 255 109 c 0
 298 109 337 138 344 175 c 0
 345 181 346 187 346 192 c 0
 346 237 303 242 243 243 c 1xf8
EndSplineSet
Substitution2: "'locl' Localized Forms in Cyrillic lookup 11 subtable" uni0437.loclBGR
Substitution2: "'aalt' Access All Alternates lookup 0 subtable" uni0437.loclBGR
EndChar

StartChar: afii10074
Encoding: 216 1080 152
GlifName: afii10074
Width: 623
Flags: MW
HStem: 0 21G<54 189 54 54 437 569 437 437> 534 20G<157 289 289 289 537 672 672 672>
LayerCount: 2
Fore
SplineSet
537 554 m 1
 672 554 l 1
 569 0 l 1
 437 0 l 1
 505 366 l 1
 189 0 l 1
 54 0 l 1
 157 554 l 1
 289 554 l 1
 221 188 l 1
 537 554 l 1
EndSplineSet
Substitution2: "'locl' Localized Forms in Cyrillic lookup 10 subtable" uni0438.loclBGR
Substitution2: "'locl' Localized Forms in Cyrillic lookup 9 subtable" uni0438.loclBGR
Substitution2: "'locl' Localized Forms in Cyrillic lookup 11 subtable" uni0438.loclBGR
Substitution2: "'aalt' Access All Alternates lookup 0 subtable" uni0438.loclBGR
EndChar

StartChar: afii10075
Encoding: 217 1081 153
GlifName: afii10075
Width: 623
Flags: MW
HStem: 0 21G<54 189 54 54 437 569 437 437> 534 20G<157 289 289 289 537 672 672 672> 616 59<418.5 459.5 418.5 471.5> 726 20G<285 386 386 386 514 615 615 615>
VStem: 285 99<705 724.5 705 746> 514 101<746 746>
LayerCount: 2
Fore
SplineSet
285 746 m 1
 386 746 l 1
 384 737 384 728 384 721 c 0
 384 689 400 675 437 675 c 0
 482 675 505 696 514 746 c 1
 615 746 l 1
 583 656 517 616 426 616 c 0
 335 616 285 656 285 746 c 1
537 554 m 1
 672 554 l 1
 569 0 l 1
 437 0 l 1
 505 366 l 1
 189 0 l 1
 54 0 l 1
 157 554 l 1
 289 554 l 1
 221 188 l 1
 537 554 l 1
EndSplineSet
Substitution2: "'locl' Localized Forms in Cyrillic lookup 11 subtable" uni0439.loclBGR
Substitution2: "'aalt' Access All Alternates lookup 0 subtable" uni0439.loclBGR
EndChar

StartChar: afii10076
Encoding: 218 1082 154
GlifName: afii10076
Width: 554
Flags: MW
HStem: 0 21G<54 54 54 187 379 379 379 552> 534 20G<157 290 290 290 482 643 643 643>
LayerCount: 2
Fore
SplineSet
54 0 m 1
 157 554 l 1
 290 554 l 1
 242 299 l 1
 482 554 l 1
 643 554 l 1
 371 279 l 1
 552 0 l 1
 379 0 l 1
 234 255 l 1
 187 0 l 1
 54 0 l 1
EndSplineSet
Substitution2: "'locl' Localized Forms in Cyrillic lookup 11 subtable" uni043A.loclBGR
Substitution2: "'aalt' Access All Alternates lookup 0 subtable" uni043A.loclBGR
EndChar

StartChar: afii10077
Encoding: 219 1083 155
GlifName: afii10077
Width: 572
Flags: MW
HStem: 0 21G<3 145 3 3 427 569 427 427> 534 20G<337 441 441 441>
LayerCount: 2
Fore
SplineSet
569 0 m 1
 427 0 l 1
 354 368 l 1
 145 0 l 1
 3 0 l 1
 337 554 l 1
 441 554 l 1
 569 0 l 1
EndSplineSet
Substitution2: "'locl' Localized Forms in Cyrillic lookup 11 subtable" uni043B.loclBGR
Substitution2: "'aalt' Access All Alternates lookup 0 subtable" uni043B.loclBGR
EndChar

StartChar: afii10078
Encoding: 220 1084 156
GlifName: afii10078
Width: 746
Flags: MW
HStem: 0 21G<54 187 54 54 559 559 559 692> 534 20G<157 309 309 309 643 795 795 795>
LayerCount: 2
Fore
SplineSet
433 115 m 1
 355 115 l 1
 255 366 l 1
 187 0 l 1
 54 0 l 1
 157 554 l 1
 309 554 l 1
 423 270 l 1
 643 554 l 1
 795 554 l 1
 692 0 l 1
 559 0 l 1
 627 366 l 1
 433 115 l 1
EndSplineSet
EndChar

StartChar: afii10079
Encoding: 221 1085 157
GlifName: afii10079
Width: 618
Flags: MW
HStem: 0 21G<54 187 54 54 431 564 431 431> 219 121<250 472 228 494> 534 20G<157 290 290 290 534 667 667 667>
LayerCount: 2
Fore
SplineSet
564 0 m 1
 431 0 l 1
 472 219 l 1
 228 219 l 1
 187 0 l 1
 54 0 l 1
 157 554 l 1
 290 554 l 1
 250 340 l 1
 494 340 l 1
 534 554 l 1
 667 554 l 1
 564 0 l 1
EndSplineSet
EndChar

StartChar: afii10080
Encoding: 222 1086 158
GlifName: afii10080
Width: 645
Flags: MW
HStem: -13 122<303 386.5 303 402> 445 122<359 442>
VStem: 74 136<206.5 232.5> 537 136<320.5 348>
LayerCount: 2
Fore
SplineSet
430 567 m 0
 573 567 673 464 673 329 c 0
 673 312 671 294 668 276 c 0
 639 117 483 -13 321 -13 c 0
 176 -13 74 89 74 224 c 0
 74 241 76 258 79 276 c 0
 109 438 264 567 430 567 c 0
402 445 m 0
 316 445 230 369 213 277 c 0
 211 266 210 255 210 245 c 0
 210 168 264 109 342 109 c 0
 431 109 517 184 534 276 c 0
 536 287 537 298 537 309 c 0
 537 387 482 445 402 445 c 0
EndSplineSet
EndChar

StartChar: afii10081
Encoding: 223 1087 159
GlifName: afii10081
Width: 618
Flags: MW
HStem: 0 21G<54 187 54 54 431 564 431 431> 433 121<267 511 267 267>
LayerCount: 2
Fore
SplineSet
564 0 m 1
 431 0 l 1
 511 433 l 1
 267 433 l 1
 187 0 l 1
 54 0 l 1
 157 554 l 1
 667 554 l 1
 564 0 l 1
EndSplineSet
Substitution2: "'locl' Localized Forms in Cyrillic lookup 11 subtable" uni043F.loclBGR
Substitution2: "'locl' Localized Forms in Cyrillic lookup 10 subtable" uni043F.loclSRB
Substitution2: "'locl' Localized Forms in Cyrillic lookup 9 subtable" uni043F.loclSRB
AlternateSubs2: "'aalt' Access All Alternates lookup 1 subtable" uni043F.loclSRB uni043F.loclBGR
EndChar

StartChar: afii10082
Encoding: 224 1088 160
GlifName: afii10082
Width: 662
Flags: MW
HStem: -185 21G<20 20 20 153> -13 122<321.5 406.5 321.5 435> 445 122<425.5 461> 534 20G<157 279 279 279>
VStem: 555 137<331 351>
LayerCount: 2
Fore
SplineSet
20 -185 m 1xe8
 157 554 l 1
 279 554 l 1xd8
 267 489 l 1
 319 540 388 567 463 567 c 0
 603 567 692 475 692 341 c 0
 692 321 690 300 686 279 c 0
 655 111 515 -13 355 -13 c 0
 287 -13 240 7 197 52 c 1
 153 -185 l 1
 20 -185 l 1xe8
420 445 m 0xe8
 330 445 248 372 230 275 c 0
 228 264 227 253 227 242 c 0
 227 165 281 109 362 109 c 0
 451 109 534 182 551 276 c 0
 553 288 555 301 555 312 c 0
 555 390 502 445 420 445 c 0xe8
EndSplineSet
EndChar

StartChar: afii10083
Encoding: 225 1089 161
GlifName: afii10083
Width: 625
Flags: MW
HStem: -13 122<303 370.5 303 387> 445 122<355.5 432>
VStem: 74 136<203.5 232.5>
LayerCount: 2
Fore
SplineSet
483 182 m 1
 633 182 l 1
 564 58 452 -13 322 -13 c 0
 176 -13 74 88 74 224 c 0
 74 241 76 259 79 277 c 0
 109 440 261 567 425 567 c 0
 504 567 574 538 618 485 c 0
 647 451 658 423 667 369 c 1
 517 369 l 1
 500 421 462 445 402 445 c 0
 309 445 232 376 214 278 c 0
 212 266 210 254 210 243 c 0
 210 164 263 109 343 109 c 0
 398 109 441 131 483 182 c 1
EndSplineSet
EndChar

StartChar: afii10084
Encoding: 226 1090 162
GlifName: afii10084
Width: 427
Flags: MW
HStem: 0 21G<147 280 147 147> 433 121<121 227 98 512 360 489 360 360>
LayerCount: 2
Fore
SplineSet
489 433 m 1
 360 433 l 1
 280 0 l 1
 147 0 l 1
 227 433 l 1
 98 433 l 1
 121 554 l 1
 512 554 l 1
 489 433 l 1
EndSplineSet
Substitution2: "'locl' Localized Forms in Cyrillic lookup 11 subtable" uni0442.loclBGR
Substitution2: "'locl' Localized Forms in Cyrillic lookup 10 subtable" uni0442.loclSRB
Substitution2: "'locl' Localized Forms in Cyrillic lookup 9 subtable" uni0442.loclSRB
AlternateSubs2: "'aalt' Access All Alternates lookup 1 subtable" uni0442.loclSRB uni0442.loclBGR
EndChar

StartChar: afii10085
Encoding: 227 1091 163
GlifName: afii10085
Width: 568
Flags: MW
HStem: -185 21G<68 68 68 211> 534 20G<106 258 258 258 515 668 668 668>
LayerCount: 2
Fore
SplineSet
68 -185 m 1
 216 52 l 1
 106 554 l 1
 258 554 l 1
 314 195 l 1
 515 554 l 1
 668 554 l 1
 211 -185 l 1
 68 -185 l 1
EndSplineSet
EndChar

StartChar: afii10086
Encoding: 228 1092 164
GlifName: afii10086
Width: 779
Flags: MW
HStem: -185 21G<289 422 289 289> -10 123<321 344 344 454> 441 123<405 428 428 538> 719 20G<460 593 593 593>
VStem: 77 137<200 213.5> 667 138<339.5 353>
LayerCount: 2
Fore
SplineSet
460 739 m 1
 593 739 l 1
 561 564 l 1
 733 550 805 475 805 351 c 0
 805 328 802 303 797 276 c 0
 766 108 664 7 454 -10 c 1
 422 -185 l 1
 289 -185 l 1
 321 -10 l 1
 150 4 77 78 77 202 c 0
 77 225 79 250 84 276 c 0
 115 444 219 546 428 564 c 1
 460 739 l 1
405 441 m 1
 291 426 235 370 218 276 c 0
 215 261 214 247 214 234 c 0
 214 166 253 125 344 113 c 1
 405 441 l 1
477 113 m 1
 592 127 646 182 663 276 c 0
 666 291 667 306 667 319 c 0
 667 387 629 428 538 441 c 1
 477 113 l 1
EndSplineSet
EndChar

StartChar: afii10087
Encoding: 229 1093 165
GlifName: afii10087
Width: 558
Flags: MW
HStem: 0 21G<3 3 3 163 395 395 395 555> 534 20G<132 282 282 282 480 630 630 630>
LayerCount: 2
Fore
SplineSet
3 0 m 1
 252 286 l 1
 132 554 l 1
 282 554 l 1
 351 387 l 1
 480 554 l 1
 630 554 l 1
 411 286 l 1
 555 0 l 1
 395 0 l 1
 314 190 l 1
 163 0 l 1
 3 0 l 1
EndSplineSet
EndChar

StartChar: afii10088
Encoding: 230 1094 166
GlifName: afii10088
Width: 662
Flags: MW
HStem: 0 121<209 432 209 525> 534 20G<157 290 290 290 513 646 646 646>
VStem: 529 96<-132 -132>
LayerCount: 2
Fore
SplineSet
646 554 m 1
 565 121 l 1
 671 121 l 1
 625 -132 l 1
 529 -132 l 1
 525 0 l 1
 54 0 l 1
 157 554 l 1
 290 554 l 1
 209 121 l 1
 432 121 l 1
 513 554 l 1
 646 554 l 1
EndSplineSet
Substitution2: "'locl' Localized Forms in Cyrillic lookup 11 subtable" uni0446.loclBGR
Substitution2: "'aalt' Access All Alternates lookup 0 subtable" uni0446.loclBGR
EndChar

StartChar: afii10089
Encoding: 231 1095 167
GlifName: afii10089
Width: 534
Flags: MW
HStem: 0 21G<347 480 347 347> 186 121<208.5 333> 534 20G<138 271 271 271 450 583 583 583>
VStem: 102 135<339 345.5>
LayerCount: 2
Fore
SplineSet
583 554 m 1
 480 0 l 1
 347 0 l 1
 384 199 l 1
 330 189 299 186 259 186 c 0
 158 186 102 241 102 337 c 0
 102 354 104 373 108 393 c 2
 138 554 l 1
 271 554 l 1
 241 393 l 2
 239 380 237 369 237 359 c 0
 237 319 259 307 317 307 c 0
 349 307 377 310 406 316 c 1
 450 554 l 1
 583 554 l 1
EndSplineSet
EndChar

StartChar: afii10090
Encoding: 232 1096 168
GlifName: afii10090
Width: 833
Flags: MW
HStem: 0 121<209 372 505 668> 534 20G<157 290 290 290 453 586 586 586 749 882 882 882>
LayerCount: 2
Fore
SplineSet
779 0 m 1
 54 0 l 1
 157 554 l 1
 290 554 l 1
 209 121 l 1
 372 121 l 1
 453 554 l 1
 586 554 l 1
 505 121 l 1
 668 121 l 1
 749 554 l 1
 882 554 l 1
 779 0 l 1
EndSplineSet
Substitution2: "'locl' Localized Forms in Cyrillic lookup 11 subtable" uni0448.loclBGR
Substitution2: "'aalt' Access All Alternates lookup 0 subtable" uni0448.loclBGR
EndChar

StartChar: afii10091
Encoding: 233 1097 169
GlifName: afii10091
Width: 898
Flags: MW
HStem: 0 121<209 372 505 668> 534 20G<157 290 290 290 453 586 586 586 749 882 882 882>
VStem: 765 96<-132 -132>
LayerCount: 2
Fore
SplineSet
907 121 m 1
 861 -132 l 1
 765 -132 l 1
 761 0 l 1
 54 0 l 1
 157 554 l 1
 290 554 l 1
 209 121 l 1
 372 121 l 1
 453 554 l 1
 586 554 l 1
 505 121 l 1
 668 121 l 1
 749 554 l 1
 882 554 l 1
 801 121 l 1
 907 121 l 1
EndSplineSet
Substitution2: "'locl' Localized Forms in Cyrillic lookup 11 subtable" uni0449.loclBGR
Substitution2: "'aalt' Access All Alternates lookup 0 subtable" uni0449.loclBGR
EndChar

StartChar: afii10092
Encoding: 234 1098 170
GlifName: afii10092
Width: 620
Flags: MW
HStem: 0 121<317 406> 243 121<340 473 362 442> 433 121<121 242 98 398>
VStem: 499 136<192 257.5>
LayerCount: 2
Fore
SplineSet
473 364 m 2
 575 364 635 299 635 216 c 0
 635 205 634 193 632 182 c 0
 614 84 521 0 406 0 c 2
 162 0 l 1
 242 433 l 1
 98 433 l 1
 121 554 l 1
 398 554 l 1
 362 364 l 1
 473 364 l 2
340 243 m 1
 317 121 l 1
 419 121 l 2
 459 121 492 147 498 182 c 0
 499 186 499 190 499 194 c 0
 499 223 477 243 442 243 c 2
 340 243 l 1
EndSplineSet
Substitution2: "'locl' Localized Forms in Cyrillic lookup 11 subtable" uni044A.loclBGR
Substitution2: "'aalt' Access All Alternates lookup 0 subtable" uni044A.loclBGR
EndChar

StartChar: afii10093
Encoding: 235 1099 171
GlifName: afii10093
Width: 727
Flags: MW
HStem: 0 121<209 298> 243 121<232 365 254 334> 534 20G<157 290 290 290 643 776 776 776>
VStem: 391 136<192 257.5>
LayerCount: 2
Fore
SplineSet
232 243 m 1
 209 121 l 1
 311 121 l 2
 351 121 384 147 390 182 c 0
 391 186 391 190 391 194 c 0
 391 223 369 243 334 243 c 2
 232 243 l 1
365 364 m 2
 467 364 527 299 527 216 c 0
 527 205 526 193 524 182 c 0
 506 84 413 0 298 0 c 2
 54 0 l 1
 157 554 l 1
 290 554 l 1
 254 364 l 1
 365 364 l 2
540 0 m 1
 643 554 l 1
 776 554 l 1
 673 0 l 1
 540 0 l 1
EndSplineSet
Substitution2: "'locl' Localized Forms in Cyrillic lookup 11 subtable" uni044B.loclBGR
Substitution2: "'aalt' Access All Alternates lookup 0 subtable" uni044B.loclBGR
EndChar

StartChar: afii10094
Encoding: 236 1100 172
GlifName: afii10094
Width: 512
Flags: MW
HStem: 0 121<209 298> 243 121<232 365 254 334> 534 20G<157 290 290 290>
VStem: 391 136<192 257.5>
LayerCount: 2
Fore
SplineSet
232 243 m 1
 209 121 l 1
 311 121 l 2
 351 121 384 147 390 182 c 0
 391 186 391 190 391 194 c 0
 391 223 369 243 334 243 c 2
 232 243 l 1
365 364 m 2
 467 364 527 299 527 216 c 0
 527 205 526 193 524 182 c 0
 506 84 413 0 298 0 c 2
 54 0 l 1
 157 554 l 1
 290 554 l 1
 254 364 l 1
 365 364 l 2
EndSplineSet
Substitution2: "'locl' Localized Forms in Cyrillic lookup 11 subtable" uni044C.loclBGR
Substitution2: "'aalt' Access All Alternates lookup 0 subtable" uni044C.loclBGR
EndChar

StartChar: afii10095
Encoding: 237 1101 173
GlifName: afii10095
Width: 619
Flags: MW
HStem: -13 122<291.5 352 291.5 375> 220 117<276 489 255 511> 445 122<354 417.5>
LayerCount: 2
Fore
SplineSet
212 167 m 1
 236 127 267 109 316 109 c 0
 388 109 455 154 489 220 c 1
 255 220 l 1
 276 337 l 1
 511 337 l 1
 503 403 454 445 381 445 c 0
 327 445 285 426 250 384 c 1
 97 384 l 1
 161 491 272 567 404 567 c 0
 549 567 648 468 648 332 c 0
 648 314 646 296 642 277 c 0
 612 116 457 -13 293 -13 c 0
 168 -13 84 52 57 167 c 1
 212 167 l 1
EndSplineSet
EndChar

StartChar: afii10096
Encoding: 238 1102 174
GlifName: afii10096
Width: 871
Flags: MW
HStem: -17 122<523.5 608.5 523.5 624> 0 21G<54 187 54 54> 449 122<581 666> 534 20G<157 290 290 290>
VStem: 763 136<320.5 350>
LayerCount: 2
Fore
SplineSet
625 449 m 0xa8
 537 449 448 371 431 277 c 0
 429 266 428 255 428 244 c 0
 428 165 484 105 563 105 c 0
 654 105 743 182 760 276 c 0
 762 288 763 299 763 310 c 0
 763 390 707 449 625 449 c 0xa8
653 571 m 0
 798 571 899 466 899 329 c 0
 899 312 897 294 894 276 c 0
 864 115 706 -17 542 -17 c 0xa8
 397 -17 295 85 293 219 c 1
 228 219 l 1
 187 0 l 1
 54 0 l 1
 157 554 l 1
 290 554 l 1x58
 250 340 l 1
 316 340 l 1
 370 473 508 571 653 571 c 0
EndSplineSet
Substitution2: "'locl' Localized Forms in Cyrillic lookup 11 subtable" uni044E.loclBGR
Substitution2: "'aalt' Access All Alternates lookup 0 subtable" uni044E.loclBGR
EndChar

StartChar: afii10097
Encoding: 239 1103 175
GlifName: afii10097
Width: 513
Flags: MW
HStem: 0 21G<17 177 17 17 326 459 326 326> 433 121<299 562 333 406>
VStem: 104 136<309.5 363>
LayerCount: 2
Fore
SplineSet
384 313 m 1
 406 433 l 1
 319 433 l 2
 279 433 247 408 241 373 c 0
 240 369 240 365 240 361 c 0
 240 332 262 313 297 313 c 2
 384 313 l 1
195 204 m 1
 137 227 104 279 104 340 c 0
 104 351 105 362 107 373 c 0
 125 471 218 554 333 554 c 2
 562 554 l 1
 459 0 l 1
 326 0 l 1
 362 192 l 1
 330 192 l 1
 177 0 l 1
 17 0 l 1
 195 204 l 1
EndSplineSet
Substitution2: "'locl' Localized Forms in Cyrillic lookup 11 subtable" uni044F.loclBGR
Substitution2: "'aalt' Access All Alternates lookup 0 subtable" uni044F.loclBGR
EndChar

StartChar: afii61352
Encoding: 240 8470 176
GlifName: afii61352
Width: 1050
Flags: MW
HStem: 0 21G<71 71 71 208 471 471 471 627> 307 101<741 1068 760 1049> 444 89<921.5 954.5 921.5 963> 663 89<943.5 976.5> 719 20G<208 364 364 364 627 764 764 764>
VStem: 790 94<571 574.5> 1014 93<621.5 625>
LayerCount: 2
Fore
SplineSet
977 752 m 0xf6
 1053 752 1107 698 1107 626 c 0
 1107 617 1107 607 1105 598 c 0
 1089 513 1006 444 920 444 c 0
 844 444 790 498 790 570 c 0
 790 579 791 589 793 598 c 0
 809 683 891 752 977 752 c 0xf6
961 663 m 0
 926 663 892 634 885 598 c 0
 884 594 884 590 884 586 c 0
 884 556 906 533 937 533 c 0
 972 533 1006 562 1013 598 c 0
 1014 602 1014 606 1014 610 c 0
 1014 640 992 663 961 663 c 0
741 307 m 1
 760 408 l 1
 1068 408 l 1
 1049 307 l 1
 741 307 l 1
71 0 m 1
 208 739 l 1
 364 739 l 1
 533 233 l 1
 627 739 l 1
 764 739 l 1xee
 627 0 l 1
 471 0 l 1
 302 506 l 1
 208 0 l 1
 71 0 l 1
EndSplineSet
EndChar

StartChar: afii10071
Encoding: 241 1105 177
GlifName: afii10071
Width: 634
Flags: MW
HStem: -13 122<305.5 371.5> 218 117<230 537 230 641 212 537> 445 122<364.5 445> 630 133<270 427 294 403 504 613 294 480>
LayerCount: 2
Fore
SplineSet
641 218 m 1
 212 218 l 1
 216 151 266 109 345 109 c 0
 400 109 436 124 477 164 c 1
 622 164 l 1
 608 136 590 113 564 87 c 0
 493 19 417 -13 326 -13 c 0
 176 -13 74 86 74 222 c 0
 74 239 76 257 79 275 c 0
 109 438 262 567 425 567 c 0
 569 567 662 471 662 332 c 0
 662 312 660 291 656 269 c 0
 652 249 649 237 641 218 c 1
230 335 m 1
 537 335 l 1
 533 406 486 445 404 445 c 0
 325 445 264 407 230 335 c 1
270 630 m 1
 294 763 l 1
 427 763 l 1
 403 630 l 1
 270 630 l 1
480 630 m 1
 504 763 l 1
 637 763 l 1
 613 630 l 1
 480 630 l 1
EndSplineSet
EndChar

StartChar: afii10099
Encoding: 242 1106 178
GlifName: afii10099
Width: 675
Flags: MW
HStem: -185 121<388 413.5 388 420> 0 21G<132 265 132 132 623 623> 347 123<464 475.5> 554 117<137 235 116 256 137 368 389 508> 719 20G<269 402 402 402>
VStem: 532 141<248 319.5>
LayerCount: 2
Fore
SplineSet
623 0 m 2
 603 -106 474 -185 366 -185 c 1
 388 -64 l 1
 439 -64 483 -35 492 13 c 2
 524 185 l 2
 529 213 532 238 532 258 c 0
 532 322 505 347 446 347 c 0
 400 347 363 328 337 291 c 0
 320 267 309 236 299 183 c 2
 265 0 l 1
 132 0 l 1
 235 554 l 1
 116 554 l 1
 137 671 l 1
 256 671 l 1
 269 739 l 1
 402 739 l 1
 389 671 l 1
 529 671 l 1
 508 554 l 1
 368 554 l 1
 342 418 l 1
 389 454 435 470 493 470 c 0
 574 470 634 437 659 378 c 0
 668 356 673 334 673 305 c 0
 673 280 670 251 663 215 c 2
 623 0 l 2
EndSplineSet
EndChar

StartChar: afii10100
Encoding: 243 1107 179
GlifName: afii10100
Width: 386
Flags: MW
HStem: 0 21G<54 187 54 54> 433 121<267 448 267 267> 613 212
VStem: 234 286<691 733>
LayerCount: 2
Fore
SplineSet
271 613 m 1
 234 691 l 1
 483 825 l 1
 520 733 l 1
 271 613 l 1
471 554 m 1
 448 433 l 1
 267 433 l 1
 187 0 l 1
 54 0 l 1
 157 554 l 1
 471 554 l 1
EndSplineSet
EndChar

StartChar: afii10101
Encoding: 244 1108 180
GlifName: afii10101
Width: 619
Flags: MW
HStem: -13 122<305 365.5 305 382.5> 220 117<230 444 210 465> 445 122<363.5 427>
LayerCount: 2
Fore
SplineSet
467 167 m 1
 622 167 l 1
 553 52 445 -13 320 -13 c 0
 174 -13 72 88 72 224 c 0
 72 241 74 259 77 277 c 0
 107 440 259 567 423 567 c 0
 555 567 638 491 662 384 c 1
 509 384 l 1
 490 426 454 445 400 445 c 0
 327 445 262 403 230 337 c 1
 465 337 l 1
 444 220 l 1
 210 220 l 1
 220 154 269 109 341 109 c 0
 390 109 429 127 467 167 c 1
EndSplineSet
EndChar

StartChar: afii10102
Encoding: 245 1109 181
GlifName: afii10102
Width: 438
Flags: MW
HStem: -13 122<223.5 260.5 223.5 271.5> 445 122<286.5 315>
VStem: 105 136<333.5 392> 314 138<170.5 242.5>
LayerCount: 2
Fore
SplineSet
48 176 m 1
 182 176 l 1
 186 129 204 109 243 109 c 0
 278 109 307 132 313 163 c 0
 314 166 314 169 314 172 c 0
 314 186 308 198 296 206 c 0
 284 215 279 217 232 234 c 0
 143 266 105 303 105 364 c 0
 105 374 107 386 109 398 c 0
 127 493 220 567 324 567 c 0
 381 567 431 543 458 502 c 0
 472 481 478 461 478 434 c 0
 478 424 477 413 475 401 c 1
 345 401 l 1
 344 430 329 445 301 445 c 0
 272 445 247 425 242 398 c 0
 242 396 241 393 241 391 c 0
 241 378 248 368 261 361 c 0
 274 355 274 355 325 338 c 0
 415 309 452 273 452 212 c 0
 452 201 451 189 449 176 c 0
 429 70 327 -13 216 -13 c 0
 147 -13 88 18 62 67 c 0
 51 89 46 110 46 140 c 0
 46 151 47 163 48 176 c 1
EndSplineSet
EndChar

StartChar: afii10103
Encoding: 246 1110 182
GlifName: afii10103
Width: 241
Flags: MW
HStem: 0 21G<54 54 54 187> 534 20G<157 290 290 290> 614 125<168 324 191 301>
VStem: 54 270
LayerCount: 2
Fore
SplineSet
54 0 m 1
 157 554 l 1
 290 554 l 1
 187 0 l 1
 54 0 l 1
168 614 m 1
 191 739 l 1
 324 739 l 1
 301 614 l 1
 168 614 l 1
EndSplineSet
EndChar

StartChar: afii10104
Encoding: 247 1111 183
GlifName: afii10104
Width: 241
Flags: MW
HStem: 0 21G<54 54 54 187> 534 20G<157 290 290 290> 630 133<66 223 90 199 300 409 90 276>
LayerCount: 2
Fore
SplineSet
54 0 m 1
 157 554 l 1
 290 554 l 1
 187 0 l 1
 54 0 l 1
66 630 m 1
 90 763 l 1
 223 763 l 1
 199 630 l 1
 66 630 l 1
276 630 m 1
 300 763 l 1
 433 763 l 1
 409 630 l 1
 276 630 l 1
EndSplineSet
EndChar

StartChar: afii10105
Encoding: 248 1112 184
GlifName: afii10105
Width: 255
Flags: MW
HStem: -185 21G<-21 4.5> 534 20G<171 304 304 304> 614 125<182 338 205 315>
LayerCount: 2
Fore
SplineSet
171 554 m 1
 304 554 l 1
 208 37 l 2
 193 -46 165 -99 117 -137 c 0
 78 -168 30 -185 -21 -185 c 1
 3 -56 l 1
 55 -47 61 -38 75 40 c 2
 171 554 l 1
182 614 m 1
 205 739 l 1
 338 739 l 1
 315 614 l 1
 182 614 l 1
EndSplineSet
EndChar

StartChar: afii10106
Encoding: 249 1113 185
GlifName: afii10106
Width: 813
Flags: MW
HStem: 0 121<510 599> 243 121<533 666 555 635> 534 20G<458 591 591 591>
VStem: 692 136<192 257.5>
LayerCount: 2
Fore
SplineSet
666 364 m 2
 768 364 828 299 828 216 c 0
 828 205 827 193 825 182 c 0
 807 84 714 0 599 0 c 2
 355 0 l 1
 417 334 l 1
 154 0 l 1
 2 0 l 1
 458 554 l 1
 591 554 l 1
 555 364 l 1
 666 364 l 2
533 243 m 1
 510 121 l 1
 612 121 l 2
 652 121 685 147 691 182 c 0
 692 186 692 190 692 194 c 0
 692 223 670 243 635 243 c 2
 533 243 l 1
EndSplineSet
EndChar

StartChar: afii10107
Encoding: 250 1114 186
GlifName: afii10107
Width: 877
Flags: MW
HStem: 0 121<574 663> 219 121<250 460 228 482> 243 121<597 730 619 699> 534 20G<157 290 290 290 522 655 655 655>
VStem: 756 136<192 257.5>
LayerCount: 2
Fore
SplineSet
730 364 m 2xb8
 832 364 892 299 892 216 c 0
 892 205 891 193 889 182 c 0
 871 84 778 0 663 0 c 2
 419 0 l 1
 460 219 l 1
 228 219 l 1
 187 0 l 1
 54 0 l 1
 157 554 l 1
 290 554 l 1
 250 340 l 1
 482 340 l 1xd8
 522 554 l 1
 655 554 l 1
 619 364 l 1
 730 364 l 2xb8
597 243 m 1xb8
 574 121 l 1
 676 121 l 2
 716 121 749 147 755 182 c 0
 756 186 756 190 756 194 c 0
 756 223 734 243 699 243 c 2
 597 243 l 1xb8
EndSplineSet
EndChar

StartChar: afii10108
Encoding: 251 1115 187
GlifName: afii10108
Width: 675
Flags: MW
HStem: 0 21G<132 265 132 132 490 623 490 490> 347 123<464 475.5> 554 117<137 235 116 256 137 368 389 508> 719 20G<269 402 402 402>
VStem: 532 141<248 319.5>
LayerCount: 2
Fore
SplineSet
235 554 m 1
 116 554 l 1
 137 671 l 1
 256 671 l 1
 269 739 l 1
 402 739 l 1
 389 671 l 1
 529 671 l 1
 508 554 l 1
 368 554 l 1
 342 418 l 1
 389 454 435 470 493 470 c 0
 574 470 634 437 659 378 c 0
 668 356 673 334 673 305 c 0
 673 280 670 251 663 215 c 2
 623 0 l 1
 490 0 l 1
 524 185 l 2
 529 213 532 238 532 258 c 0
 532 322 505 347 446 347 c 0
 400 347 363 328 337 291 c 0
 320 267 309 236 299 183 c 2
 265 0 l 1
 132 0 l 1
 235 554 l 1
EndSplineSet
EndChar

StartChar: afii10109
Encoding: 252 1116 188
GlifName: afii10109
Width: 554
Flags: MW
HStem: 0 21G<54 54 54 187 379 379 379 552> 534 20G<157 290 290 290 482 643 643 643> 613 212
VStem: 328 286<691 733>
LayerCount: 2
Fore
SplineSet
365 613 m 1
 328 691 l 1
 577 825 l 1
 614 733 l 1
 365 613 l 1
54 0 m 1
 157 554 l 1
 290 554 l 1
 242 299 l 1
 482 554 l 1
 643 554 l 1
 371 279 l 1
 552 0 l 1
 379 0 l 1
 234 255 l 1
 187 0 l 1
 54 0 l 1
EndSplineSet
EndChar

StartChar: section
Encoding: 253 167 189
GlifName: section
Width: 560
Flags: MW
HStem: -157 122<258.5 304 258.5 318> 563 21G<470 596 470 470> 630 122<376 422.5>
VStem: 63 132<-2.5 29.5> 96 121<282 347.5> 190 129<541.5 573.5> 379 129<40 81.5> 453 128<286.5 344>
LayerCount: 2
Fore
SplineSet
596 563 m 1xe4
 470 563 l 1
 470 610 448 630 397 630 c 0
 355 630 326 612 320 581 c 0
 319 578 319 575 319 572 c 0
 319 549 336 529 368 512 c 2
 517 431 l 2
 557 409 581 368 581 320 c 0xe5
 581 311 580 301 578 292 c 0
 568 237 532 186 477 150 c 1
 499 123 508 97 508 66 c 0
 508 55 507 43 505 31 c 0
 485 -79 381 -157 255 -157 c 0
 177 -157 119 -128 87 -75 c 0
 70 -47 63 -21 63 16 c 0
 63 28 64 41 65 55 c 1
 199 55 l 1
 197 42 195 33 195 26 c 0xf2
 195 20 196 16 198 10 c 0
 208 -18 238 -35 279 -35 c 0
 329 -35 371 -8 378 30 c 0
 379 34 379 38 379 42 c 0
 379 64 364 77 318 103 c 2
 171 187 l 2
 121 215 96 255 96 309 c 0xea
 96 321 97 334 99 347 c 0
 110 409 141 452 204 493 c 1
 194 513 190 531 190 552 c 0
 190 562 192 574 194 586 c 0
 212 684 306 752 425 752 c 0
 539 752 597 694 597 583 c 0
 597 577 596 570 596 563 c 1xe4
403 339 m 2
 268 413 l 1
 236 391 222 375 218 354 c 0
 218 351 217 349 217 346 c 0xe9
 217 327 232 310 266 291 c 2
 403 215 l 1
 429 231 448 255 452 278 c 0
 453 281 453 285 453 288 c 0
 453 306 440 318 403 339 c 2
EndSplineSet
EndChar

StartChar: afii10110
Encoding: 254 1118 190
GlifName: afii10110
Width: 568
Flags: MW
HStem: -185 21G<68 68 68 211> 534 20G<106 258 258 258 515 668 668 668> 616 59<390.5 431.5 390.5 443.5> 726 20G<257 358 358 358 486 587 587 587>
VStem: 257 99<705 724.5 705 746> 486 101<746 746>
LayerCount: 2
Fore
SplineSet
257 746 m 1
 358 746 l 1
 356 737 356 728 356 721 c 0
 356 689 372 675 409 675 c 0
 454 675 477 696 486 746 c 1
 587 746 l 1
 555 656 489 616 398 616 c 0
 307 616 257 656 257 746 c 1
68 -185 m 1
 216 52 l 1
 106 554 l 1
 258 554 l 1
 314 195 l 1
 515 554 l 1
 668 554 l 1
 211 -185 l 1
 68 -185 l 1
EndSplineSet
EndChar

StartChar: afii10193
Encoding: 255 1119 191
GlifName: afii10193
Width: 618
Flags: MW
HStem: 0 121<209 236 382 453 209 564 382 382> 534 20G<157 290 290 290 534 667 667 667>
LayerCount: 2
Fore
SplineSet
157 554 m 1
 290 554 l 1
 209 121 l 1
 453 121 l 1
 534 554 l 1
 667 554 l 1
 564 0 l 1
 382 0 l 1
 329 -139 l 1
 237 -139 l 1
 236 0 l 1
 54 0 l 1
 157 554 l 1
EndSplineSet
EndChar

StartChar: Adieresis
Encoding: 257 196 192
GlifName: A_dieresis
Width: 740
Flags: MW
HStem: 0 21G<7 7 7 158 582 582 582 733> 191 131<350 508 350 538 275 508> 719 20G<452 560 560 560> 805 133<348 506 373 481 583 691 373 558>
LayerCount: 2
Fore
SplineSet
7 0 m 1
 452 739 l 1
 560 739 l 1
 733 0 l 1
 582 0 l 1
 538 191 l 1
 275 191 l 1
 158 0 l 1
 7 0 l 1
350 322 m 1
 508 322 l 1
 470 546 l 1
 350 322 l 1
348 805 m 1
 373 938 l 1
 506 938 l 1
 481 805 l 1
 348 805 l 1
558 805 m 1
 583 938 l 1
 716 938 l 1
 691 805 l 1
 558 805 l 1
EndSplineSet
EndChar

StartChar: Aacute
Encoding: 258 193 193
GlifName: A_acute
Width: 740
Flags: MW
HStem: 0 21G<7 7 7 158 582 582 582 733> 191 131<350 508 350 538 275 508> 719 20G<452 560 560 560>
LayerCount: 2
Fore
SplineSet
7 0 m 1
 452 739 l 1
 560 739 l 1
 733 0 l 1
 582 0 l 1
 538 191 l 1
 275 191 l 1
 158 0 l 1
 7 0 l 1
350 322 m 1
 508 322 l 1
 470 546 l 1
 350 322 l 1
461 788 m 1
 425 866 l 1
 673 1000 l 1
 710 908 l 1
 461 788 l 1
EndSplineSet
EndChar

StartChar: Agrave
Encoding: 259 192 194
GlifName: A_grave
Width: 740
Flags: MW
HStem: 0 21G<7 7 7 158 582 582 582 733> 191 131<350 508 350 538 275 508> 719 20G<452 560 560 560>
LayerCount: 2
Fore
SplineSet
7 0 m 1
 452 739 l 1
 560 739 l 1
 733 0 l 1
 582 0 l 1
 538 191 l 1
 275 191 l 1
 158 0 l 1
 7 0 l 1
350 322 m 1
 508 322 l 1
 470 546 l 1
 350 322 l 1
366 912 m 1
 439 1000 l 1
 637 867 l 1
 569 788 l 1
 366 912 l 1
EndSplineSet
EndChar

StartChar: Acircumflex
Encoding: 260 194 195
GlifName: A_circumflex
Width: 740
Flags: MW
HStem: 0 21G<7 7 7 158 582 582 582 733> 191 131<350 508 350 538 275 508> 719 20G<452 560 560 560>
LayerCount: 2
Fore
SplineSet
7 0 m 1
 452 739 l 1
 560 739 l 1
 733 0 l 1
 582 0 l 1
 538 191 l 1
 275 191 l 1
 158 0 l 1
 7 0 l 1
350 322 m 1
 508 322 l 1
 470 546 l 1
 350 322 l 1
320 805 m 1
 493 943 l 1
 600 943 l 1
 719 805 l 1
 574 805 l 1
 533 869 l 1
 467 805 l 1
 320 805 l 1
EndSplineSet
EndChar

StartChar: Atilde
Encoding: 261 195 196
GlifName: A_tilde
Width: 740
Flags: MW
HStem: 0 21G<7 7 7 158 582 582 582 733> 191 131<350 508 350 538 275 508> 719 20G<452 560 560 560> 811 102<584.5 597 577 609.5> 836 102<471 492.5>
LayerCount: 2
Fore
SplineSet
7 0 m 1xe0
 452 739 l 1
 560 739 l 1
 733 0 l 1
 582 0 l 1
 538 191 l 1
 275 191 l 1
 158 0 l 1
 7 0 l 1xe0
350 322 m 1
 508 322 l 1
 470 546 l 1
 350 322 l 1
409 811 m 1xf0
 370 891 l 1
 411 926 440 938 482 938 c 0xe8
 504 938 512 936 539 924 c 0
 558 916 570 913 584 913 c 0
 610 913 633 923 658 947 c 1
 697 866 l 1
 658 827 627 811 592 811 c 0xf0
 577 811 560 815 536 824 c 0
 511 834 501 836 484 836 c 0xe8
 458 836 451 834 409 811 c 1xf0
EndSplineSet
EndChar

StartChar: Aring
Encoding: 262 197 197
GlifName: A_ring
Width: 740
Flags: MW
HStem: 0 21G<7 7 7 158 582 582 582 733> 191 131<350 508 350 538 275 508> 719 20G<452 560 560 560> 785 67<519 538 519 543.5> 924 67<530.5 549.5>
VStem: 430 68<845 882> 571 68<888 930.5 895 930.5>
LayerCount: 2
Fore
SplineSet
7 0 m 1
 452 739 l 1
 560 739 l 1
 733 0 l 1
 582 0 l 1
 538 191 l 1
 275 191 l 1
 158 0 l 1
 7 0 l 1
350 322 m 1
 508 322 l 1
 470 546 l 1
 350 322 l 1
555 991 m 0
 605 991 639 954 639 907 c 0
 639 901 639 894 638 888 c 0
 627 831 572 785 515 785 c 0
 464 785 430 821 430 869 c 0
 430 875 431 882 432 888 c 0
 443 945 497 991 555 991 c 0
540 924 m 0
 521 924 503 908 499 888 c 0
 499 886 498 883 498 881 c 0
 498 864 510 852 528 852 c 0
 548 852 567 868 571 888 c 1
 571 895 l 2
 571 912 559 924 540 924 c 0
EndSplineSet
EndChar

StartChar: Edieresis
Encoding: 263 203 198
GlifName: E_dieresis
Width: 524
Flags: MW
HStem: 0 131<232 468> 303 131<288 513 264 537> 608 131<321 581 321 321> 805 133<247 405 272 380 482 590 272 457>
LayerCount: 2
Fore
SplineSet
71 0 m 1
 208 739 l 1
 605 739 l 1
 581 608 l 1
 321 608 l 1
 288 434 l 1
 537 434 l 1
 513 303 l 1
 264 303 l 1
 232 131 l 1
 492 131 l 1
 468 0 l 1
 71 0 l 1
247 805 m 1
 272 938 l 1
 405 938 l 1
 380 805 l 1
 247 805 l 1
457 805 m 1
 482 938 l 1
 615 938 l 1
 590 805 l 1
 457 805 l 1
EndSplineSet
EndChar

StartChar: Eacute
Encoding: 264 201 199
GlifName: E_acute
Width: 524
Flags: MW
HStem: 0 131<232 468> 303 131<288 513 264 537> 608 131<321 581 321 321>
LayerCount: 2
Fore
SplineSet
71 0 m 1
 208 739 l 1
 605 739 l 1
 581 608 l 1
 321 608 l 1
 288 434 l 1
 537 434 l 1
 513 303 l 1
 264 303 l 1
 232 131 l 1
 492 131 l 1
 468 0 l 1
 71 0 l 1
374 788 m 1
 338 866 l 1
 586 1000 l 1
 623 908 l 1
 374 788 l 1
EndSplineSet
EndChar

StartChar: Egrave
Encoding: 265 200 200
GlifName: E_grave
Width: 524
Flags: MW
HStem: 0 131<232 468> 303 131<288 513 264 537> 608 131<321 581 321 321>
LayerCount: 2
Fore
SplineSet
71 0 m 1
 208 739 l 1
 605 739 l 1
 581 608 l 1
 321 608 l 1
 288 434 l 1
 537 434 l 1
 513 303 l 1
 264 303 l 1
 232 131 l 1
 492 131 l 1
 468 0 l 1
 71 0 l 1
259 912 m 1
 332 1000 l 1
 530 867 l 1
 462 788 l 1
 259 912 l 1
EndSplineSet
EndChar

StartChar: Ecircumflex
Encoding: 266 202 201
GlifName: E_circumflex
Width: 524
Flags: MW
HStem: 0 131<232 468> 303 131<288 513 264 537> 608 131<321 581 321 321>
LayerCount: 2
Fore
SplineSet
71 0 m 1
 208 739 l 1
 605 739 l 1
 581 608 l 1
 321 608 l 1
 288 434 l 1
 537 434 l 1
 513 303 l 1
 264 303 l 1
 232 131 l 1
 492 131 l 1
 468 0 l 1
 71 0 l 1
216 805 m 1
 389 943 l 1
 496 943 l 1
 615 805 l 1
 470 805 l 1
 429 869 l 1
 363 805 l 1
 216 805 l 1
EndSplineSet
EndChar

StartChar: Idieresis
Encoding: 267 207 202
GlifName: I_dieresis
Width: 279
Flags: MW
HStem: 0 21G<71 71 71 208> 719 20G<208 345 345 345> 805 133<117 275 142 250 352 460 142 327>
LayerCount: 2
Fore
SplineSet
71 0 m 1
 208 739 l 1
 345 739 l 1
 208 0 l 1
 71 0 l 1
117 805 m 1
 142 938 l 1
 275 938 l 1
 250 805 l 1
 117 805 l 1
327 805 m 1
 352 938 l 1
 485 938 l 1
 460 805 l 1
 327 805 l 1
EndSplineSet
EndChar

StartChar: Iacute
Encoding: 268 205 203
GlifName: I_acute
Width: 279
Flags: MW
HStem: 0 21G<71 71 71 208> 719 20G<208 345 345 345>
LayerCount: 2
Fore
SplineSet
71 0 m 1
 208 739 l 1
 345 739 l 1
 208 0 l 1
 71 0 l 1
204 788 m 1
 168 866 l 1
 416 1000 l 1
 453 908 l 1
 204 788 l 1
EndSplineSet
EndChar

StartChar: Igrave
Encoding: 269 204 204
GlifName: I_grave
Width: 279
Flags: MW
HStem: 0 21G<71 71 71 208> 719 20G<208 345 345 345>
LayerCount: 2
Fore
SplineSet
71 0 m 1
 208 739 l 1
 345 739 l 1
 208 0 l 1
 71 0 l 1
176 912 m 1
 249 1000 l 1
 447 867 l 1
 379 788 l 1
 176 912 l 1
EndSplineSet
EndChar

StartChar: Icircumflex
Encoding: 270 206 205
GlifName: I_circumflex
Width: 279
Flags: MW
HStem: 0 21G<71 71 71 208> 719 20G<208 345 345 345>
LayerCount: 2
Fore
SplineSet
71 0 m 1
 208 739 l 1
 345 739 l 1
 208 0 l 1
 71 0 l 1
89 805 m 1
 262 943 l 1
 369 943 l 1
 488 805 l 1
 343 805 l 1
 302 869 l 1
 236 805 l 1
 89 805 l 1
EndSplineSet
EndChar

StartChar: Ntilde
Encoding: 271 209 206
GlifName: N_tilde
Width: 741
Flags: MW
HStem: 0 21G<71 71 71 208 517 517 517 670> 719 20G<208 364 364 364 670 807 807 807> 811 102<591.5 604 584 616.5> 836 102<478 499.5>
LayerCount: 2
Fore
SplineSet
71 0 m 1xc0
 208 739 l 1
 364 739 l 1
 570 201 l 1
 670 739 l 1
 807 739 l 1
 670 0 l 1
 517 0 l 1
 308 537 l 1
 208 0 l 1
 71 0 l 1xc0
416 811 m 1xe0
 377 891 l 1
 418 926 447 938 489 938 c 0xd0
 511 938 519 936 546 924 c 0
 565 916 577 913 591 913 c 0
 617 913 640 923 665 947 c 1
 704 866 l 1
 665 827 634 811 599 811 c 0xe0
 584 811 567 815 543 824 c 0
 518 834 508 836 491 836 c 0xd0
 465 836 458 834 416 811 c 1xe0
EndSplineSet
EndChar

StartChar: Odieresis
Encoding: 272 214 207
GlifName: O_dieresis
Width: 842
Flags: MW
HStem: -13 132<384 516 384 530.5> 620 132<465.5 596> 805 133<399 557 424 532 634 742 424 609>
VStem: 98 140<263.5 309.5> 741 140<429.5 478>
LayerCount: 2
Fore
SplineSet
566 752 m 0
 752 752 881 618 881 441 c 0
 881 418 879 394 875 370 c 0
 835 154 638 -13 423 -13 c 0
 231 -13 98 119 98 298 c 0
 98 321 99 345 104 369 c 0
 144 585 345 752 566 752 c 0
533 620 m 0
 398 620 269 509 243 370 c 0
 240 354 238 337 238 322 c 0
 238 205 322 119 446 119 c 0
 586 119 709 225 736 368 c 0
 739 386 741 403 741 419 c 0
 741 537 659 620 533 620 c 0
399 805 m 1
 424 938 l 1
 557 938 l 1
 532 805 l 1
 399 805 l 1
609 805 m 1
 634 938 l 1
 767 938 l 1
 742 805 l 1
 609 805 l 1
EndSplineSet
EndChar

StartChar: Oacute
Encoding: 273 211 208
GlifName: O_acute
Width: 842
Flags: MW
HStem: -13 132<384 516 384 530.5> 620 132<465.5 596>
VStem: 98 140<263.5 309.5> 741 140<429.5 478>
LayerCount: 2
Fore
SplineSet
566 752 m 0
 752 752 881 618 881 441 c 0
 881 418 879 394 875 370 c 0
 835 154 638 -13 423 -13 c 0
 231 -13 98 119 98 298 c 0
 98 321 99 345 104 369 c 0
 144 585 345 752 566 752 c 0
533 620 m 0
 398 620 269 509 243 370 c 0
 240 354 238 337 238 322 c 0
 238 205 322 119 446 119 c 0
 586 119 709 225 736 368 c 0
 739 386 741 403 741 419 c 0
 741 537 659 620 533 620 c 0
479 788 m 1
 443 866 l 1
 691 1000 l 1
 728 908 l 1
 479 788 l 1
EndSplineSet
EndChar

StartChar: Ograve
Encoding: 274 210 209
GlifName: O_grave
Width: 842
Flags: MW
HStem: -13 132<384 516 384 530.5> 620 132<465.5 596>
VStem: 98 140<263.5 309.5> 741 140<429.5 478>
LayerCount: 2
Fore
SplineSet
566 752 m 0
 752 752 881 618 881 441 c 0
 881 418 879 394 875 370 c 0
 835 154 638 -13 423 -13 c 0
 231 -13 98 119 98 298 c 0
 98 321 99 345 104 369 c 0
 144 585 345 752 566 752 c 0
533 620 m 0
 398 620 269 509 243 370 c 0
 240 354 238 337 238 322 c 0
 238 205 322 119 446 119 c 0
 586 119 709 225 736 368 c 0
 739 386 741 403 741 419 c 0
 741 537 659 620 533 620 c 0
451 912 m 1
 524 1000 l 1
 722 867 l 1
 654 788 l 1
 451 912 l 1
EndSplineSet
EndChar

StartChar: Ocircumflex
Encoding: 275 212 210
GlifName: O_circumflex
Width: 842
Flags: MW
HStem: -13 132<384 516 384 530.5> 620 132<465.5 596>
VStem: 98 140<263.5 309.5> 741 140<429.5 478>
LayerCount: 2
Fore
SplineSet
566 752 m 0
 752 752 881 618 881 441 c 0
 881 418 879 394 875 370 c 0
 835 154 638 -13 423 -13 c 0
 231 -13 98 119 98 298 c 0
 98 321 99 345 104 369 c 0
 144 585 345 752 566 752 c 0
533 620 m 0
 398 620 269 509 243 370 c 0
 240 354 238 337 238 322 c 0
 238 205 322 119 446 119 c 0
 586 119 709 225 736 368 c 0
 739 386 741 403 741 419 c 0
 741 537 659 620 533 620 c 0
371 805 m 1
 544 943 l 1
 651 943 l 1
 770 805 l 1
 625 805 l 1
 584 869 l 1
 518 805 l 1
 371 805 l 1
EndSplineSet
EndChar

StartChar: Otilde
Encoding: 276 213 211
GlifName: O_tilde
Width: 842
Flags: MW
HStem: -13 132<384 516 384 530.5> 620 132<465.5 596> 811 102<635.5 648 628 660.5> 836 102<522 543.5>
VStem: 98 140<263.5 309.5> 741 140<429.5 478>
LayerCount: 2
Fore
SplineSet
566 752 m 0xcc
 752 752 881 618 881 441 c 0
 881 418 879 394 875 370 c 0
 835 154 638 -13 423 -13 c 0
 231 -13 98 119 98 298 c 0
 98 321 99 345 104 369 c 0
 144 585 345 752 566 752 c 0xcc
533 620 m 0
 398 620 269 509 243 370 c 0
 240 354 238 337 238 322 c 0
 238 205 322 119 446 119 c 0
 586 119 709 225 736 368 c 0
 739 386 741 403 741 419 c 0
 741 537 659 620 533 620 c 0
460 811 m 1xec
 421 891 l 1
 462 926 491 938 533 938 c 0xdc
 555 938 563 936 590 924 c 0
 609 916 621 913 635 913 c 0
 661 913 684 923 709 947 c 1
 748 866 l 1
 709 827 678 811 643 811 c 0xec
 628 811 611 815 587 824 c 0
 562 834 552 836 535 836 c 0xdc
 509 836 502 834 460 811 c 1xec
EndSplineSet
EndChar

StartChar: Scaron
Encoding: 277 352 212
GlifName: S_caron
Width: 524
Flags: MW
HStem: -13 132<256 313.5 256 326.5> 620 132<352.5 396>
VStem: 56 144<170 178> 143 141<465.5 534> 403 141<226.5 288.5> 439 144<554 599.5>
LayerCount: 2
Fore
SplineSet
58 211 m 1xe8
 201 211 l 1
 201 206 200 201 200 196 c 0xe8
 200 144 228 119 284 119 c 0
 343 119 391 156 401 209 c 0
 402 216 403 223 403 230 c 0xd8
 403 253 395 271 378 286 c 0
 359 302 354 305 263 341 c 0
 184 372 143 429 143 502 c 0
 143 515 143 528 146 542 c 0
 168 659 280 752 400 752 c 0
 471 752 532 721 562 668 c 0
 577 642 583 616 583 583 c 0
 583 570 582 557 580 542 c 1
 438 542 l 1
 438 547 439 552 439 556 c 0
 439 597 417 620 375 620 c 0
 330 620 293 589 285 545 c 0
 284 540 284 536 284 532 c 0xd4
 284 510 294 491 315 477 c 0
 323 471 326 470 389 445 c 0
 457 417 478 405 502 378 c 0
 530 348 544 310 544 267 c 0
 544 253 543 239 540 224 c 0
 515 90 393 -13 260 -13 c 0
 179 -13 111 22 79 81 c 0
 63 110 56 137 56 172 c 0
 56 184 56 197 58 211 c 1xe8
237 943 m 1
 384 943 l 1
 426 879 l 1
 491 943 l 1
 636 943 l 1
 465 805 l 1
 358 805 l 1
 237 943 l 1
EndSplineSet
EndChar

StartChar: Udieresis
Encoding: 278 220 213
GlifName: U_dieresis
Width: 641
Flags: MW
HStem: -13 132<322 357> 719 20G<208 345 345 345 570 707 707 707> 805 133<298 456 323 431 533 641 323 508>
VStem: 112 138<168 215>
LayerCount: 2
Fore
SplineSet
208 739 m 1
 345 739 l 1
 258 271 l 2
 253 243 250 223 250 207 c 0
 250 192 252 181 257 169 c 0
 270 138 302 119 342 119 c 0
 383 119 421 138 446 169 c 0
 464 193 473 216 483 271 c 2
 570 739 l 1
 707 739 l 1
 620 271 l 2
 604 182 577 126 531 78 c 0
 475 21 396 -13 318 -13 c 0
 229 -13 156 31 127 102 c 0
 117 127 112 152 112 184 c 0
 112 209 115 238 121 271 c 2
 208 739 l 1
298 805 m 1
 323 938 l 1
 456 938 l 1
 431 805 l 1
 298 805 l 1
508 805 m 1
 533 938 l 1
 666 938 l 1
 641 805 l 1
 508 805 l 1
EndSplineSet
EndChar

StartChar: Uacute
Encoding: 279 218 214
GlifName: U_acute
Width: 641
Flags: MW
HStem: -13 132<322 357> 719 20G<208 345 345 345 570 707 707 707>
VStem: 112 138<168 215>
LayerCount: 2
Fore
SplineSet
208 739 m 1
 345 739 l 1
 258 271 l 2
 253 243 250 223 250 207 c 0
 250 192 252 181 257 169 c 0
 270 138 302 119 342 119 c 0
 383 119 421 138 446 169 c 0
 464 193 473 216 483 271 c 2
 570 739 l 1
 707 739 l 1
 620 271 l 2
 604 182 577 126 531 78 c 0
 475 21 396 -13 318 -13 c 0
 229 -13 156 31 127 102 c 0
 117 127 112 152 112 184 c 0
 112 209 115 238 121 271 c 2
 208 739 l 1
419 788 m 1
 383 866 l 1
 631 1000 l 1
 668 908 l 1
 419 788 l 1
EndSplineSet
EndChar

StartChar: Ugrave
Encoding: 280 217 215
GlifName: U_grave
Width: 641
Flags: MW
HStem: -13 132<322 357> 719 20G<208 345 345 345 570 707 707 707>
VStem: 112 138<168 215>
LayerCount: 2
Fore
SplineSet
208 739 m 1
 345 739 l 1
 258 271 l 2
 253 243 250 223 250 207 c 0
 250 192 252 181 257 169 c 0
 270 138 302 119 342 119 c 0
 383 119 421 138 446 169 c 0
 464 193 473 216 483 271 c 2
 570 739 l 1
 707 739 l 1
 620 271 l 2
 604 182 577 126 531 78 c 0
 475 21 396 -13 318 -13 c 0
 229 -13 156 31 127 102 c 0
 117 127 112 152 112 184 c 0
 112 209 115 238 121 271 c 2
 208 739 l 1
310 912 m 1
 383 1000 l 1
 581 867 l 1
 513 788 l 1
 310 912 l 1
EndSplineSet
EndChar

StartChar: Ucircumflex
Encoding: 281 219 216
GlifName: U_circumflex
Width: 641
Flags: MW
HStem: -13 132<322 357> 719 20G<208 345 345 345 570 707 707 707>
VStem: 112 138<168 215>
LayerCount: 2
Fore
SplineSet
208 739 m 1
 345 739 l 1
 258 271 l 2
 253 243 250 223 250 207 c 0
 250 192 252 181 257 169 c 0
 270 138 302 119 342 119 c 0
 383 119 421 138 446 169 c 0
 464 193 473 216 483 271 c 2
 570 739 l 1
 707 739 l 1
 620 271 l 2
 604 182 577 126 531 78 c 0
 475 21 396 -13 318 -13 c 0
 229 -13 156 31 127 102 c 0
 117 127 112 152 112 184 c 0
 112 209 115 238 121 271 c 2
 208 739 l 1
270 805 m 1
 443 943 l 1
 550 943 l 1
 669 805 l 1
 524 805 l 1
 483 869 l 1
 417 805 l 1
 270 805 l 1
EndSplineSet
EndChar

StartChar: Yacute
Encoding: 282 221 217
GlifName: Y_acute
Width: 637
Flags: MW
HStem: 0 21G<250 250 250 387> 719 20G<144 292 292 292 619 767 767 767>
LayerCount: 2
Fore
SplineSet
250 0 m 1
 301 273 l 1
 144 739 l 1
 292 739 l 1
 393 399 l 1
 619 739 l 1
 767 739 l 1
 438 273 l 1
 387 0 l 1
 250 0 l 1
417 788 m 1
 381 866 l 1
 629 1000 l 1
 666 908 l 1
 417 788 l 1
EndSplineSet
EndChar

StartChar: Zcaron
Encoding: 283 381 218
GlifName: Z_caron
Width: 522
Flags: MW
HStem: 0 131<219 492> 608 131<182 423 158 610>
LayerCount: 2
Fore
SplineSet
51 116 m 1
 423 608 l 1
 158 608 l 1
 182 739 l 1
 610 739 l 1
 587 616 l 1
 219 131 l 1
 516 131 l 1
 492 0 l 1
 30 0 l 1
 51 116 l 1
237 943 m 1
 384 943 l 1
 426 879 l 1
 491 943 l 1
 636 943 l 1
 465 805 l 1
 358 805 l 1
 237 943 l 1
EndSplineSet
EndChar

StartChar: Ydieresis
Encoding: 284 376 219
GlifName: Y_dieresis
Width: 637
Flags: MW
HStem: 0 21G<250 250 250 387> 719 20G<144 292 292 292 619 767 767 767> 805 133<296 454 321 429 531 639 321 506>
LayerCount: 2
Fore
SplineSet
250 0 m 1
 301 273 l 1
 144 739 l 1
 292 739 l 1
 393 399 l 1
 619 739 l 1
 767 739 l 1
 438 273 l 1
 387 0 l 1
 250 0 l 1
296 805 m 1
 321 938 l 1
 454 938 l 1
 429 805 l 1
 296 805 l 1
506 805 m 1
 531 938 l 1
 664 938 l 1
 639 805 l 1
 506 805 l 1
EndSplineSet
EndChar

StartChar: adieresis
Encoding: 285 228 220
GlifName: adieresis
Width: 667
Flags: MW
HStem: -13 122<303.5 344> 0 21G<491 613 491 491> 445 122<357.5 446> 534 20G<594 716 716 716> 630 133<289 446 313 422 523 632 313 499>
VStem: 73 136<198.5 224>
LayerCount: 2
Fore
SplineSet
716 554 m 1x1c
 613 0 l 1
 491 0 l 1x5c
 504 72 l 1
 440 11 383 -13 305 -13 c 0
 164 -13 73 79 73 214 c 0
 73 234 75 254 79 275 c 0
 110 444 251 567 415 567 c 0xac
 495 567 545 541 580 480 c 1
 594 554 l 1
 716 554 l 1x1c
404 445 m 0xac
 311 445 231 372 212 272 c 0
 210 260 209 248 209 237 c 0
 209 160 261 109 346 109 c 0
 442 109 520 176 538 275 c 0
 540 288 542 300 542 312 c 0
 542 392 488 445 404 445 c 0xac
289 630 m 1
 313 763 l 1
 446 763 l 1
 422 630 l 1
 289 630 l 1
499 630 m 1
 523 763 l 1
 656 763 l 1
 632 630 l 1
 499 630 l 1
EndSplineSet
EndChar

StartChar: aacute
Encoding: 286 225 221
GlifName: aacute
Width: 667
Flags: MW
HStem: -13 122<303.5 344> 0 21G<491 613 491 491> 445 122<357.5 446> 534 20G<594 716 716 716>
VStem: 73 136<198.5 224>
LayerCount: 2
Fore
SplineSet
716 554 m 1x18
 613 0 l 1
 491 0 l 1x58
 504 72 l 1
 440 11 383 -13 305 -13 c 0
 164 -13 73 79 73 214 c 0
 73 234 75 254 79 275 c 0
 110 444 251 567 415 567 c 0xa8
 495 567 545 541 580 480 c 1
 594 554 l 1
 716 554 l 1x18
404 445 m 0xa8
 311 445 231 372 212 272 c 0
 210 260 209 248 209 237 c 0
 209 160 261 109 346 109 c 0
 442 109 520 176 538 275 c 0
 540 288 542 300 542 312 c 0
 542 392 488 445 404 445 c 0xa8
407 613 m 1
 370 691 l 1
 619 825 l 1
 656 733 l 1
 407 613 l 1
EndSplineSet
EndChar

StartChar: agrave
Encoding: 287 224 222
GlifName: agrave
Width: 667
Flags: MW
HStem: -13 122<303.5 344> 0 21G<491 613 491 491> 445 122<357.5 446> 534 20G<594 716 716 716>
VStem: 73 136<198.5 224>
LayerCount: 2
Fore
SplineSet
716 554 m 1x18
 613 0 l 1
 491 0 l 1x58
 504 72 l 1
 440 11 383 -13 305 -13 c 0
 164 -13 73 79 73 214 c 0
 73 234 75 254 79 275 c 0
 110 444 251 567 415 567 c 0xa8
 495 567 545 541 580 480 c 1
 594 554 l 1
 716 554 l 1x18
404 445 m 0xa8
 311 445 231 372 212 272 c 0
 210 260 209 248 209 237 c 0
 209 160 261 109 346 109 c 0
 442 109 520 176 538 275 c 0
 540 288 542 300 542 312 c 0
 542 392 488 445 404 445 c 0xa8
305 737 m 1
 378 825 l 1
 575 692 l 1
 508 613 l 1
 305 737 l 1
EndSplineSet
EndChar

StartChar: acircumflex
Encoding: 288 226 223
GlifName: acircumflex
Width: 667
Flags: MW
HStem: -13 122<303.5 344> 0 21G<491 613 491 491> 445 122<357.5 446> 534 20G<594 716 716 716>
VStem: 73 136<198.5 224>
LayerCount: 2
Fore
SplineSet
716 554 m 1x18
 613 0 l 1
 491 0 l 1x58
 504 72 l 1
 440 11 383 -13 305 -13 c 0
 164 -13 73 79 73 214 c 0
 73 234 75 254 79 275 c 0
 110 444 251 567 415 567 c 0xa8
 495 567 545 541 580 480 c 1
 594 554 l 1
 716 554 l 1x18
404 445 m 0xa8
 311 445 231 372 212 272 c 0
 210 260 209 248 209 237 c 0
 209 160 261 109 346 109 c 0
 442 109 520 176 538 275 c 0
 540 288 542 300 542 312 c 0
 542 392 488 445 404 445 c 0xa8
261 630 m 1
 433 768 l 1
 540 768 l 1
 660 630 l 1
 515 630 l 1
 474 694 l 1
 408 630 l 1
 261 630 l 1
EndSplineSet
EndChar

StartChar: atilde
Encoding: 289 227 224
GlifName: atilde
Width: 667
Flags: MW
HStem: -13 122<303.5 344> 0 21G<491 613 491 491> 445 122<357.5 446> 534 20G<594 716 716 716> 636 102<525.5 538 518 550.5> 661 102<412 433 401 433.5>
VStem: 73 136<198.5 224>
LayerCount: 2
Fore
SplineSet
716 554 m 1x12
 613 0 l 1
 491 0 l 1x52
 504 72 l 1
 440 11 383 -13 305 -13 c 0
 164 -13 73 79 73 214 c 0
 73 234 75 254 79 275 c 0
 110 444 251 567 415 567 c 0xa2
 495 567 545 541 580 480 c 1
 594 554 l 1
 716 554 l 1x12
404 445 m 0xa2
 311 445 231 372 212 272 c 0
 210 260 209 248 209 237 c 0
 209 160 261 109 346 109 c 0
 442 109 520 176 538 275 c 0
 540 288 542 300 542 312 c 0
 542 392 488 445 404 445 c 0xa2
350 636 m 1x0a
 311 716 l 1
 352 751 380 763 422 763 c 0x06
 444 763 453 761 480 749 c 0
 499 741 511 738 525 738 c 0
 551 738 573 748 598 772 c 1
 637 691 l 1
 598 652 568 636 533 636 c 0x0a
 518 636 500 640 476 649 c 0
 451 659 442 661 425 661 c 0x06
 399 661 392 659 350 636 c 1x0a
EndSplineSet
EndChar

StartChar: aring
Encoding: 290 229 225
GlifName: aring
Width: 667
Flags: MW
HStem: -13 122<303.5 344> 0 21G<491 613 491 491> 445 122<357.5 446> 534 20G<594 716 716 716> 610 67<460 479 460 485.5> 749 67<472.5 491.5>
VStem: 73 136<198.5 224> 371 69<670 706> 513 68<719 755.5>
LayerCount: 2
Fore
SplineSet
716 554 m 1x1f80
 613 0 l 1
 491 0 l 1x5f80
 504 72 l 1
 440 11 383 -13 305 -13 c 0
 164 -13 73 79 73 214 c 0
 73 234 75 254 79 275 c 0
 110 444 251 567 415 567 c 0xaf80
 495 567 545 541 580 480 c 1
 594 554 l 1
 716 554 l 1x1f80
404 445 m 0xaf80
 311 445 231 372 212 272 c 0
 210 260 209 248 209 237 c 0
 209 160 261 109 346 109 c 0
 442 109 520 176 538 275 c 0
 540 288 542 300 542 312 c 0
 542 392 488 445 404 445 c 0xaf80
496 816 m 0
 546 816 581 779 581 732 c 0
 581 726 580 719 579 713 c 0
 568 656 514 610 457 610 c 0
 406 610 371 646 371 694 c 0
 371 700 372 707 373 713 c 0
 384 770 438 816 496 816 c 0
482 749 m 0
 463 749 444 733 440 713 c 1
 440 706 l 2
 440 689 451 677 469 677 c 0
 489 677 508 693 512 713 c 0
 512 715 513 718 513 720 c 0
 513 737 501 749 482 749 c 0
EndSplineSet
EndChar

StartChar: edieresis
Encoding: 291 235 226
GlifName: edieresis
Width: 634
Flags: MW
HStem: -13 122<305.5 371.5> 218 117<230 537 230 641 212 537> 445 122<364.5 445> 630 133<270 427 294 403 504 613 294 480>
LayerCount: 2
Fore
SplineSet
641 218 m 1
 212 218 l 1
 216 151 266 109 345 109 c 0
 400 109 436 124 477 164 c 1
 622 164 l 1
 608 136 590 113 564 87 c 0
 493 19 417 -13 326 -13 c 0
 176 -13 74 86 74 222 c 0
 74 239 76 257 79 275 c 0
 109 438 262 567 425 567 c 0
 569 567 662 471 662 332 c 0
 662 312 660 291 656 269 c 0
 652 249 649 237 641 218 c 1
230 335 m 1
 537 335 l 1
 533 406 486 445 404 445 c 0
 325 445 264 407 230 335 c 1
270 630 m 1
 294 763 l 1
 427 763 l 1
 403 630 l 1
 270 630 l 1
480 630 m 1
 504 763 l 1
 637 763 l 1
 613 630 l 1
 480 630 l 1
EndSplineSet
EndChar

StartChar: eacute
Encoding: 292 233 227
GlifName: eacute
Width: 634
Flags: MW
HStem: -13 122<305.5 371.5> 218 117<230 537 230 641 212 537> 445 122<364.5 445>
LayerCount: 2
Fore
SplineSet
641 218 m 1
 212 218 l 1
 216 151 266 109 345 109 c 0
 400 109 436 124 477 164 c 1
 622 164 l 1
 608 136 590 113 564 87 c 0
 493 19 417 -13 326 -13 c 0
 176 -13 74 86 74 222 c 0
 74 239 76 257 79 275 c 0
 109 438 262 567 425 567 c 0
 569 567 662 471 662 332 c 0
 662 312 660 291 656 269 c 0
 652 249 649 237 641 218 c 1
230 335 m 1
 537 335 l 1
 533 406 486 445 404 445 c 0
 325 445 264 407 230 335 c 1
390 613 m 1
 353 691 l 1
 602 825 l 1
 639 733 l 1
 390 613 l 1
EndSplineSet
EndChar

StartChar: egrave
Encoding: 293 232 228
GlifName: egrave
Width: 634
Flags: MW
HStem: -13 122<305.5 371.5> 218 117<230 537 230 641 212 537> 445 122<364.5 445>
LayerCount: 2
Fore
SplineSet
641 218 m 1
 212 218 l 1
 216 151 266 109 345 109 c 0
 400 109 436 124 477 164 c 1
 622 164 l 1
 608 136 590 113 564 87 c 0
 493 19 417 -13 326 -13 c 0
 176 -13 74 86 74 222 c 0
 74 239 76 257 79 275 c 0
 109 438 262 567 425 567 c 0
 569 567 662 471 662 332 c 0
 662 312 660 291 656 269 c 0
 652 249 649 237 641 218 c 1
230 335 m 1
 537 335 l 1
 533 406 486 445 404 445 c 0
 325 445 264 407 230 335 c 1
278 737 m 1
 351 825 l 1
 548 692 l 1
 481 613 l 1
 278 737 l 1
EndSplineSet
EndChar

StartChar: ecircumflex
Encoding: 294 234 229
GlifName: ecircumflex
Width: 634
Flags: MW
HStem: -13 122<305.5 371.5> 218 117<230 537 230 641 212 537> 445 122<364.5 445>
LayerCount: 2
Fore
SplineSet
641 218 m 1
 212 218 l 1
 216 151 266 109 345 109 c 0
 400 109 436 124 477 164 c 1
 622 164 l 1
 608 136 590 113 564 87 c 0
 493 19 417 -13 326 -13 c 0
 176 -13 74 86 74 222 c 0
 74 239 76 257 79 275 c 0
 109 438 262 567 425 567 c 0
 569 567 662 471 662 332 c 0
 662 312 660 291 656 269 c 0
 652 249 649 237 641 218 c 1
230 335 m 1
 537 335 l 1
 533 406 486 445 404 445 c 0
 325 445 264 407 230 335 c 1
241 630 m 1
 413 768 l 1
 520 768 l 1
 640 630 l 1
 495 630 l 1
 454 694 l 1
 388 630 l 1
 241 630 l 1
EndSplineSet
EndChar

StartChar: idieresis
Encoding: 295 239 230
GlifName: idieresis
Width: 241
Flags: MW
HStem: 0 21G<54 54 54 187> 534 20G<157 290 290 290> 630 133<66 223 90 199 300 409 90 276>
LayerCount: 2
Fore
SplineSet
54 0 m 1
 157 554 l 1
 290 554 l 1
 187 0 l 1
 54 0 l 1
66 630 m 1
 90 763 l 1
 223 763 l 1
 199 630 l 1
 66 630 l 1
276 630 m 1
 300 763 l 1
 433 763 l 1
 409 630 l 1
 276 630 l 1
EndSplineSet
EndChar

StartChar: iacute
Encoding: 296 237 231
GlifName: iacute
Width: 241
Flags: MW
HStem: 0 21G<54 54 54 187> 534 20G<157 290 290 290>
LayerCount: 2
Fore
SplineSet
54 0 m 1
 157 554 l 1
 290 554 l 1
 187 0 l 1
 54 0 l 1
149 613 m 1
 112 691 l 1
 361 825 l 1
 398 733 l 1
 149 613 l 1
EndSplineSet
EndChar

StartChar: igrave
Encoding: 297 236 232
GlifName: igrave
Width: 241
Flags: MW
HStem: 0 21G<54 54 54 187> 534 20G<157 290 290 290>
LayerCount: 2
Fore
SplineSet
54 0 m 1
 157 554 l 1
 290 554 l 1
 187 0 l 1
 54 0 l 1
121 737 m 1
 194 825 l 1
 391 692 l 1
 324 613 l 1
 121 737 l 1
EndSplineSet
EndChar

StartChar: icircumflex
Encoding: 298 238 233
GlifName: icircumflex
Width: 241
Flags: MW
HStem: 0 21G<54 54 54 187> 534 20G<157 290 290 290>
LayerCount: 2
Fore
SplineSet
54 0 m 1
 157 554 l 1
 290 554 l 1
 187 0 l 1
 54 0 l 1
38 630 m 1
 210 768 l 1
 317 768 l 1
 437 630 l 1
 292 630 l 1
 251 694 l 1
 185 630 l 1
 38 630 l 1
EndSplineSet
EndChar

StartChar: ntilde
Encoding: 299 241 234
GlifName: ntilde
Width: 598
Flags: MW
HStem: 0 21G<54 54 54 187 413 413 413 546> 445 122<367 477.5> 534 20G<157 280 280 280> 636 102<472.5 485 465 497.5> 661 102<359 380 348 380.5>
VStem: 473 141<347 422>
LayerCount: 2
Fore
SplineSet
54 0 m 1xc4
 157 554 l 1
 280 554 l 1xa4
 270 501 l 1
 328 549 374 567 438 567 c 0
 517 567 573 537 599 482 c 0
 609 460 614 437 614 407 c 0
 614 379 610 344 601 297 c 2
 546 0 l 1
 413 0 l 1
 463 271 l 2
 470 308 473 336 473 358 c 0
 473 382 469 400 461 412 c 0
 447 434 423 445 389 445 c 0
 345 445 306 426 280 391 c 0
 259 365 248 333 235 261 c 2
 187 0 l 1
 54 0 l 1xc4
297 636 m 1x94
 258 716 l 1
 299 751 327 763 369 763 c 0x8c
 391 763 400 761 427 749 c 0
 446 741 458 738 472 738 c 0
 498 738 520 748 545 772 c 1
 584 691 l 1
 545 652 515 636 480 636 c 0x94
 465 636 447 640 423 649 c 0
 398 659 389 661 372 661 c 0x8c
 346 661 339 659 297 636 c 1x94
EndSplineSet
EndChar

StartChar: odieresis
Encoding: 300 246 235
GlifName: odieresis
Width: 645
Flags: MW
HStem: -13 122<303 386.5 303 402> 445 122<359 442> 630 133<268 425 292 401 502 611 292 478>
VStem: 74 136<206.5 232.5> 537 136<320.5 348>
LayerCount: 2
Fore
SplineSet
430 567 m 0
 573 567 673 464 673 329 c 0
 673 312 671 294 668 276 c 0
 639 117 483 -13 321 -13 c 0
 176 -13 74 89 74 224 c 0
 74 241 76 258 79 276 c 0
 109 438 264 567 430 567 c 0
402 445 m 0
 316 445 230 369 213 277 c 0
 211 266 210 255 210 245 c 0
 210 168 264 109 342 109 c 0
 431 109 517 184 534 276 c 0
 536 287 537 298 537 309 c 0
 537 387 482 445 402 445 c 0
268 630 m 1
 292 763 l 1
 425 763 l 1
 401 630 l 1
 268 630 l 1
478 630 m 1
 502 763 l 1
 635 763 l 1
 611 630 l 1
 478 630 l 1
EndSplineSet
EndChar

StartChar: oacute
Encoding: 301 243 236
GlifName: oacute
Width: 645
Flags: MW
HStem: -13 122<303 386.5 303 402> 445 122<359 442>
VStem: 74 136<206.5 232.5> 537 136<320.5 348>
LayerCount: 2
Fore
SplineSet
430 567 m 0
 573 567 673 464 673 329 c 0
 673 312 671 294 668 276 c 0
 639 117 483 -13 321 -13 c 0
 176 -13 74 89 74 224 c 0
 74 241 76 258 79 276 c 0
 109 438 264 567 430 567 c 0
402 445 m 0
 316 445 230 369 213 277 c 0
 211 266 210 255 210 245 c 0
 210 168 264 109 342 109 c 0
 431 109 517 184 534 276 c 0
 536 287 537 298 537 309 c 0
 537 387 482 445 402 445 c 0
382 613 m 1
 345 691 l 1
 594 825 l 1
 631 733 l 1
 382 613 l 1
EndSplineSet
EndChar

StartChar: ograve
Encoding: 302 242 237
GlifName: ograve
Width: 645
Flags: MW
HStem: -13 122<303 386.5 303 402> 445 122<359 442>
VStem: 74 136<206.5 232.5> 537 136<320.5 348>
LayerCount: 2
Fore
SplineSet
430 567 m 0
 573 567 673 464 673 329 c 0
 673 312 671 294 668 276 c 0
 639 117 483 -13 321 -13 c 0
 176 -13 74 89 74 224 c 0
 74 241 76 258 79 276 c 0
 109 438 264 567 430 567 c 0
402 445 m 0
 316 445 230 369 213 277 c 0
 211 266 210 255 210 245 c 0
 210 168 264 109 342 109 c 0
 431 109 517 184 534 276 c 0
 536 287 537 298 537 309 c 0
 537 387 482 445 402 445 c 0
287 737 m 1
 360 825 l 1
 557 692 l 1
 490 613 l 1
 287 737 l 1
EndSplineSet
EndChar

StartChar: ocircumflex
Encoding: 303 244 238
GlifName: ocircumflex
Width: 645
Flags: MW
HStem: -13 122<303 386.5 303 402> 445 122<359 442>
VStem: 74 136<206.5 232.5> 537 136<320.5 348>
LayerCount: 2
Fore
SplineSet
430 567 m 0
 573 567 673 464 673 329 c 0
 673 312 671 294 668 276 c 0
 639 117 483 -13 321 -13 c 0
 176 -13 74 89 74 224 c 0
 74 241 76 258 79 276 c 0
 109 438 264 567 430 567 c 0
402 445 m 0
 316 445 230 369 213 277 c 0
 211 266 210 255 210 245 c 0
 210 168 264 109 342 109 c 0
 431 109 517 184 534 276 c 0
 536 287 537 298 537 309 c 0
 537 387 482 445 402 445 c 0
240 630 m 1
 412 768 l 1
 519 768 l 1
 639 630 l 1
 494 630 l 1
 453 694 l 1
 387 630 l 1
 240 630 l 1
EndSplineSet
EndChar

StartChar: otilde
Encoding: 304 245 239
GlifName: otilde
Width: 645
Flags: MW
HStem: -13 122<303 386.5 303 402> 445 122<359 442> 636 102<507.5 520 500 532.5> 661 102<394 415 383 415.5>
VStem: 74 136<206.5 232.5> 537 136<320.5 348>
LayerCount: 2
Fore
SplineSet
430 567 m 0xcc
 573 567 673 464 673 329 c 0
 673 312 671 294 668 276 c 0
 639 117 483 -13 321 -13 c 0
 176 -13 74 89 74 224 c 0
 74 241 76 258 79 276 c 0
 109 438 264 567 430 567 c 0xcc
402 445 m 0
 316 445 230 369 213 277 c 0
 211 266 210 255 210 245 c 0
 210 168 264 109 342 109 c 0
 431 109 517 184 534 276 c 0
 536 287 537 298 537 309 c 0
 537 387 482 445 402 445 c 0
332 636 m 1xec
 293 716 l 1
 334 751 362 763 404 763 c 0xdc
 426 763 435 761 462 749 c 0
 481 741 493 738 507 738 c 0
 533 738 555 748 580 772 c 1
 619 691 l 1
 580 652 550 636 515 636 c 0xec
 500 636 482 640 458 649 c 0
 433 659 424 661 407 661 c 0xdc
 381 661 374 659 332 636 c 1xec
EndSplineSet
EndChar

StartChar: scaron
Encoding: 305 353 240
GlifName: scaron
Width: 438
Flags: MW
HStem: -13 122<223.5 260.5 223.5 271.5> 445 122<286.5 315>
VStem: 105 136<333.5 392> 314 138<170.5 242.5>
LayerCount: 2
Fore
SplineSet
48 176 m 1
 182 176 l 1
 186 129 204 109 243 109 c 0
 278 109 307 132 313 163 c 0
 314 166 314 169 314 172 c 0
 314 186 308 198 296 206 c 0
 284 215 279 217 232 234 c 0
 143 266 105 303 105 364 c 0
 105 374 107 386 109 398 c 0
 127 493 220 567 324 567 c 0
 381 567 431 543 458 502 c 0
 472 481 478 461 478 434 c 0
 478 424 477 413 475 401 c 1
 345 401 l 1
 344 430 329 445 301 445 c 0
 272 445 247 425 242 398 c 0
 242 396 241 393 241 391 c 0
 241 378 248 368 261 361 c 0
 274 355 274 355 325 338 c 0
 415 309 452 273 452 212 c 0
 452 201 451 189 449 176 c 0
 429 70 327 -13 216 -13 c 0
 147 -13 88 18 62 67 c 0
 51 89 46 110 46 140 c 0
 46 151 47 163 48 176 c 1
162 768 m 1
 309 768 l 1
 351 704 l 1
 416 768 l 1
 561 768 l 1
 391 630 l 1
 284 630 l 1
 162 768 l 1
EndSplineSet
EndChar

StartChar: udieresis
Encoding: 306 252 241
GlifName: udieresis
Width: 599
Flags: MW
HStem: -13 122<293 294.5> 0 21G<422 545 422 422> 534 20G<155 288 288 288 515 648 648 648> 630 133<244 401 268 377 478 587 268 454>
VStem: 88 139<140 207>
LayerCount: 2
Fore
SplineSet
648 554 m 1xb8
 545 0 l 1
 422 0 l 1x78
 432 53 l 1
 372 4 328 -13 261 -13 c 0
 186 -13 131 18 105 74 c 0
 94 98 88 124 88 156 c 0
 88 183 92 215 100 257 c 2
 155 554 l 1
 288 554 l 1
 237 283 l 2
 230 246 227 218 227 196 c 0
 227 172 231 155 239 142 c 0
 254 120 276 109 310 109 c 0
 356 109 398 128 423 162 c 0
 442 187 453 222 466 293 c 2
 515 554 l 1
 648 554 l 1xb8
244 630 m 1
 268 763 l 1
 401 763 l 1
 377 630 l 1
 244 630 l 1
454 630 m 1
 478 763 l 1
 611 763 l 1
 587 630 l 1
 454 630 l 1
EndSplineSet
EndChar

StartChar: uacute
Encoding: 307 250 242
GlifName: uacute
Width: 599
Flags: MW
HStem: -13 122<293 294.5> 0 21G<422 545 422 422> 534 20G<155 288 288 288 515 648 648 648>
VStem: 88 139<140 207>
LayerCount: 2
Fore
SplineSet
648 554 m 1xb0
 545 0 l 1
 422 0 l 1x70
 432 53 l 1
 372 4 328 -13 261 -13 c 0
 186 -13 131 18 105 74 c 0
 94 98 88 124 88 156 c 0
 88 183 92 215 100 257 c 2
 155 554 l 1
 288 554 l 1
 237 283 l 2
 230 246 227 218 227 196 c 0
 227 172 231 155 239 142 c 0
 254 120 276 109 310 109 c 0
 356 109 398 128 423 162 c 0
 442 187 453 222 466 293 c 2
 515 554 l 1
 648 554 l 1xb0
365 613 m 1
 328 691 l 1
 577 825 l 1
 614 733 l 1
 365 613 l 1
EndSplineSet
EndChar

StartChar: ugrave
Encoding: 308 249 243
GlifName: ugrave
Width: 599
Flags: MW
HStem: -13 122<293 294.5> 0 21G<422 545 422 422> 534 20G<155 288 288 288 515 648 648 648>
VStem: 88 139<140 207>
LayerCount: 2
Fore
SplineSet
648 554 m 1xb0
 545 0 l 1
 422 0 l 1x70
 432 53 l 1
 372 4 328 -13 261 -13 c 0
 186 -13 131 18 105 74 c 0
 94 98 88 124 88 156 c 0
 88 183 92 215 100 257 c 2
 155 554 l 1
 288 554 l 1
 237 283 l 2
 230 246 227 218 227 196 c 0
 227 172 231 155 239 142 c 0
 254 120 276 109 310 109 c 0
 356 109 398 128 423 162 c 0
 442 187 453 222 466 293 c 2
 515 554 l 1
 648 554 l 1xb0
256 737 m 1
 329 825 l 1
 526 692 l 1
 459 613 l 1
 256 737 l 1
EndSplineSet
EndChar

StartChar: ucircumflex
Encoding: 309 251 244
GlifName: ucircumflex
Width: 599
Flags: MW
HStem: -13 122<293 294.5> 0 21G<422 545 422 422> 534 20G<155 288 288 288 515 648 648 648>
VStem: 88 139<140 207>
LayerCount: 2
Fore
SplineSet
648 554 m 1xb0
 545 0 l 1
 422 0 l 1x70
 432 53 l 1
 372 4 328 -13 261 -13 c 0
 186 -13 131 18 105 74 c 0
 94 98 88 124 88 156 c 0
 88 183 92 215 100 257 c 2
 155 554 l 1
 288 554 l 1
 237 283 l 2
 230 246 227 218 227 196 c 0
 227 172 231 155 239 142 c 0
 254 120 276 109 310 109 c 0
 356 109 398 128 423 162 c 0
 442 187 453 222 466 293 c 2
 515 554 l 1
 648 554 l 1xb0
216 630 m 1
 388 768 l 1
 495 768 l 1
 615 630 l 1
 470 630 l 1
 429 694 l 1
 363 630 l 1
 216 630 l 1
EndSplineSet
EndChar

StartChar: yacute
Encoding: 310 253 245
GlifName: yacute
Width: 568
Flags: MW
HStem: -185 21G<68 68 68 211> 534 20G<106 258 258 258 515 668 668 668>
LayerCount: 2
Fore
SplineSet
68 -185 m 1
 216 52 l 1
 106 554 l 1
 258 554 l 1
 314 195 l 1
 515 554 l 1
 668 554 l 1
 211 -185 l 1
 68 -185 l 1
316 613 m 1
 279 691 l 1
 528 825 l 1
 565 733 l 1
 316 613 l 1
EndSplineSet
EndChar

StartChar: zcaron
Encoding: 311 382 246
GlifName: zcaron
Width: 482
Flags: MW
HStem: 0 119<30 52 52 52 211 452> 435 119<161 355 139 536 514 514>
LayerCount: 2
Fore
SplineSet
30 0 m 1
 52 119 l 1
 355 435 l 1
 139 435 l 1
 161 554 l 1
 536 554 l 1
 514 435 l 1
 211 119 l 1
 474 119 l 1
 452 0 l 1
 30 0 l 1
190 768 m 1
 337 768 l 1
 379 704 l 1
 444 768 l 1
 589 768 l 1
 419 630 l 1
 312 630 l 1
 190 768 l 1
EndSplineSet
EndChar

StartChar: ydieresis
Encoding: 312 255 247
GlifName: ydieresis
Width: 568
Flags: MW
HStem: -185 21G<68 68 68 211> 534 20G<106 258 258 258 515 668 668 668> 630 133<230 387 254 363 464 573 254 440>
LayerCount: 2
Fore
SplineSet
68 -185 m 1
 216 52 l 1
 106 554 l 1
 258 554 l 1
 314 195 l 1
 515 554 l 1
 668 554 l 1
 211 -185 l 1
 68 -185 l 1
230 630 m 1
 254 763 l 1
 387 763 l 1
 363 630 l 1
 230 630 l 1
440 630 m 1
 464 763 l 1
 597 763 l 1
 573 630 l 1
 440 630 l 1
EndSplineSet
EndChar

StartChar: AE
Encoding: 313 198 248
GlifName: A_E_
Width: 884
Flags: MW
HStem: 0 131<634 828> 191 131<418 508 314 533> 303 131<690 873 666 897> 608 131<723 941 723 723>
LayerCount: 2
Fore
SplineSet
2 0 m 1xd0
 626 739 l 1
 965 739 l 1
 941 608 l 1
 723 608 l 1
 690 434 l 1
 897 434 l 1
 873 303 l 1
 666 303 l 1xb0
 634 131 l 1
 852 131 l 1
 828 0 l 1
 473 0 l 1
 508 191 l 1
 314 191 l 1
 167 0 l 1
 2 0 l 1xd0
418 322 m 1xd0
 533 322 l 1
 568 513 l 1
 418 322 l 1xd0
EndSplineSet
EndChar

StartChar: OE
Encoding: 314 338 249
GlifName: O_E_
Width: 1058
Flags: MW
HStem: -13 132<376.5 460.5> 0 131<808 1002> 303 131<864 1047 840 1071> 608 131<897 1115 897 897> 620 132<456.5 584>
VStem: 97 140<258.5 304>
LayerCount: 2
Fore
SplineSet
1002 0 m 1x74
 645 0 l 1x74
 660 81 l 1
 594 20 507 -13 414 -13 c 0
 223 -13 97 114 97 292 c 0
 97 316 99 342 104 368 c 0
 145 588 335 752 550 752 c 0xac
 651 752 723 721 767 657 c 1
 782 739 l 1
 1139 739 l 1
 1115 608 l 1
 897 608 l 1
 864 434 l 1
 1071 434 l 1
 1047 303 l 1
 840 303 l 1
 808 131 l 1
 1026 131 l 1
 1002 0 l 1x74
522 620 m 0xac
 391 620 269 509 242 366 c 0
 239 349 237 332 237 316 c 0
 237 201 317 119 436 119 c 0
 573 119 691 224 718 368 c 0
 722 387 724 406 724 424 c 0
 724 542 646 620 522 620 c 0xac
EndSplineSet
EndChar

StartChar: Oslash
Encoding: 315 216 250
GlifName: O_slash
Width: 845
Flags: MW
HStem: -13 132<432 518 432 533> 620 132<467.5 553>
VStem: 98 140<302.5 312.5> 744 140<430.5 439.5>
LayerCount: 2
Fore
SplineSet
882 743 m 1
 804 653 l 1
 858 595 884 522 884 442 c 0
 884 419 883 395 878 370 c 0
 838 154 641 -13 425 -13 c 0
 365 -13 312 -1 263 23 c 1
 187 -65 l 1
 103 0 l 1
 178 87 l 1
 126 143 98 219 98 301 c 0
 98 324 101 347 105 370 c 0
 144 582 346 752 561 752 c 0
 619 752 668 741 720 717 c 1
 799 809 l 1
 882 743 l 1
707 540 m 1
 360 135 l 1
 390 124 416 119 448 119 c 0
 588 119 713 226 739 368 c 0
 742 385 744 401 744 417 c 0
 744 462 731 504 707 540 c 1
276 201 m 1
 623 605 l 1
 596 615 569 620 537 620 c 0
 398 620 269 510 243 370 c 0
 240 355 238 340 238 325 c 0
 238 280 251 237 276 201 c 1
EndSplineSet
EndChar

StartChar: Ccedilla
Encoding: 316 199 251
GlifName: C_cedilla
Width: 802
Flags: MW
HStem: -251 55<367.5 387 367.5 394.5> -106 55<385.5 431> -13 132<403 403 403 417> 620 132<496 577>
VStem: 99 139<267 315> 282 62<-191 -166> 424 59<-135 -131>
LayerCount: 2
Fore
SplineSet
403 -13 m 1
 378 -58 l 1
 392 -53 400 -51 409 -51 c 0
 453 -51 483 -86 483 -132 c 0
 483 -138 482 -145 481 -152 c 0
 470 -211 423 -251 366 -251 c 0
 315 -251 282 -216 282 -166 c 1
 344 -166 l 1
 348 -186 359 -196 376 -196 c 0
 398 -196 418 -176 423 -150 c 0
 424 -147 424 -144 424 -141 c 0
 424 -121 411 -106 393 -106 c 0
 378 -106 367 -113 350 -133 c 1
 302 -107 l 1
 354 -7 l 1
 202 17 99 147 99 304 c 0
 99 326 101 349 105 372 c 0
 144 581 346 752 555 752 c 0
 648 752 732 720 790 662 c 0
 830 622 847 589 864 527 c 1
 711 527 l 1
 673 592 620 620 534 620 c 0
 458 620 390 592 335 539 c 0
 289 495 254 431 243 371 c 0
 240 355 238 340 238 325 c 0
 238 209 323 119 444 119 c 0
 515 119 570 143 643 206 c 1
 804 206 l 1
 719 69 573 -13 417 -13 c 2
 403 -13 l 1
EndSplineSet
EndChar

StartChar: Eth
Encoding: 317 208 252
GlifName: E_th
Width: 744
Flags: MW
HStem: 0 131<277 288> 315 107<98 174 78 194 331 465> 608 131<366 393 366 366>
VStem: 643 141<439.5 458>
LayerCount: 2
Fore
SplineSet
116 0 m 1
 174 315 l 1
 78 315 l 1
 98 422 l 1
 194 422 l 1
 253 739 l 1
 422 739 l 2
 543 739 628 720 681 681 c 0
 749 632 784 551 784 453 c 0
 784 426 781 398 776 368 c 0
 748 215 656 93 528 38 c 0
 464 11 397 0 288 0 c 2
 116 0 l 1
277 131 m 1
 307 131 l 2
 389 131 448 141 494 164 c 0
 566 200 622 279 638 368 c 0
 641 387 643 405 643 422 c 0
 643 494 614 552 560 581 c 0
 522 601 478 608 393 608 c 2
 366 608 l 1
 331 422 l 1
 485 422 l 1
 465 315 l 1
 311 315 l 1
 277 131 l 1
EndSplineSet
EndChar

StartChar: Lslash
Encoding: 318 321 253
GlifName: L_slash
Width: 484
Flags: MW
HStem: 0 128<274 476> 719 20G<250 387 387 387>
LayerCount: 2
Fore
SplineSet
113 0 m 1
 164 273 l 1
 53 194 l 1
 76 318 l 1
 187 397 l 1
 250 739 l 1
 387 739 l 1
 338 474 l 1
 500 584 l 1
 477 461 l 1
 315 350 l 1
 274 128 l 1
 500 128 l 1
 476 0 l 1
 113 0 l 1
EndSplineSet
EndChar

StartChar: Thorn
Encoding: 319 222 254
GlifName: T_horn
Width: 576
Flags: MW
HStem: 0 21G<71 71 71 208> 149 131<260 280 236 300> 477 131<321 342 296 367> 719 20G<208 345 345 345>
VStem: 477 141<396.5 461>
LayerCount: 2
Fore
SplineSet
71 0 m 1
 208 739 l 1
 345 739 l 1
 321 608 l 1
 367 608 l 2
 468 608 516 598 555 570 c 0
 597 539 618 491 618 431 c 0
 618 415 616 398 613 380 c 0
 597 291 544 215 473 179 c 0
 429 157 381 149 280 149 c 2
 236 149 l 1
 208 0 l 1
 71 0 l 1
260 280 m 1
 300 280 l 2
 340 280 373 283 396 290 c 0
 437 301 467 334 475 377 c 0
 476 385 477 393 477 400 c 0
 477 435 460 461 428 470 c 0
 408 475 387 477 342 477 c 2
 296 477 l 1
 260 280 l 1
EndSplineSet
EndChar

StartChar: ae
Encoding: 320 230 255
GlifName: ae
Width: 1077
Flags: MW
HStem: -13 122<302 354 750.5 813> 0 21G<483 605 483 483> 219 118<667 971 667 1081 653 971> 445 122<357 441 841.5 881.5> 534 20G<586 708 708 708>
VStem: 74 136<203 227> 971 136<337 337>
LayerCount: 2
Fore
SplineSet
915 164 m 1xb6
 1060 164 l 1
 1008 63 886 -13 772 -13 c 0xb6
 698 -13 651 9 616 60 c 1
 605 0 l 1
 483 0 l 1x66
 494 60 l 1
 439 6 392 -13 316 -13 c 0
 170 -13 74 83 74 218 c 0
 74 236 75 255 79 275 c 0
 110 440 258 567 421 567 c 0xb6
 493 567 538 547 575 499 c 1
 586 554 l 1
 708 554 l 1x2e
 697 499 l 1
 753 547 806 567 877 567 c 0
 1014 567 1107 472 1107 342 c 0
 1107 325 1105 306 1102 288 c 0
 1098 265 1094 249 1081 219 c 1
 653 219 l 1
 663 150 713 109 788 109 c 0
 838 109 876 125 915 164 c 1xb6
401 445 m 0
 313 445 231 372 214 278 c 0
 212 266 210 253 210 242 c 0
 210 164 262 109 342 109 c 0
 432 109 512 181 530 276 c 0
 532 288 534 301 534 312 c 0
 534 390 481 445 401 445 c 0
667 337 m 1
 971 337 l 1
 965 409 922 445 841 445 c 0
 764 445 707 410 667 337 c 1
EndSplineSet
EndChar

StartChar: oe
Encoding: 321 339 256
GlifName: oe
Width: 1074
Flags: MW
HStem: -13 122<305.5 368 748.5 808.5> 218 117<668 970 668 1081 652 970> 445 122<358 443.5 820 879.5>
VStem: 74 136<204.5 229> 970 135<335 382>
LayerCount: 2
Fore
SplineSet
916 163 m 1
 1058 163 l 1
 999 56 884 -13 764 -13 c 0
 670 -13 597 27 560 100 c 1
 492 23 416 -13 320 -13 c 0
 172 -13 74 83 74 220 c 0
 74 238 75 257 79 277 c 0
 109 439 261 567 423 567 c 0
 485 567 542 548 580 513 c 0
 596 499 607 485 626 456 c 1
 704 534 775 567 865 567 c 0
 925 567 982 549 1024 517 c 0
 1078 476 1105 418 1105 346 c 0
 1105 326 1103 306 1099 284 c 0
 1095 261 1090 245 1081 218 c 1
 652 218 l 1
 662 151 712 109 785 109 c 0
 832 109 884 131 916 163 c 1
402 445 m 0
 314 445 231 371 214 278 c 0
 212 266 210 255 210 244 c 0
 210 165 264 109 347 109 c 0
 436 109 517 181 535 276 c 0
 537 288 539 300 539 311 c 0
 539 390 485 445 402 445 c 0
668 335 m 1
 970 335 l 1
 963 408 919 445 840 445 c 0
 764 445 707 408 668 335 c 1
EndSplineSet
EndChar

StartChar: oslash
Encoding: 322 248 257
GlifName: oslash
Width: 646
Flags: MW
HStem: -13 122<333.5 387.5 333.5 403> 445 122<360.5 412>
VStem: 74 137<196.5 252> 538 136<303.5 361.5>
LayerCount: 2
Fore
SplineSet
55 -10 m 1
 128 74 l 1
 93 115 74 168 74 225 c 0
 74 242 76 259 79 277 c 0
 109 437 265 567 429 567 c 0
 468 567 501 560 534 546 c 1
 600 623 l 1
 676 565 l 1
 612 492 l 1
 653 446 674 392 674 331 c 0
 674 314 672 295 669 277 c 0
 639 117 484 -13 322 -13 c 0
 278 -13 238 -4 201 15 c 1
 130 -67 l 1
 55 -10 l 1
223 185 m 1
 443 440 l 1
 429 444 419 445 405 445 c 0
 316 445 231 370 214 278 c 0
 212 267 211 257 211 247 c 0
 211 226 215 205 223 185 c 1
519 383 m 1
 291 119 l 1
 309 112 324 109 343 109 c 0
 432 109 518 184 535 276 c 0
 537 288 538 298 538 309 c 0
 538 336 532 360 519 383 c 1
EndSplineSet
EndChar

StartChar: germandbls
Encoding: 323 223 258
GlifName: germandbls
Width: 616
Flags: MW
HStem: -13 122<360 408.5 360 419.5> 0 21G<54 54 54 176> 315 118<316 349 316 349> 630 122<373 413>
VStem: 461 137<578 581.5> 493 138<222.5 277.5>
LayerCount: 2
Fore
SplineSet
54 0 m 1x74
 144 487 l 2
 156 553 175 600 205 643 c 0
 254 711 332 752 414 752 c 0
 524 752 598 682 598 584 c 0x78
 598 572 596 559 594 546 c 0
 582 480 551 437 494 408 c 1
 540 397 560 387 585 364 c 0
 615 335 631 299 631 256 c 0
 631 243 630 230 627 216 c 0
 602 82 488 -13 351 -13 c 0xb4
 269 -13 217 17 191 79 c 1
 176 0 l 1
 54 0 l 1x74
222 189 m 1
 304 189 l 1
 304 143 337 109 383 109 c 0
 434 109 481 150 491 205 c 0
 492 212 493 219 493 226 c 0xb4
 493 258 478 284 451 298 c 0
 424 312 399 315 327 315 c 2
 316 315 l 1
 338 433 l 1
 349 433 l 2
 401 433 447 477 458 536 c 0
 460 544 461 553 461 560 c 0
 461 603 435 630 391 630 c 0
 333 630 296 588 280 503 c 2
 222 189 l 1
EndSplineSet
EndChar

StartChar: dotlessi
Encoding: 324 305 259
GlifName: dotlessi
Width: 241
Flags: MW
HStem: 0 21G<54 54 54 187> 534 20G<157 290 290 290>
VStem: 54 236
LayerCount: 2
Fore
SplineSet
54 0 m 1
 157 554 l 1
 290 554 l 1
 187 0 l 1
 54 0 l 1
EndSplineSet
EndChar

StartChar: uniFB01
Encoding: 325 64257 260
GlifName: uniF_B_01
Width: 527
Flags: MW
HStem: 0 21G<68 68 68 201 340 473 340 340> 433 111<121 148 100 169 302 356> 534 20G<443 576 576 576> 611 128<360 383 383 392.5 360 397>
LayerCount: 2
Fore
SplineSet
68 0 m 1xd0
 148 433 l 1
 100 433 l 1
 121 544 l 1
 169 544 l 1
 189 616 206 648 241 680 c 0
 282 719 332 739 388 739 c 0
 397 739 405 739 421 737 c 1
 397 611 l 1
 383 611 l 2
 332 611 312 594 302 544 c 1
 377 544 l 1
 356 433 l 1
 281 433 l 1
 201 0 l 1
 68 0 l 1xd0
340 0 m 1
 443 554 l 1
 576 554 l 1xb0
 473 0 l 1
 340 0 l 1
454 614 m 1
 477 739 l 1
 610 739 l 1
 587 614 l 1
 454 614 l 1
EndSplineSet
Ligature2: "'liga' Standard Ligatures in Latin lookup 19 subtable" f i
Ligature2: "'liga' Standard Ligatures in Cyrillic lookup 18 subtable" f i
Ligature2: "'liga' Standard Ligatures lookup 17 subtable" f i
EndChar

StartChar: uniFB02
Encoding: 326 64258 261
GlifName: uniF_B_02
Width: 527
Flags: MW
HStem: 0 21G<68 68 68 201 340 340 340 473> 433 111<121 148 100 169 302 356> 611 128<360 383 383 392.5 360 397>
LayerCount: 2
Fore
SplineSet
340 0 m 1
 477 739 l 1
 610 739 l 1
 473 0 l 1
 340 0 l 1
68 0 m 1
 148 433 l 1
 100 433 l 1
 121 544 l 1
 169 544 l 1
 189 616 206 648 241 680 c 0
 282 719 332 739 388 739 c 0
 397 739 405 739 421 737 c 1
 397 611 l 1
 383 611 l 2
 332 611 312 594 302 544 c 1
 377 544 l 1
 356 433 l 1
 281 433 l 1
 201 0 l 1
 68 0 l 1
EndSplineSet
Ligature2: "'liga' Standard Ligatures in Latin lookup 19 subtable" f l
Ligature2: "'liga' Standard Ligatures in Cyrillic lookup 18 subtable" f l
Ligature2: "'liga' Standard Ligatures lookup 17 subtable" f l
EndChar

StartChar: ccedilla
Encoding: 327 231 262
GlifName: ccedilla
Width: 625
Flags: MW
HStem: -251 55<276 296 276 304> -109 58<294 341.5> -13 122<315 370.5 303 383.5> 445 122<355.5 432>
VStem: 74 136<203.5 232.5> 192 60<-191 -166> 332 59<-132.5 -132>
LayerCount: 2
Fore
SplineSet
315 -13 m 1xfa
 287 -58 l 1
 301 -52 309 -51 320 -51 c 0
 363 -51 391 -83 391 -129 c 0
 391 -136 390 -143 389 -151 c 0
 378 -212 333 -251 275 -251 c 0
 224 -251 192 -216 192 -166 c 1
 252 -166 l 1xf6
 256 -186 267 -196 285 -196 c 0
 307 -196 326 -178 331 -153 c 0
 332 -149 332 -145 332 -142 c 0
 332 -122 320 -109 301 -109 c 0
 287 -109 274 -115 258 -133 c 1
 211 -107 l 1
 271 -9 l 1
 150 13 74 106 74 224 c 0
 74 241 76 259 79 277 c 0
 109 440 261 567 425 567 c 0
 504 567 574 538 618 485 c 0
 647 451 658 423 667 369 c 1
 517 369 l 1
 500 421 462 445 402 445 c 0
 309 445 232 376 214 278 c 0
 212 266 210 254 210 243 c 0
 210 164 263 109 343 109 c 0
 398 109 441 131 483 182 c 1
 633 182 l 1
 567 58 452 -13 315 -13 c 1xfa
EndSplineSet
EndChar

StartChar: lslash
Encoding: 328 322 263
GlifName: lslash
Width: 343
Flags: MW
HStem: 0 21G<109 109 109 242> 719 20G<246 379 379 379>
LayerCount: 2
Fore
SplineSet
109 0 m 1
 168 317 l 1
 75 255 l 1
 94 354 l 1
 186 417 l 1
 246 739 l 1
 379 739 l 1
 331 482 l 1
 424 545 l 1
 406 446 l 1
 313 383 l 1
 242 0 l 1
 109 0 l 1
EndSplineSet
EndChar

StartChar: eth
Encoding: 329 240 264
GlifName: eth
Width: 645
Flags: MW
HStem: -13 122<303 386.5 303 403.5> 445 111<381 406.5 381 442> 736 20G<410 410>
VStem: 75 135<206.5 234.5> 537 138<333 348>
LayerCount: 2
Fore
SplineSet
301 721 m 1
 410 756 l 1
 415 752 420 749 424 745 c 2
 450 722 l 2
 456 719 461 714 466 709 c 1
 561 749 l 1
 593 700 l 1
 508 665 l 1
 569 603 589 579 614 538 c 0
 655 472 675 408 675 343 c 0
 675 323 674 304 670 284 c 0
 639 117 486 -13 321 -13 c 0
 176 -13 75 91 75 226 c 0
 75 243 77 260 80 278 c 0
 99 381 175 480 273 526 c 0
 309 543 364 556 398 556 c 0
 415 556 437 553 464 547 c 1
 456 556 449 566 442 575 c 0
 421 601 419 603 401 621 c 1
 307 581 l 1
 275 627 l 1
 360 664 l 1
 323 701 320 704 301 721 c 1
402 445 m 0
 316 445 230 369 213 277 c 0
 211 266 210 255 210 245 c 0
 210 168 264 109 342 109 c 0
 431 109 517 184 534 276 c 0
 536 287 537 298 537 309 c 0
 537 387 482 445 402 445 c 0
EndSplineSet
EndChar

StartChar: thorn
Encoding: 330 254 265
GlifName: thorn
Width: 662
Flags: MW
HStem: -185 21G<20 153 20 20> -13 122<322 406 320.5 437> 445 122<429 460.5> 719 20G<191 324 324 324>
VStem: 555 136<330 351>
LayerCount: 2
Fore
SplineSet
191 739 m 1
 324 739 l 1
 279 495 l 1
 331 543 394 567 464 567 c 0
 603 567 691 475 691 340 c 0
 691 320 689 299 685 277 c 0
 654 108 517 -13 357 -13 c 0
 287 -13 232 11 198 59 c 1
 153 -185 l 1
 20 -185 l 1
 191 739 l 1
420 445 m 0
 330 445 248 372 230 277 c 0
 228 265 227 253 227 242 c 0
 227 164 280 109 361 109 c 0
 451 109 533 182 551 277 c 0
 553 289 555 301 555 312 c 0
 555 390 501 445 420 445 c 0
EndSplineSet
EndChar

StartChar: sterling
Encoding: 331 163 266
GlifName: sterling
Width: 560
Flags: MW
HStem: 0 125<41 203 64 203 64 301> 310 125<81 139 81 199 57 139 358 358 358 465> 630 122<368 422>
VStem: 133 133<476.5 484> 239 134<228.5 237> 473 133<240.5 248>
LayerCount: 2
Fore
SplineSet
41 0 m 1xec
 64 125 l 1
 203 125 l 1
 220 147 232 171 237 197 c 0
 239 206 239 214 239 222 c 0xec
 239 252 226 278 199 310 c 1
 57 310 l 1
 81 435 l 1
 139 435 l 1
 135 450 133 463 133 478 c 0
 133 490 134 502 137 516 c 0
 161 648 285 752 419 752 c 0
 538 752 615 677 615 566 c 0
 615 558 615 549 614 541 c 1
 479 541 l 1
 476 598 446 630 398 630 c 0
 338 630 281 578 269 511 c 0
 267 502 266 494 266 486 c 0xf4
 266 467 271 451 282 435 c 1
 489 435 l 1
 465 310 l 1
 358 310 l 1
 368 279 373 256 373 234 c 0
 373 223 372 212 370 200 c 0
 366 178 355 149 343 125 c 1
 373 125 392 129 410 138 c 0
 442 155 465 186 471 220 c 0
 473 229 473 236 473 244 c 0
 473 252 473 262 471 274 c 1
 603 274 l 1
 605 262 606 253 606 244 c 0
 606 237 605 230 604 222 c 0
 592 157 553 95 498 54 c 0
 444 14 393 0 301 0 c 2
 41 0 l 1xec
EndSplineSet
EndChar

StartChar: cent
Encoding: 332 162 267
GlifName: cent
Width: 560
Flags: MW
HStem: 39 231<308 352 308 355 230 352> 489 226<356 390.5>
VStem: 110 135<331.5 341>
LayerCount: 2
Fore
SplineSet
355 39 m 1
 230 39 l 1
 250 148 l 1
 202 159 173 177 147 213 c 0
 122 245 110 287 110 333 c 0
 110 349 112 365 115 381 c 0
 128 449 168 514 225 559 c 0
 260 586 288 599 336 611 c 1
 356 715 l 1
 481 715 l 1
 461 611 l 1
 543 590 595 525 598 443 c 1
 456 443 l 1
 441 471 409 489 372 489 c 0
 312 489 259 442 247 379 c 0
 246 371 245 364 245 357 c 0
 245 306 281 270 335 270 c 0
 369 270 397 282 427 310 c 1
 573 310 l 1
 523 221 459 169 375 148 c 1
 355 39 l 1
EndSplineSet
EndChar

StartChar: florin
Encoding: 333 402 268
GlifName: florin
Width: 560
Flags: MW
HStem: -149 119<44.5 67> 470 115<271 325 231 365 492 544 271 451> 703 120<605 614 614 624>
LayerCount: 2
Fore
SplineSet
492 585 m 1
 584 585 l 1
 544 470 l 1
 451 470 l 1
 322 106 l 2
 280 -11 255 -53 206 -91 c 0
 156 -130 100 -149 34 -149 c 0
 10 -149 -3 -147 -23 -142 c 1
 18 -26 l 1
 31 -29 39 -30 50 -30 c 0
 91 -30 127 -15 149 14 c 0
 165 33 181 69 202 128 c 2
 325 470 l 1
 231 470 l 1
 271 585 l 1
 365 585 l 1
 375 611 l 2
 407 691 421 715 459 751 c 0
 508 797 572 823 638 823 c 0
 650 823 655 822 666 820 c 1
 624 703 l 1
 614 703 l 2
 575 703 542 683 520 647 c 0
 511 633 504 618 492 585 c 1
EndSplineSet
EndChar

StartChar: yen
Encoding: 334 165 269
GlifName: yen
Width: 560
Flags: MW
HStem: 0 21G<211 211 211 344> 187 88<66 246 50 262 395 576> 380 88<102 196 102 225 85 196 536 611> 719 20G<105 254 254 254 575 729 729 729>
LayerCount: 2
Fore
SplineSet
211 0 m 1
 246 187 l 1
 50 187 l 1
 66 275 l 1
 262 275 l 1
 225 380 l 1
 85 380 l 1
 102 468 l 1
 196 468 l 1
 105 739 l 1
 254 739 l 1
 351 398 l 1
 575 739 l 1
 729 739 l 1
 536 468 l 1
 628 468 l 1
 611 380 l 1
 471 380 l 1
 395 275 l 1
 592 275 l 1
 576 187 l 1
 379 187 l 1
 344 0 l 1
 211 0 l 1
EndSplineSet
EndChar

StartChar: uni00B9
Encoding: 335 185 270
GlifName: uni00B_9
Width: 336
Flags: MW
HStem: 659 80<218 262 203 365>
VStem: 195 170
LayerCount: 2
Fore
SplineSet
195 296 m 1
 262 659 l 1
 203 659 l 1
 218 739 l 1
 365 739 l 1
 283 296 l 1
 195 296 l 1
EndSplineSet
EndChar

StartChar: uni00B2
Encoding: 336 178 271
GlifName: uni00B_2
Width: 336
Flags: MW
HStem: 296 80<213 379> 668 79<280 311.5>
VStem: 118 87<582 582> 351 89<624.5 630.5>
LayerCount: 2
Fore
SplineSet
68 296 m 1
 82 370 l 1
 279 518 l 2
 327 555 345 576 350 603 c 0
 351 607 351 611 351 615 c 0
 351 646 329 668 294 668 c 0
 249 668 216 637 205 582 c 1
 118 582 l 1
 127 629 139 657 165 685 c 0
 199 724 253 747 307 747 c 0
 387 747 440 699 440 629 c 0
 440 620 439 610 437 601 c 0
 427 549 389 498 321 451 c 2
 213 376 l 1
 394 376 l 1
 379 296 l 1
 68 296 l 1
EndSplineSet
EndChar

StartChar: uni00B3
Encoding: 337 179 272
GlifName: uni00B_3
Width: 336
Flags: MW
HStem: 288 79<215.5 258.5 215.5 268.5> 506 82<221 236 236 236 236 242> 668 78<285.5 302>
VStem: 82 90<413 417.5> 325 89<462.5 467>
LayerCount: 2
Fore
SplineSet
221 506 m 1
 236 588 l 1
 297 589 321 600 327 630 c 1
 327 637 l 2
 327 655 313 668 291 668 c 0
 265 668 251 657 241 628 c 1
 152 628 l 1
 164 669 176 689 203 710 c 0
 231 733 267 746 304 746 c 0
 371 746 416 706 416 648 c 0
 416 641 415 633 414 625 c 0
 408 593 391 568 366 551 c 1
 397 535 414 505 414 467 c 0
 414 458 413 449 411 439 c 0
 395 352 315 288 222 288 c 0
 136 288 82 339 82 414 c 0
 82 421 83 428 84 435 c 1
 172 435 l 1
 172 391 194 367 237 367 c 0
 280 367 317 396 324 436 c 0
 325 440 325 445 325 449 c 0
 325 485 294 506 242 506 c 2
 221 506 l 1
EndSplineSet
EndChar

StartChar: periodcentered
Encoding: 338 183 273
GlifName: periodcentered
Width: 281
Flags: MW
HStem: 300 133<130 288 154 263>
VStem: 130 158<300 433>
LayerCount: 2
Fore
SplineSet
130 300 m 1
 154 433 l 1
 288 433 l 1
 263 300 l 1
 130 300 l 1
EndSplineSet
EndChar

StartChar: ellipsis
Encoding: 339 8230 274
GlifName: ellipsis
Width: 1000
Flags: MW
HStem: 0 128<100 257 124 233 457 566 790 899>
LayerCount: 2
Fore
SplineSet
100 0 m 1
 124 128 l 1
 257 128 l 1
 233 0 l 1
 100 0 l 1
433 0 m 1
 457 128 l 1
 590 128 l 1
 566 0 l 1
 433 0 l 1
766 0 m 1
 790 128 l 1
 923 128 l 1
 899 0 l 1
 766 0 l 1
EndSplineSet
EndChar

StartChar: quoteleft
Encoding: 340 8216 275
GlifName: quoteleft
Width: 293
Flags: MW
HStem: 672 67<338 338>
VStem: 166 184
LayerCount: 2
Fore
SplineSet
324 599 m 1
 299 466 l 1
 166 466 l 1
 192 606 l 2
 201 654 218 683 254 709 c 0
 282 729 314 739 350 739 c 1
 338 672 l 1
 295 664 274 648 268 616 c 0
 267 612 266 605 266 599 c 1
 324 599 l 1
EndSplineSet
EndChar

StartChar: quotedblright
Encoding: 341 8221 276
GlifName: quotedblright
Width: 500
Flags: MW
HStem: 466 67<179 179 179 180.5> 611 128<193 350 217 251 424 458 217 400>
LayerCount: 2
Fore
SplineSet
193 611 m 1
 217 739 l 1
 350 739 l 1
 324 599 l 2
 313 541 285 504 236 480 c 0
 212 469 195 466 166 466 c 1
 179 533 l 1
 221 541 243 558 249 592 c 0
 250 597 251 604 251 611 c 1
 193 611 l 1
400 611 m 1
 424 739 l 1
 557 739 l 1
 531 599 l 2
 520 541 492 504 443 480 c 0
 418 469 402 466 373 466 c 1
 386 533 l 1
 429 541 450 558 456 592 c 0
 457 597 458 604 458 611 c 1
 400 611 l 1
EndSplineSet
EndChar

StartChar: quotedblleft
Encoding: 342 8220 277
GlifName: quotedblleft
Width: 500
Flags: MW
HStem: 466 133<266 299 166 324 266 373 473 506> 672 67<338 338 545 545>
LayerCount: 2
Fore
SplineSet
324 599 m 1
 299 466 l 1
 166 466 l 1
 192 606 l 2
 201 654 218 683 254 709 c 0
 282 729 314 739 350 739 c 1
 338 672 l 1
 294 664 274 649 268 616 c 0
 267 612 266 605 266 599 c 1
 324 599 l 1
531 599 m 1
 506 466 l 1
 373 466 l 1
 399 606 l 2
 408 654 425 683 461 709 c 0
 489 729 521 739 557 739 c 1
 545 672 l 1
 502 664 481 648 475 617 c 0
 474 612 473 606 473 599 c 1
 531 599 l 1
EndSplineSet
EndChar

StartChar: quotedblbase
Encoding: 343 8222 278
GlifName: quotedblbase
Width: 500
Flags: MW
HStem: -140 67<66 66 66 68.5> 0 128<80 237 104 138 311 345 104 287>
LayerCount: 2
Fore
SplineSet
80 0 m 1
 104 128 l 1
 237 128 l 1
 212 -7 l 2
 201 -65 173 -102 124 -126 c 0
 100 -137 83 -140 54 -140 c 1
 66 -73 l 1
 109 -65 130 -49 136 -18 c 0
 137 -13 138 -7 138 0 c 1
 80 0 l 1
287 0 m 1
 311 128 l 1
 444 128 l 1
 419 -7 l 2
 408 -65 380 -102 331 -126 c 0
 307 -137 290 -140 261 -140 c 1
 273 -73 l 1
 316 -65 337 -49 343 -18 c 0
 344 -13 345 -7 345 0 c 1
 287 0 l 1
EndSplineSet
EndChar

StartChar: exclamdown
Encoding: 344 161 279
GlifName: exclamdown
Width: 321
Flags: MW
HStem: -185 21G<60 193 60 60> 426 128<197 306 173 330>
VStem: 60 270
LayerCount: 2
Fore
SplineSet
295 366 m 1
 193 -185 l 1
 60 -185 l 1
 162 366 l 1
 295 366 l 1
330 554 m 1
 306 426 l 1
 173 426 l 1
 197 554 l 1
 330 554 l 1
EndSplineSet
EndChar

StartChar: questiondown
Encoding: 345 191 280
GlifName: questiondown
Width: 519
Flags: MW
HStem: -198 132<227 257.5> 426 128<305 414 281 438>
VStem: 36 135<-14 -8.5>
LayerCount: 2
Fore
SplineSet
270 367 m 1
 403 367 l 1
 400 352 l 2
 387 283 366 236 331 196 c 0
 305 166 298 159 234 112 c 0
 199 86 179 58 173 27 c 0
 172 20 171 14 171 8 c 0
 171 -36 203 -66 251 -66 c 0
 305 -66 341 -33 361 34 c 1
 494 34 l 1
 475 -35 454 -77 416 -115 c 0
 363 -168 292 -198 223 -198 c 0
 110 -198 36 -123 36 -16 c 0
 36 -1 38 15 41 31 c 0
 53 98 86 142 176 210 c 0
 239 257 255 283 268 354 c 2
 270 367 l 1
438 554 m 1
 414 426 l 1
 281 426 l 1
 305 554 l 1
 438 554 l 1
EndSplineSet
EndChar

StartChar: guillemotright
Encoding: 346 187 281
GlifName: guillemotright
Width: 460
Flags: MW
HStem: 108 361<83 150 150 296>
VStem: 83 395<108 339>
LayerCount: 2
Fore
SplineSet
83 108 m 1
 106 231 l 1
 184 289 l 1
 127 346 l 1
 150 469 l 1
 265 339 l 1
 246 239 l 1
 83 108 l 1
296 108 m 1
 319 231 l 1
 397 289 l 1
 340 346 l 1
 363 469 l 1
 478 339 l 1
 459 239 l 1
 296 108 l 1
EndSplineSet
EndChar

StartChar: guillemotleft
Encoding: 347 171 282
GlifName: guillemotleft
Width: 460
Flags: MW
HStem: 108 361<204 271 271 417>
VStem: 89 395<239 469>
LayerCount: 2
Fore
SplineSet
417 108 m 1
 302 239 l 1
 321 339 l 1
 484 469 l 1
 461 346 l 1
 384 289 l 1
 440 231 l 1
 417 108 l 1
204 108 m 1
 89 239 l 1
 108 339 l 1
 271 469 l 1
 248 346 l 1
 171 289 l 1
 227 231 l 1
 204 108 l 1
EndSplineSet
EndChar

StartChar: guilsinglright
Encoding: 348 8250 283
GlifName: guilsinglright
Width: 247
Flags: MW
VStem: 83 182
LayerCount: 2
Fore
SplineSet
83 108 m 1
 106 231 l 1
 184 289 l 1
 127 346 l 1
 150 469 l 1
 265 339 l 1
 246 239 l 1
 83 108 l 1
EndSplineSet
EndChar

StartChar: guilsinglleft
Encoding: 349 8249 284
GlifName: guilsinglleft
Width: 247
Flags: MW
VStem: 89 182
LayerCount: 2
Fore
SplineSet
204 108 m 1
 89 239 l 1
 108 339 l 1
 271 469 l 1
 248 346 l 1
 171 289 l 1
 227 231 l 1
 204 108 l 1
EndSplineSet
EndChar

StartChar: endash
Encoding: 350 8211 285
GlifName: endash
Width: 500
Flags: MW
HStem: 229 118<42 564 64 542>
LayerCount: 2
Fore
SplineSet
42 229 m 1
 64 347 l 1
 564 347 l 1
 542 229 l 1
 42 229 l 1
EndSplineSet
EndChar

StartChar: emdash
Encoding: 351 8212 286
GlifName: emdash
Width: 1000
Flags: MW
HStem: 229 118<42 1064 64 1042>
LayerCount: 2
Fore
SplineSet
42 229 m 1
 64 347 l 1
 1064 347 l 1
 1042 229 l 1
 42 229 l 1
EndSplineSet
EndChar

StartChar: dagger
Encoding: 352 8224 287
GlifName: dagger
Width: 557
Flags: MW
HStem: 436 118<153 294 131 316 449 588 153 427> 719 20G<350 483 483 483>
LayerCount: 2
Fore
SplineSet
483 739 m 1
 449 554 l 1
 610 554 l 1
 588 436 l 1
 427 436 l 1
 322 -128 l 1
 189 -128 l 1
 294 436 l 1
 131 436 l 1
 153 554 l 1
 316 554 l 1
 350 739 l 1
 483 739 l 1
EndSplineSet
EndChar

StartChar: daggerdbl
Encoding: 353 8225 288
GlifName: daggerdbl
Width: 557
Flags: MW
HStem: 260 118<120 260 98 282 415 555 120 393> 473 118<160 300 138 322 455 595 160 433> 719 20G<349 482 482 482>
LayerCount: 2
Fore
SplineSet
482 739 m 1
 455 591 l 1
 617 591 l 1
 595 473 l 1
 433 473 l 1
 415 378 l 1
 577 378 l 1
 555 260 l 1
 393 260 l 1
 321 -128 l 1
 188 -128 l 1
 260 260 l 1
 98 260 l 1
 120 378 l 1
 282 378 l 1
 300 473 l 1
 138 473 l 1
 160 591 l 1
 322 591 l 1
 349 739 l 1
 482 739 l 1
EndSplineSet
EndChar

StartChar: degree
Encoding: 354 176 289
GlifName: degree
Width: 400
Flags: MW
HStem: 380 57<258 307 258 312> 629 57<291 340>
VStem: 146 57<493 509> 394 58<559 574.5>
LayerCount: 2
Fore
SplineSet
331 686 m 0
 403 686 452 635 452 564 c 0
 452 554 451 544 449 533 c 0
 433 447 354 380 270 380 c 0
 196 380 146 433 146 504 c 0
 146 514 147 524 149 534 c 0
 165 619 244 686 331 686 c 0
317 629 m 0
 265 629 215 585 205 533 c 0
 204 527 203 521 203 515 c 0
 203 471 235 437 281 437 c 0
 333 437 382 479 392 533 c 0
 393 539 394 546 394 552 c 0
 394 597 363 629 317 629 c 0
EndSplineSet
EndChar

StartChar: minus
Encoding: 355 8722 290
GlifName: minus
Width: 600
Flags: MW
HStem: 312 118<128 610 106 632>
LayerCount: 2
Fore
SplineSet
632 430 m 1
 610 312 l 1
 106 312 l 1
 128 430 l 1
 632 430 l 1
EndSplineSet
EndChar

StartChar: multiply
Encoding: 356 215 291
GlifName: multiply
Width: 600
Flags: MW
HStem: 114 504<151 245 245 491>
VStem: 84 567<196 536>
LayerCount: 2
Fore
SplineSet
450 366 m 1
 588 196 l 1
 491 114 l 1
 353 284 l 1
 151 114 l 1
 84 196 l 1
 286 366 l 1
 147 536 l 1
 245 618 l 1
 383 448 l 1
 585 618 l 1
 651 536 l 1
 450 366 l 1
EndSplineSet
EndChar

StartChar: divide
Encoding: 357 247 292
GlifName: divide
Width: 600
Flags: MW
HStem: 73 131<270 381 246 405> 312 118<128 610 106 632> 538 131<356 467 332 491>
CounterMasks: 1 e0
LayerCount: 2
Fore
SplineSet
467 538 m 1
 332 538 l 1
 356 669 l 1
 491 669 l 1
 467 538 l 1
381 73 m 1
 246 73 l 1
 270 204 l 1
 405 204 l 1
 381 73 l 1
632 430 m 1
 610 312 l 1
 106 312 l 1
 128 430 l 1
 632 430 l 1
EndSplineSet
EndChar

StartChar: trademark
Encoding: 358 8482 293
GlifName: trademark
Width: 958
Flags: MW
HStem: 664 75<187 309 173 540 390 526 390 390>
LayerCount: 2
Fore
SplineSet
1045 739 m 1
 972 345 l 1
 891 345 l 1
 944 632 l 1
 759 345 l 1
 706 345 l 1
 631 631 l 1
 578 345 l 1
 497 345 l 1
 570 739 l 1
 691 739 l 1
 757 482 l 1
 927 739 l 1
 1045 739 l 1
540 739 m 1
 526 664 l 1
 390 664 l 1
 331 345 l 1
 250 345 l 1
 309 664 l 1
 173 664 l 1
 187 739 l 1
 540 739 l 1
EndSplineSet
EndChar

StartChar: paragraph
Encoding: 359 182 294
GlifName: paragraph
Width: 600
Flags: MW
HStem: 632 107<459 543 459 459>
LayerCount: 2
Fore
SplineSet
217 -128 m 1
 302 330 l 1
 196 332 132 394 132 489 c 0
 132 503 133 518 136 533 c 0
 151 612 201 678 272 711 c 0
 312 729 371 739 446 739 c 2
 664 739 l 1
 503 -128 l 1
 402 -128 l 1
 543 632 l 1
 459 632 l 1
 318 -128 l 1
 217 -128 l 1
EndSplineSet
EndChar

StartChar: currency
Encoding: 360 164 295
GlifName: currency
Width: 560
Flags: MW
HStem: 153 120<301 331.5> 526 120<376.5 409.5>
VStem: 102 123<348 361> 483 125<440.5 453>
LayerCount: 2
Fore
SplineSet
133 574 m 1
 228 654 l 1
 265 610 l 1
 312 635 353 646 400 646 c 0
 447 646 487 635 525 610 c 1
 578 653 l 1
 640 572 l 1
 590 529 l 1
 603 497 608 474 608 448 c 0
 608 433 606 418 603 399 c 0
 594 348 579 317 541 271 c 1
 575 228 l 1
 483 148 l 1
 447 190 l 1
 402 166 354 153 309 153 c 0
 264 153 221 166 185 190 c 1
 133 148 l 1
 69 229 l 1
 119 272 l 1
 107 307 102 330 102 354 c 0
 102 368 104 382 107 400 c 0
 116 450 128 473 167 529 c 1
 133 574 l 1
378 526 m 0
 308 526 240 469 227 401 c 0
 226 393 225 386 225 378 c 0
 225 318 270 273 332 273 c 0
 402 273 468 329 481 398 c 0
 483 407 483 415 483 423 c 0
 483 483 441 526 378 526 c 0
EndSplineSet
EndChar

StartChar: quotesinglbase
Encoding: 361 8218 296
GlifName: quotesinglbase
Width: 293
Flags: MW
HStem: -140 67<66 66 66 68.5>
VStem: 54 183
LayerCount: 2
Fore
SplineSet
80 0 m 1
 104 128 l 1
 237 128 l 1
 212 -7 l 2
 201 -65 173 -102 124 -126 c 0
 100 -137 83 -140 54 -140 c 1
 66 -73 l 1
 109 -65 130 -49 136 -18 c 0
 137 -13 138 -7 138 0 c 1
 80 0 l 1
EndSplineSet
EndChar

StartChar: quoteright
Encoding: 362 8217 297
GlifName: quoteright
Width: 293
Flags: MW
HStem: 466 67<179 179 179 180.5> 719 20G<217 350 350 350>
VStem: 166 184
LayerCount: 2
Fore
SplineSet
193 611 m 1
 217 739 l 1
 350 739 l 1
 324 599 l 2
 313 541 285 504 236 480 c 0
 212 469 195 466 166 466 c 1
 179 533 l 1
 222 541 243 558 249 592 c 0
 250 597 251 604 251 611 c 1
 193 611 l 1
EndSplineSet
EndChar

StartChar: ordfeminine
Encoding: 363 170 298
GlifName: ordfeminine
Width: 382
Flags: MW
HStem: 310 70<90 414 103 401> 431 74<261 272.5> 676 74<289 331.5> 719 20G<411 477 477 477>
VStem: 136 78<553.5 562.5>
LayerCount: 2
Fore
SplineSet
477 739 m 1xd8
 422 441 l 1
 356 441 l 1
 363 482 l 1
 332 449 293 431 252 431 c 0
 183 431 136 484 136 557 c 0
 136 568 138 580 140 592 c 0
 156 681 234 750 316 750 c 0xe8
 355 750 384 734 404 700 c 1
 411 739 l 1
 477 739 l 1xd8
311 676 m 0
 267 676 224 637 215 589 c 0
 214 583 214 578 214 573 c 0
 214 534 241 505 281 505 c 0
 327 505 369 542 378 591 c 0
 379 597 379 603 379 609 c 0
 379 649 352 676 311 676 c 0
90 310 m 1
 103 380 l 1
 414 380 l 1
 401 310 l 1
 90 310 l 1
EndSplineSet
EndChar

StartChar: ordmasculine
Encoding: 364 186 299
GlifName: ordmasculine
Width: 367
Flags: MW
HStem: 311 70<88 408 101 395> 442 74<259.5 303 259.5 308.5> 680 70<286.5 328>
VStem: 138 74<562 573.5> 376 74<620.5 632>
LayerCount: 2
Fore
SplineSet
325 750 m 0
 399 750 450 696 450 625 c 0
 450 616 450 607 448 597 c 0
 432 511 351 442 266 442 c 0
 191 442 138 497 138 569 c 0
 138 578 139 588 141 598 c 0
 157 683 238 750 325 750 c 0
308 680 m 0
 265 680 222 643 214 598 c 0
 213 592 212 586 212 581 c 0
 212 543 239 516 280 516 c 0
 326 516 366 551 375 598 c 0
 376 603 376 608 376 613 c 0
 376 651 348 680 308 680 c 0
88 311 m 1
 101 381 l 1
 408 381 l 1
 395 311 l 1
 88 311 l 1
EndSplineSet
EndChar

StartChar: plusminus
Encoding: 365 177 300
GlifName: plusminus
Width: 600
Flags: MW
HStem: 0 118<70 552 48 574> 340 118<133 303 111 325 445 615 133 423>
LayerCount: 2
Fore
SplineSet
325 458 m 1
 361 653 l 1
 481 653 l 1
 445 458 l 1
 637 458 l 1
 615 340 l 1
 423 340 l 1
 392 175 l 1
 272 175 l 1
 303 340 l 1
 111 340 l 1
 133 458 l 1
 325 458 l 1
574 118 m 1
 552 0 l 1
 48 0 l 1
 70 118 l 1
 574 118 l 1
EndSplineSet
EndChar

StartChar: onehalf
Encoding: 366 189 301
GlifName: onehalf
Width: 840
Flags: MW
HStem: 0 80<615 781> 372 79<683 713.5> 659 80<184 228 169 331>
VStem: 520 87<286 286> 753 89<328.5 334.5>
LayerCount: 2
Fore
SplineSet
152 0 m 1
 595 739 l 1
 690 739 l 1
 247 0 l 1
 152 0 l 1
161 296 m 1
 228 659 l 1
 169 659 l 1
 184 739 l 1
 331 739 l 1
 249 296 l 1
 161 296 l 1
470 0 m 1
 484 74 l 1
 681 222 l 2
 729 259 747 280 752 307 c 0
 753 311 753 315 753 319 c 0
 753 350 731 372 696 372 c 0
 651 372 618 341 607 286 c 1
 520 286 l 1
 529 334 542 361 567 389 c 0
 601 428 656 451 710 451 c 0
 790 451 842 403 842 333 c 0
 842 324 842 314 840 305 c 0
 830 253 791 202 723 155 c 2
 615 80 l 1
 796 80 l 1
 781 0 l 1
 470 0 l 1
EndSplineSet
EndChar

StartChar: onequarter
Encoding: 367 188 302
GlifName: onequarter
Width: 840
Flags: MW
HStem: 0 21G<177 177 177 272 657 657 657 745> 66 76<581 669 771 805 581 757> 659 80<188 232 173 335>
LayerCount: 2
Fore
SplineSet
177 0 m 1
 620 739 l 1
 715 739 l 1
 272 0 l 1
 177 0 l 1
488 133 m 1
 753 443 l 1
 827 443 l 1
 771 142 l 1
 819 142 l 1
 805 66 l 1
 757 66 l 1
 745 0 l 1
 657 0 l 1
 669 66 l 1
 475 66 l 1
 488 133 l 1
683 142 m 1
 712 296 l 1
 581 142 l 1
 683 142 l 1
165 296 m 1
 232 659 l 1
 173 659 l 1
 188 739 l 1
 335 739 l 1
 253 296 l 1
 165 296 l 1
EndSplineSet
EndChar

StartChar: threequarters
Encoding: 368 190 303
GlifName: threequarters
Width: 840
Flags: MW
HStem: 0 21G<252 252 252 347 702 702 702 790> 66 76<626 714 816 850 626 802> 288 79<218.5 261.5 218.5 271.5> 506 82<224 239 239 239 239 245> 668 78<288.5 305> 719 20G<695 790 790 790>
VStem: 85 90<413 417.5> 328 89<462.5 467>
LayerCount: 2
Fore
SplineSet
252 0 m 1xf7
 695 739 l 1
 790 739 l 1
 347 0 l 1
 252 0 l 1xf7
533 133 m 1
 798 443 l 1
 872 443 l 1
 816 142 l 1
 864 142 l 1
 850 66 l 1
 802 66 l 1
 790 0 l 1
 702 0 l 1
 714 66 l 1
 520 66 l 1
 533 133 l 1
728 142 m 1
 757 296 l 1
 626 142 l 1
 728 142 l 1
224 506 m 1
 239 588 l 1
 300 589 324 600 330 630 c 1
 330 637 l 2
 330 655 316 668 294 668 c 0
 268 668 254 657 244 628 c 1
 155 628 l 1
 167 669 179 689 206 710 c 0
 234 733 270 746 307 746 c 0xfb
 374 746 419 706 419 648 c 0
 419 641 418 633 417 625 c 0
 411 593 394 568 369 551 c 1
 400 535 417 505 417 467 c 0
 417 458 416 449 414 439 c 0
 398 352 318 288 225 288 c 0
 139 288 85 339 85 414 c 0
 85 421 86 428 87 435 c 1
 175 435 l 1
 175 391 197 367 240 367 c 0
 283 367 320 396 327 436 c 0
 328 440 328 445 328 449 c 0
 328 485 297 506 245 506 c 2
 224 506 l 1
EndSplineSet
EndChar

StartChar: fraction
Encoding: 369 8260 304
GlifName: fraction
Width: 160
Flags: MW
HStem: 0 21G<-121 -121 -121 -26> 719 20G<322 417 417 417>
LayerCount: 2
Fore
SplineSet
-121 0 m 1
 322 739 l 1
 417 739 l 1
 -26 0 l 1
 -121 0 l 1
EndSplineSet
EndChar

StartChar: perthousand
Encoding: 370 8240 305
GlifName: perthousand
Width: 1273
Flags: MW
HStem: -13 107<655.5 693.5 655.5 704 1068.5 1106.5> 0 21G<225 327 225 225> 242 106<680 718.5 1093 1131.5> 391 107<278.5 316.5 278.5 326> 646 106<303 341.5> 719 20G<667 770 770 770>
VStem: 126 110<541 543.5> 385 109<599 603> 503 110<137 139.5> 762 109<195 199> 916 110<137 139.5> 1175 109<195 199>
LayerCount: 2
Fore
SplineSet
667 739 m 1x77f0
 770 739 l 1
 327 0 l 1
 225 0 l 1
 667 739 l 1x77f0
1134 348 m 0
 1221 348 1284 283 1284 200 c 0
 1284 190 1283 179 1281 168 c 0
 1262 68 1167 -13 1067 -13 c 0xb3f0
 978 -13 916 50 916 134 c 0
 916 145 917 156 919 167 c 0
 938 269 1032 348 1134 348 c 0
1113 242 m 0
 1073 242 1035 209 1027 168 c 0
 1026 163 1026 158 1026 154 c 0
 1026 120 1051 94 1086 94 c 0
 1127 94 1166 127 1174 168 c 0
 1175 173 1175 178 1175 182 c 0
 1175 216 1150 242 1113 242 c 0
721 348 m 0
 808 348 871 283 871 200 c 0
 871 190 870 179 868 168 c 0
 849 68 754 -13 654 -13 c 0
 565 -13 503 50 503 134 c 0
 503 145 504 156 506 167 c 0
 525 269 619 348 721 348 c 0
700 242 m 0
 660 242 622 209 614 168 c 0
 613 163 613 158 613 154 c 0
 613 120 638 94 673 94 c 0
 714 94 753 127 761 168 c 0
 762 173 762 178 762 182 c 0
 762 216 737 242 700 242 c 0
344 752 m 0x3bf0
 431 752 494 687 494 604 c 0
 494 594 493 583 491 572 c 0
 472 472 376 391 276 391 c 0
 187 391 126 454 126 538 c 0
 126 549 127 560 129 571 c 0
 148 673 242 752 344 752 c 0x3bf0
323 646 m 0
 283 646 245 613 237 572 c 0
 236 567 236 562 236 558 c 0
 236 524 261 498 296 498 c 0
 337 498 376 531 384 572 c 0
 385 577 385 582 385 586 c 0
 385 620 360 646 323 646 c 0
EndSplineSet
EndChar

StartChar: dieresis
Encoding: 371 168 306
GlifName: dieresis
Width: 471
Flags: MW
HStem: 630 133<181 338 205 314 415 524 205 391>
LayerCount: 2
Fore
SplineSet
181 630 m 1
 205 763 l 1
 338 763 l 1
 314 630 l 1
 181 630 l 1
391 630 m 1
 415 763 l 1
 548 763 l 1
 524 630 l 1
 391 630 l 1
EndSplineSet
EndChar

StartChar: dotaccent
Encoding: 372 729 307
GlifName: dotaccent
Width: 261
Flags: MW
HStem: 630 133<181 339 205 314>
VStem: 181 158<630 763>
LayerCount: 2
Fore
SplineSet
181 630 m 1
 205 763 l 1
 339 763 l 1
 314 630 l 1
 181 630 l 1
EndSplineSet
EndChar

StartChar: ring
Encoding: 373 730 308
GlifName: ring
Width: 334
Flags: MW
HStem: 610 67<283 302 283 308.5> 749 67<295.5 314.5>
VStem: 194 69<670 706> 336 68<719 755.5>
LayerCount: 2
Fore
SplineSet
319 816 m 0
 369 816 404 779 404 732 c 0
 404 726 403 719 402 713 c 0
 391 656 337 610 280 610 c 0
 229 610 194 646 194 694 c 0
 194 700 195 707 196 713 c 0
 207 770 261 816 319 816 c 0
305 749 m 0
 286 749 267 733 263 713 c 1
 263 706 l 2
 263 689 274 677 292 677 c 0
 312 677 331 693 335 713 c 0
 335 715 336 718 336 720 c 0
 336 737 324 749 305 749 c 0
EndSplineSet
EndChar

StartChar: acute
Encoding: 374 180 309
GlifName: acute
Width: 406
Flags: MW
HStem: 613 212
VStem: 192 286<691 733>
LayerCount: 2
Fore
SplineSet
229 613 m 1
 192 691 l 1
 441 825 l 1
 478 733 l 1
 229 613 l 1
EndSplineSet
EndChar

StartChar: circumflex
Encoding: 375 710 310
GlifName: circumflex
Width: 527
Flags: MW
HStem: 630 138<181 460 435 435 435 460 353 580>
LayerCount: 2
Fore
SplineSet
181 630 m 1
 353 768 l 1
 460 768 l 1
 580 630 l 1
 435 630 l 1
 394 694 l 1
 328 630 l 1
 181 630 l 1
EndSplineSet
EndChar

StartChar: caron
Encoding: 376 711 311
GlifName: caron
Width: 527
Flags: MW
HStem: 630 138<328 353 206 435 328 328>
LayerCount: 2
Fore
SplineSet
206 768 m 1
 353 768 l 1
 395 704 l 1
 460 768 l 1
 605 768 l 1
 435 630 l 1
 328 630 l 1
 206 768 l 1
EndSplineSet
EndChar

StartChar: breve
Encoding: 377 728 312
GlifName: breve
Width: 458
Flags: MW
HStem: 630 96<348 382.5 348 394.5>
VStem: 207 330<769 769>
LayerCount: 2
Fore
SplineSet
207 769 m 1
 305 769 l 1
 312 740 331 726 365 726 c 0
 400 726 425 741 435 769 c 1
 537 769 l 1
 518 685 442 630 347 630 c 0
 256 630 205 673 205 748 c 0
 205 755 206 762 207 769 c 1
EndSplineSet
Substitution2: "'ss02' Style Set 2 lookup 15 subtable" breve.cyrlc
Substitution2: "'ss01' Style Set 1 in Latin lookup 14 subtable" breve.cyrlc
Substitution2: "'ss01' Style Set 1 in Cyrillic lookup 13 subtable" breve.cyrlc
Substitution2: "'ss01' Style Set 1 lookup 12 subtable" breve.cyrlc
Substitution2: "'locl' Localized Forms in Cyrillic lookup 7 subtable" breve.cyrlc
Substitution2: "'salt' Stylistic Alternatives lookup 5 subtable" breve.cyrlc
Substitution2: "'aalt' Access All Alternates lookup 0 subtable" breve.cyrlc
EndChar

StartChar: tilde
Encoding: 378 732 313
GlifName: tilde
Width: 459
Flags: MW
HStem: 636 102<411.5 424 404 436.5> 661 102<298 319 287 319.5>
VStem: 197 326<691 716>
LayerCount: 2
Fore
SplineSet
236 636 m 1xa0
 197 716 l 1
 238 751 266 763 308 763 c 0x60
 330 763 339 761 366 749 c 0
 385 741 397 738 411 738 c 0
 437 738 459 748 484 772 c 1
 523 691 l 1
 484 652 454 636 419 636 c 0xa0
 404 636 386 640 362 649 c 0
 337 659 328 661 311 661 c 0x60
 285 661 278 659 236 636 c 1xa0
EndSplineSet
EndChar

StartChar: hungarumlaut
Encoding: 379 733 314
GlifName: hungarumlaut
Width: 683
Flags: MW
HStem: 613 212<228 427 427 512>
LayerCount: 2
Fore
SplineSet
190 682 m 1
 427 825 l 1
 474 745 l 1
 228 613 l 1
 190 682 l 1
473 682 m 1
 711 825 l 1
 757 745 l 1
 512 613 l 1
 473 682 l 1
EndSplineSet
EndChar

StartChar: cedilla
Encoding: 380 184 315
GlifName: cedilla
Width: 324
Flags: MW
HStem: -251 55<118.5 138 118.5 145.5> -106 55<136.5 182> -20 20G<109 161 161 161>
VStem: 33 61<-191 -166> 175 59<-135 -131>
LayerCount: 2
Fore
SplineSet
109 0 m 1
 161 0 l 1
 129 -58 l 1
 143 -53 151 -51 160 -51 c 0
 204 -51 234 -86 234 -132 c 0
 234 -138 233 -145 232 -152 c 0
 221 -211 174 -251 117 -251 c 0
 66 -251 33 -216 33 -166 c 1
 94 -166 l 1
 99 -186 110 -196 127 -196 c 0
 149 -196 169 -175 174 -150 c 0
 175 -147 175 -144 175 -141 c 0
 175 -121 162 -106 144 -106 c 0
 129 -106 118 -113 100 -133 c 1
 53 -107 l 1
 109 0 l 1
EndSplineSet
EndChar

StartChar: ogonek
Encoding: 381 731 316
GlifName: ogonek
Width: 310
Flags: MW
HStem: -204 81<111.5 188> -20 20G<150 220 220 220>
VStem: 43 96<-148 -87>
LayerCount: 2
Fore
SplineSet
150 0 m 1
 220 0 l 1
 162 -36 145 -54 140 -81 c 0
 140 -83 139 -86 139 -88 c 0
 139 -108 156 -123 182 -123 c 0
 194 -123 205 -121 225 -113 c 1
 211 -190 l 1
 186 -200 164 -204 142 -204 c 0
 81 -204 43 -172 43 -124 c 0
 43 -118 44 -112 45 -105 c 0
 53 -62 88 -27 150 0 c 1
EndSplineSet
EndChar

StartChar: macron
Encoding: 382 175 317
GlifName: macron
Width: 405
Flags: MW
HStem: 648 100<184 480 203 461>
VStem: 184 296<648 748>
LayerCount: 2
Fore
SplineSet
184 648 m 1
 203 748 l 1
 480 748 l 1
 461 648 l 1
 184 648 l 1
EndSplineSet
EndChar

StartChar: copyright
Encoding: 383 169 318
GlifName: copyright
Width: 791
Flags: MW
HStem: -13 80<332.5 491.5 332.5 500> 157 93<417.5 467 417.5 480.5> 494 93<459.5 513.5> 675 77<434.5 593.5>
VStem: 72 81<244.5 311> 248 107<319 338.5> 775 81<426.5 497.5>
LayerCount: 2
Fore
SplineSet
558 320 m 1
 669 320 l 1
 627 222 531 157 430 157 c 0
 322 157 248 232 248 332 c 0
 248 345 249 358 252 372 c 0
 274 493 387 587 509 587 c 0
 611 587 688 515 688 422 c 1
 577 422 l 1
 569 466 536 494 491 494 c 0
 428 494 370 442 357 373 c 0
 355 364 355 355 355 347 c 0
 355 291 390 250 445 250 c 0
 489 250 527 274 558 320 c 1
539 752 m 0
 724 752 856 615 856 438 c 0
 856 415 853 393 849 369 c 0
 810 158 606 -13 394 -13 c 0
 205 -13 72 122 72 300 c 0
 72 322 74 345 78 369 c 0
 118 583 321 752 539 752 c 0
517 675 m 0
 352 675 190 537 159 370 c 0
 156 351 153 333 153 315 c 0
 153 174 258 67 407 67 c 0
 576 67 738 203 769 369 c 0
 773 389 775 407 775 426 c 0
 775 569 670 675 517 675 c 0
EndSplineSet
EndChar

StartChar: registered
Encoding: 384 174 319
GlifName: registered
Width: 791
Flags: MW
HStem: -13 80<332.5 491.5 332.5 500> 486 93<442 480 442 442> 675 77<434.5 593.5>
VStem: 72 81<244.5 311> 539 104<441 482> 775 81<426.5 497.5>
LayerCount: 2
Fore
SplineSet
282 166 m 1
 358 579 l 1
 489 579 l 2
 558 579 586 572 610 549 c 0
 631 529 643 499 643 465 c 0
 643 456 642 447 640 437 c 0
 627 369 578 318 514 307 c 1
 600 166 l 1
 479 166 l 1
 408 300 l 1
 383 166 l 1
 282 166 l 1
421 372 m 1
 458 372 l 2
 502 372 531 393 538 430 c 0
 539 434 539 439 539 443 c 0
 539 471 519 486 480 486 c 2
 442 486 l 1
 421 372 l 1
539 752 m 0
 724 752 856 615 856 438 c 0
 856 415 853 393 849 369 c 0
 810 158 606 -13 394 -13 c 0
 205 -13 72 122 72 300 c 0
 72 322 74 345 78 369 c 0
 118 583 321 752 539 752 c 0
517 675 m 0
 352 675 190 537 159 370 c 0
 156 351 153 333 153 315 c 0
 153 174 258 67 407 67 c 0
 576 67 738 203 769 369 c 0
 773 389 775 407 775 426 c 0
 775 569 670 675 517 675 c 0
EndSplineSet
EndChar

StartChar: bullet
Encoding: 385 8226 320
GlifName: bullet
Width: 600
Flags: MW
HStem: 147 337<344 372.5>
LayerCount: 2
Fore
SplineSet
392 484 m 0
 473 484 529 425 529 347 c 0
 529 337 529 326 527 316 c 0
 510 222 419 147 326 147 c 0
 244 147 187 207 187 285 c 0
 187 295 187 305 189 315 c 0
 206 409 296 484 392 484 c 0
EndSplineSet
EndChar

StartChar: logicalnot
Encoding: 386 172 321
GlifName: logicalnot
Width: 600
Flags: MW
HStem: 359 114<132 501 111 636>
LayerCount: 2
Fore
SplineSet
132 473 m 1
 636 473 l 1
 582 182 l 1
 468 182 l 1
 501 359 l 1
 111 359 l 1
 132 473 l 1
EndSplineSet
EndChar

StartChar: brokenbar
Encoding: 387 166 322
GlifName: brokenbar
Width: 600
Flags: MW
HStem: 0 21G<240 359 240 240> 719 20G<377 496 496 496>
VStem: 240 256
LayerCount: 2
Fore
SplineSet
496 739 m 1
 440 437 l 1
 321 437 l 1
 377 739 l 1
 496 739 l 1
415 302 m 1
 359 0 l 1
 240 0 l 1
 296 302 l 1
 415 302 l 1
EndSplineSet
EndChar

StartChar: mu
Encoding: 388 181 323
GlifName: mu
Width: 601
Flags: MW
HStem: -185 21G<20 153 20 20> -13 122<307 323.5> 0 21G<424 547 424 424> 534 20G<157 290 290 290 517 650 650 650>
LayerCount: 2
Fore
SplineSet
197 52 m 1xd0
 153 -185 l 1
 20 -185 l 1
 157 554 l 1
 290 554 l 1
 241 293 l 2
 233 251 230 226 230 207 c 0
 230 189 233 177 241 162 c 0
 258 128 288 109 326 109 c 0xd0
 365 109 404 129 427 162 c 0
 444 187 455 222 468 293 c 2
 517 554 l 1
 650 554 l 1
 547 0 l 1
 424 0 l 1xb0
 434 53 l 1
 385 5 349 -13 298 -13 c 0
 251 -13 221 6 197 52 c 1xd0
EndSplineSet
EndChar

StartChar: breve.cyrlc
Encoding: 389 57472 324
GlifName: breve.cyrlc
Width: 470
Flags: MW
HStem: 616 59<341.5 382.5 341.5 394.5> 726 20G<208 309 309 309 437 538 538 538>
VStem: 208 99<705 724.5 705 746> 437 101<746 746>
LayerCount: 2
Fore
SplineSet
208 746 m 1
 309 746 l 1
 307 737 307 728 307 721 c 0
 307 689 323 675 360 675 c 0
 405 675 428 696 437 746 c 1
 538 746 l 1
 506 656 440 616 349 616 c 0
 258 616 208 656 208 746 c 1
EndSplineSet
EndChar

StartChar: breve.cyruc
Encoding: 390 57473 325
GlifName: breve.cyruc
Width: 494
Flags: MW
HStem: 796 65<390.5 427.5 390.5 440>
VStem: 244 112<891.5 913 891.5 937>
LayerCount: 2
Fore
SplineSet
244 937 m 1
 359 937 l 1
 357 927 356 917 356 909 c 0
 356 874 374 861 407 861 c 0
 448 861 473 882 483 937 c 1
 598 937 l 1
 564 842 485 796 395 796 c 0
 305 796 244 842 244 937 c 1
EndSplineSet
EndChar

StartChar: f_f
Encoding: 391 64256 326
GlifName: f_f
Width: 566
Flags: MW
HStem: 0 21G<68 68 68 201 340 340 340 473> 433 111<121 148 100 169 302 420 574 628> 611 128<360 383 383 392.5 360 397 632 655 655 664.5>
LayerCount: 2
Fore
SplineSet
68 0 m 1
 148 433 l 1
 100 433 l 1
 121 544 l 1
 169 544 l 1
 189 616 206 648 241 680 c 0
 282 719 332 739 388 739 c 0
 397 739 405 739 421 737 c 1
 397 611 l 1
 383 611 l 2
 332 611 312 594 302 544 c 1
 441 544 l 1
 461 616 478 648 513 680 c 0
 554 719 604 739 660 739 c 0
 669 739 677 739 693 737 c 1
 669 611 l 1
 655 611 l 2
 604 611 584 594 574 544 c 1
 649 544 l 1
 628 433 l 1
 553 433 l 1
 473 0 l 1
 340 0 l 1
 420 433 l 1
 281 433 l 1
 201 0 l 1
 68 0 l 1
EndSplineSet
Ligature2: "'liga' Standard Ligatures in Latin lookup 19 subtable" f f
Ligature2: "'liga' Standard Ligatures in Cyrillic lookup 18 subtable" f f
Ligature2: "'liga' Standard Ligatures lookup 17 subtable" f f
EndChar

StartChar: f_f_i
Encoding: 392 64259 327
GlifName: f_f_i
Width: 799
Flags: MW
HStem: 0 21G<68 68 68 201 340 340 340 473 612 612 612 745> 433 111<121 148 100 169 302 420 574 628> 534 20G<715 848 848 848> 611 128<360 383 383 392.5 360 397 632 655 655 664.5>
LayerCount: 2
Fore
SplineSet
612 0 m 1xb0
 715 554 l 1
 848 554 l 1
 745 0 l 1
 612 0 l 1xb0
726 614 m 1
 749 739 l 1
 882 739 l 1
 859 614 l 1
 726 614 l 1
68 0 m 1
 148 433 l 1
 100 433 l 1
 121 544 l 1
 169 544 l 1
 189 616 206 648 241 680 c 0
 282 719 332 739 388 739 c 0
 397 739 405 739 421 737 c 1
 397 611 l 1
 383 611 l 2
 332 611 312 594 302 544 c 1
 441 544 l 1
 461 616 478 648 513 680 c 0
 554 719 604 739 660 739 c 0
 669 739 677 739 693 737 c 1
 669 611 l 1
 655 611 l 2
 604 611 584 594 574 544 c 1
 649 544 l 1
 628 433 l 1
 553 433 l 1
 473 0 l 1
 340 0 l 1
 420 433 l 1
 281 433 l 1xd0
 201 0 l 1
 68 0 l 1
EndSplineSet
Ligature2: "'liga' Standard Ligatures in Latin lookup 19 subtable" f f i
Ligature2: "'liga' Standard Ligatures in Cyrillic lookup 18 subtable" f f i
Ligature2: "'liga' Standard Ligatures lookup 17 subtable" f f i
EndChar

StartChar: f_f_l
Encoding: 393 64260 328
GlifName: f_f_l
Width: 799
Flags: MW
HStem: 0 21G<68 68 68 201 340 340 340 473 612 612 612 745> 433 111<121 148 100 169 302 420 574 628> 611 128<360 383 383 392.5 360 397 632 655 655 664.5>
LayerCount: 2
Fore
SplineSet
612 0 m 1
 749 739 l 1
 882 739 l 1
 745 0 l 1
 612 0 l 1
68 0 m 1
 148 433 l 1
 100 433 l 1
 121 544 l 1
 169 544 l 1
 189 616 206 648 241 680 c 0
 282 719 332 739 388 739 c 0
 397 739 405 739 421 737 c 1
 397 611 l 1
 383 611 l 2
 332 611 312 594 302 544 c 1
 441 544 l 1
 461 616 478 648 513 680 c 0
 554 719 604 739 660 739 c 0
 669 739 677 739 693 737 c 1
 669 611 l 1
 655 611 l 2
 604 611 584 594 574 544 c 1
 649 544 l 1
 628 433 l 1
 553 433 l 1
 473 0 l 1
 340 0 l 1
 420 433 l 1
 281 433 l 1
 201 0 l 1
 68 0 l 1
EndSplineSet
Ligature2: "'liga' Standard Ligatures in Latin lookup 19 subtable" f f l
Ligature2: "'liga' Standard Ligatures in Cyrillic lookup 18 subtable" f f l
Ligature2: "'liga' Standard Ligatures lookup 17 subtable" f f l
EndChar

StartChar: uni2010
Encoding: 394 8208 329
GlifName: uni2010
Width: 337
Flags: MW
HStem: 229 118<72 371 94 349>
VStem: 72 299<229 347>
LayerCount: 2
Fore
SplineSet
72 229 m 1
 94 347 l 1
 371 347 l 1
 349 229 l 1
 72 229 l 1
EndSplineSet
EndChar

StartChar: uni2011
Encoding: 395 8209 330
GlifName: uni2011
Width: 337
Flags: MW
HStem: 229 118<72 371 94 349>
VStem: 72 299<229 347>
LayerCount: 2
Fore
SplineSet
72 229 m 1
 94 347 l 1
 371 347 l 1
 349 229 l 1
 72 229 l 1
EndSplineSet
EndChar

StartChar: figuredash
Encoding: 396 8210 331
GlifName: figuredash
Width: 560
Flags: MW
HStem: 229 118<72 594 94 572>
LayerCount: 2
Fore
SplineSet
72 229 m 1
 94 347 l 1
 594 347 l 1
 572 229 l 1
 72 229 l 1
EndSplineSet
EndChar

StartChar: uni2015
Encoding: 397 8213 332
GlifName: uni2015
Width: 1000
Flags: MW
HStem: 229 118<42 1064 64 1042>
LayerCount: 2
Fore
SplineSet
42 229 m 1
 64 347 l 1
 1064 347 l 1
 1042 229 l 1
 42 229 l 1
EndSplineSet
EndChar

StartChar: uni0400
Encoding: 398 1024 333
GlifName: uni0400
Width: 524
Flags: MW
HStem: 0 131<232 468> 303 131<288 513 264 537> 608 131<321 581 321 321>
LayerCount: 2
Fore
SplineSet
71 0 m 1
 208 739 l 1
 605 739 l 1
 581 608 l 1
 321 608 l 1
 288 434 l 1
 537 434 l 1
 513 303 l 1
 264 303 l 1
 232 131 l 1
 492 131 l 1
 468 0 l 1
 71 0 l 1
259 912 m 1
 332 1000 l 1
 530 867 l 1
 462 788 l 1
 259 912 l 1
EndSplineSet
EndChar

StartChar: uni040D
Encoding: 399 1037 334
GlifName: uni040D_
Width: 738
Flags: MW
HStem: 0 21G<71 210 71 71 531 667 531 531> 719 20G<208 344 344 344 665 804 804 804> 788 212<407 537>
VStem: 334 271<867 912>
LayerCount: 2
Fore
SplineSet
334 912 m 1
 407 1000 l 1
 605 867 l 1
 537 788 l 1
 334 912 l 1
665 739 m 1
 804 739 l 1
 667 0 l 1
 531 0 l 1
 626 512 l 1
 210 0 l 1
 71 0 l 1
 208 739 l 1
 344 739 l 1
 249 227 l 1
 665 739 l 1
EndSplineSet
EndChar

StartChar: uni0450
Encoding: 400 1104 335
GlifName: uni0450
Width: 634
Flags: MW
HStem: -13 122<305.5 371.5> 218 117<230 537 230 641 212 537> 445 122<364.5 445>
LayerCount: 2
Fore
SplineSet
641 218 m 1
 212 218 l 1
 216 151 266 109 345 109 c 0
 400 109 436 124 477 164 c 1
 622 164 l 1
 608 136 590 113 564 87 c 0
 493 19 417 -13 326 -13 c 0
 176 -13 74 86 74 222 c 0
 74 239 76 257 79 275 c 0
 109 438 262 567 425 567 c 0
 569 567 662 471 662 332 c 0
 662 312 660 291 656 269 c 0
 652 249 649 237 641 218 c 1
230 335 m 1
 537 335 l 1
 533 406 486 445 404 445 c 0
 325 445 264 407 230 335 c 1
278 737 m 1
 351 825 l 1
 548 692 l 1
 481 613 l 1
 278 737 l 1
EndSplineSet
EndChar

StartChar: uni045D
Encoding: 401 1117 336
GlifName: uni045D_
Width: 623
Flags: MW
HStem: 0 21G<54 189 54 54 437 569 437 437> 534 20G<157 289 289 289 537 672 672 672> 613 212<349 479>
VStem: 276 271<692 737>
LayerCount: 2
Fore
SplineSet
276 737 m 1
 349 825 l 1
 547 692 l 1
 479 613 l 1
 276 737 l 1
537 554 m 1
 672 554 l 1
 569 0 l 1
 437 0 l 1
 505 366 l 1
 189 0 l 1
 54 0 l 1
 157 554 l 1
 289 554 l 1
 221 188 l 1
 537 554 l 1
EndSplineSet
Substitution2: "'locl' Localized Forms in Cyrillic lookup 11 subtable" uni045D.loclBGR
Substitution2: "'aalt' Access All Alternates lookup 0 subtable" uni045D.loclBGR
EndChar

StartChar: afii10050
Encoding: 402 1168 337
GlifName: afii10050
Width: 467
Flags: MW
HStem: 0 21G<71 208 71 71> 608 131<321 476 208 573 321 321>
LayerCount: 2
Fore
SplineSet
529 855 m 1
 618 855 l 1
 573 608 l 1
 321 608 l 1
 208 0 l 1
 71 0 l 1
 208 739 l 1
 476 739 l 1
 529 855 l 1
EndSplineSet
EndChar

StartChar: afii10098
Encoding: 403 1169 338
GlifName: afii10098
Width: 386
Flags: MW
HStem: 0 21G<54 187 54 54> 433 121<267 359 157 448 267 267>
LayerCount: 2
Fore
SplineSet
411 669 m 1
 492 669 l 1
 448 433 l 1
 267 433 l 1
 187 0 l 1
 54 0 l 1
 157 554 l 1
 359 554 l 1
 411 669 l 1
EndSplineSet
EndChar

StartChar: afii10146
Encoding: 404 1122 339
GlifName: afii10146
Width: 671
Flags: MW
HStem: 0 131<293 320> 309 131<326 400 351 374> 527 131<129 230 105 254 391 511 129 367> 719 20G<269 406 406 406>
VStem: 548 141<234 296>
LayerCount: 2
Fore
SplineSet
326 309 m 1
 293 131 l 1
 348 131 l 2
 402 131 428 133 455 138 c 0
 505 149 539 177 547 222 c 0
 548 227 548 232 548 236 c 0
 548 268 525 289 485 299 c 0
 459 306 422 309 374 309 c 2
 326 309 l 1
269 739 m 1
 406 739 l 1
 391 658 l 1
 535 658 l 1
 511 527 l 1
 367 527 l 1
 351 440 l 1
 400 440 l 2
 513 440 564 433 605 411 c 0
 659 382 689 329 689 263 c 0
 689 249 688 234 685 219 c 0
 670 137 620 75 546 37 c 0
 492 9 433 0 320 0 c 2
 132 0 l 1
 230 527 l 1
 105 527 l 1
 129 658 l 1
 254 658 l 1
 269 739 l 1
EndSplineSet
EndChar

StartChar: afii10194
Encoding: 405 1123 340
GlifName: afii10194
Width: 592
Flags: MW
HStem: 0 121<289 378> 236 121<311 444 333 413> 453 121<124 218 102 240 124 351 373 477> 719 20G<271 404 404 404>
VStem: 470 136<188 253>
LayerCount: 2
Fore
SplineSet
444 357 m 2
 546 357 606 294 606 212 c 0
 606 201 605 190 603 179 c 0
 585 81 493 0 378 0 c 2
 134 0 l 1
 218 453 l 1
 102 453 l 1
 124 574 l 1
 240 574 l 1
 271 739 l 1
 404 739 l 1
 373 574 l 1
 499 574 l 1
 477 453 l 1
 351 453 l 1
 333 357 l 1
 444 357 l 2
311 236 m 1
 289 121 l 1
 391 121 l 2
 431 121 463 144 469 179 c 0
 470 183 470 186 470 190 c 0
 470 218 448 236 413 236 c 2
 311 236 l 1
EndSplineSet
EndChar

StartChar: zero.fitted
Encoding: 406 57344 341
GlifName: zero.fitted
Width: 567
Flags: MW
HStem: -13 122<274.5 343.5 274.5 364> 630 122<366 432>
VStem: 75 136<174.5 188.5> 494 136<553 567>
LayerCount: 2
Fore
SplineSet
625 505 m 2
 577 247 l 2
 547 83 440 -13 288 -13 c 0
 198 -13 133 20 98 81 c 0
 82 110 75 141 75 178 c 0
 75 199 77 221 82 247 c 2
 128 498 l 2
 157 654 271 752 423 752 c 0
 553 752 630 679 630 562 c 0
 630 544 629 525 625 505 c 2
261 498 m 2
 216 251 l 2
 213 235 211 220 211 206 c 0
 211 143 243 109 306 109 c 0
 381 109 427 155 444 248 c 2
 490 498 l 2
 493 512 494 525 494 537 c 0
 494 597 462 630 402 630 c 0
 330 630 276 580 261 498 c 2
EndSplineSet
Substitution2: "'tnum' Tabular Numbers in Latin lookup 22 subtable" zero
Substitution2: "'tnum' Tabular Numbers in Cyrillic lookup 21 subtable" zero
Substitution2: "'tnum' Tabular Numbers lookup 20 subtable" zero
Substitution2: "'aalt' Access All Alternates lookup 0 subtable" zero
EndChar

